G04*
G04 #@! TF.GenerationSoftware,Altium Limited,Altium NEXUS,4.0.7 (54)*
G04*
G04 Layer_Color=16711935*
%FSLAX44Y44*%
%MOMM*%
G71*
G04*
G04 #@! TF.SameCoordinates,2F636ACE-6931-4982-A4A6-23C36C612785*
G04*
G04*
G04 #@! TF.FilePolarity,Negative*
G04*
G01*
G75*
G04:AMPARAMS|DCode=24|XSize=1.0922mm|YSize=1.0922mm|CornerRadius=0.2127mm|HoleSize=0mm|Usage=FLASHONLY|Rotation=180.000|XOffset=0mm|YOffset=0mm|HoleType=Round|Shape=RoundedRectangle|*
%AMROUNDEDRECTD24*
21,1,1.0922,0.6668,0,0,180.0*
21,1,0.6668,1.0922,0,0,180.0*
1,1,0.4255,-0.3334,0.3334*
1,1,0.4255,0.3334,0.3334*
1,1,0.4255,0.3334,-0.3334*
1,1,0.4255,-0.3334,-0.3334*
%
%ADD24ROUNDEDRECTD24*%
G04:AMPARAMS|DCode=25|XSize=1.0922mm|YSize=1.0922mm|CornerRadius=0.2127mm|HoleSize=0mm|Usage=FLASHONLY|Rotation=270.000|XOffset=0mm|YOffset=0mm|HoleType=Round|Shape=RoundedRectangle|*
%AMROUNDEDRECTD25*
21,1,1.0922,0.6668,0,0,270.0*
21,1,0.6668,1.0922,0,0,270.0*
1,1,0.4255,-0.3334,-0.3334*
1,1,0.4255,-0.3334,0.3334*
1,1,0.4255,0.3334,0.3334*
1,1,0.4255,0.3334,-0.3334*
%
%ADD25ROUNDEDRECTD25*%
G04:AMPARAMS|DCode=29|XSize=1.0922mm|YSize=1.0922mm|CornerRadius=0.2127mm|HoleSize=0mm|Usage=FLASHONLY|Rotation=315.000|XOffset=0mm|YOffset=0mm|HoleType=Round|Shape=RoundedRectangle|*
%AMROUNDEDRECTD29*
21,1,1.0922,0.6668,0,0,315.0*
21,1,0.6668,1.0922,0,0,315.0*
1,1,0.4255,0.0000,-0.4715*
1,1,0.4255,-0.4715,0.0000*
1,1,0.4255,0.0000,0.4715*
1,1,0.4255,0.4715,0.0000*
%
%ADD29ROUNDEDRECTD29*%
%ADD30C,1.7032*%
%ADD31R,1.7032X1.7032*%
%ADD32O,1.7032X2.2032*%
%ADD33R,1.7032X2.2032*%
%ADD34C,1.5240*%
%ADD35C,1.8532*%
%ADD36R,1.8532X1.8532*%
G04:AMPARAMS|DCode=46|XSize=0.6mm|YSize=0.8mm|CornerRadius=0mm|HoleSize=0mm|Usage=FLASHONLY|Rotation=225.000|XOffset=0mm|YOffset=0mm|HoleType=Round|Shape=Rectangle|*
%AMROTATEDRECTD46*
4,1,4,-0.0707,0.4950,0.4950,-0.0707,0.0707,-0.4950,-0.4950,0.0707,-0.0707,0.4950,0.0*
%
%ADD46ROTATEDRECTD46*%

G04:AMPARAMS|DCode=49|XSize=0.8532mm|YSize=1.8532mm|CornerRadius=0.1504mm|HoleSize=0mm|Usage=FLASHONLY|Rotation=90.000|XOffset=0mm|YOffset=0mm|HoleType=Round|Shape=RoundedRectangle|*
%AMROUNDEDRECTD49*
21,1,0.8532,1.5525,0,0,90.0*
21,1,0.5525,1.8532,0,0,90.0*
1,1,0.3007,0.7763,0.2763*
1,1,0.3007,0.7763,-0.2763*
1,1,0.3007,-0.7763,-0.2763*
1,1,0.3007,-0.7763,0.2763*
%
%ADD49ROUNDEDRECTD49*%
G04:AMPARAMS|DCode=50|XSize=1.0922mm|YSize=1.0922mm|CornerRadius=0.2127mm|HoleSize=0mm|Usage=FLASHONLY|Rotation=45.000|XOffset=0mm|YOffset=0mm|HoleType=Round|Shape=RoundedRectangle|*
%AMROUNDEDRECTD50*
21,1,1.0922,0.6668,0,0,45.0*
21,1,0.6668,1.0922,0,0,45.0*
1,1,0.4255,0.4715,0.0000*
1,1,0.4255,0.0000,-0.4715*
1,1,0.4255,-0.4715,0.0000*
1,1,0.4255,0.0000,0.4715*
%
%ADD50ROUNDEDRECTD50*%
D24*
X329976Y177056D02*
D03*
X314736D02*
D03*
X255010Y340000D02*
D03*
X270250D02*
D03*
Y355750D02*
D03*
X255010D02*
D03*
X361880Y391000D02*
D03*
X377120D02*
D03*
X362130Y375750D02*
D03*
X377370D02*
D03*
D25*
X359250Y145630D02*
D03*
Y160870D02*
D03*
X261250Y146760D02*
D03*
Y162000D02*
D03*
X360250Y81130D02*
D03*
Y96370D02*
D03*
X359250Y112380D02*
D03*
X359250Y127620D02*
D03*
D29*
X231750Y290750D02*
D03*
X242526Y279974D02*
D03*
X288224Y242276D02*
D03*
X299000Y231500D02*
D03*
D30*
X327000Y35000D02*
D03*
X302000D02*
D03*
X223500Y34750D02*
D03*
X198500D02*
D03*
X331750Y347750D02*
D03*
X376750D02*
D03*
X331750Y412750D02*
D03*
X376750D02*
D03*
D31*
X352000Y35000D02*
D03*
X248500Y34750D02*
D03*
D32*
X251500Y399750D02*
D03*
X86000Y399250D02*
D03*
X111000D02*
D03*
X136000D02*
D03*
X161000D02*
D03*
X186000D02*
D03*
D33*
X276500Y399750D02*
D03*
X211000Y399250D02*
D03*
D34*
X110508Y149992D02*
D03*
X144992Y115508D02*
D03*
D35*
X25000Y75800D02*
D03*
X50400Y75800D02*
D03*
X25000Y101200D02*
D03*
X50400Y101200D02*
D03*
X25000Y126600D02*
D03*
X50400Y126600D02*
D03*
X25000Y355200D02*
D03*
X50400Y355200D02*
D03*
X25000Y380600D02*
D03*
X50400D02*
D03*
X25000Y406000D02*
D03*
X50400Y329800D02*
D03*
X25000Y329800D02*
D03*
X50400Y304400D02*
D03*
X25000Y304400D02*
D03*
X50400Y279000D02*
D03*
X25000D02*
D03*
X50400Y253600D02*
D03*
X25000D02*
D03*
X50400Y228200D02*
D03*
X25000Y228200D02*
D03*
X50400Y202800D02*
D03*
X25000Y202800D02*
D03*
X50400Y177400D02*
D03*
X25000D02*
D03*
X50400Y152000D02*
D03*
X25000D02*
D03*
X50400Y50400D02*
D03*
Y25000D02*
D03*
X25000Y50400D02*
D03*
Y25000D02*
D03*
X406000Y75800D02*
D03*
X431400D02*
D03*
X406000Y101200D02*
D03*
X431400Y101200D02*
D03*
X406000Y126600D02*
D03*
X431400D02*
D03*
X406000Y355200D02*
D03*
X431400D02*
D03*
X406000Y380600D02*
D03*
X431400D02*
D03*
X406000Y406000D02*
D03*
X431400Y329800D02*
D03*
X406000Y329800D02*
D03*
X431400Y304400D02*
D03*
X406000D02*
D03*
X431400Y279000D02*
D03*
X406000D02*
D03*
X431400Y253600D02*
D03*
X406000D02*
D03*
X431400Y228200D02*
D03*
X406000D02*
D03*
X431400Y202800D02*
D03*
X406000D02*
D03*
X431400Y177400D02*
D03*
X406000Y177400D02*
D03*
X431400Y152000D02*
D03*
X406000D02*
D03*
X431400Y50400D02*
D03*
Y25000D02*
D03*
X406000Y50400D02*
D03*
Y25000D02*
D03*
D36*
X50400Y406000D02*
D03*
X431400D02*
D03*
D46*
X222950Y282200D02*
D03*
X213050Y272300D02*
D03*
D49*
X282250Y74050D02*
D03*
Y86750D02*
D03*
Y99450D02*
D03*
Y112150D02*
D03*
Y124850D02*
D03*
Y137550D02*
D03*
Y150250D02*
D03*
Y162950D02*
D03*
X338750Y74050D02*
D03*
Y86750D02*
D03*
Y99450D02*
D03*
Y112150D02*
D03*
Y124850D02*
D03*
Y137550D02*
D03*
Y150250D02*
D03*
Y162950D02*
D03*
D50*
X184888Y206638D02*
D03*
X174112Y195862D02*
D03*
M02*
