G04*
G04 #@! TF.GenerationSoftware,Altium Limited,Altium NEXUS,4.0.7 (54)*
G04*
G04 Layer_Physical_Order=1*
G04 Layer_Color=255*
%FSLAX44Y44*%
%MOMM*%
G71*
G04*
G04 #@! TF.SameCoordinates,2F636ACE-6931-4982-A4A6-23C36C612785*
G04*
G04*
G04 #@! TF.FilePolarity,Positive*
G04*
G01*
G75*
%ADD17C,0.1600*%
G04:AMPARAMS|DCode=18|XSize=0.889mm|YSize=0.889mm|CornerRadius=0.1111mm|HoleSize=0mm|Usage=FLASHONLY|Rotation=180.000|XOffset=0mm|YOffset=0mm|HoleType=Round|Shape=RoundedRectangle|*
%AMROUNDEDRECTD18*
21,1,0.8890,0.6668,0,0,180.0*
21,1,0.6668,0.8890,0,0,180.0*
1,1,0.2223,-0.3334,0.3334*
1,1,0.2223,0.3334,0.3334*
1,1,0.2223,0.3334,-0.3334*
1,1,0.2223,-0.3334,-0.3334*
%
%ADD18ROUNDEDRECTD18*%
G04:AMPARAMS|DCode=19|XSize=0.889mm|YSize=0.889mm|CornerRadius=0.1111mm|HoleSize=0mm|Usage=FLASHONLY|Rotation=270.000|XOffset=0mm|YOffset=0mm|HoleType=Round|Shape=RoundedRectangle|*
%AMROUNDEDRECTD19*
21,1,0.8890,0.6668,0,0,270.0*
21,1,0.6668,0.8890,0,0,270.0*
1,1,0.2223,-0.3334,-0.3334*
1,1,0.2223,-0.3334,0.3334*
1,1,0.2223,0.3334,0.3334*
1,1,0.2223,0.3334,-0.3334*
%
%ADD19ROUNDEDRECTD19*%
G04:AMPARAMS|DCode=20|XSize=0.55mm|YSize=1.75mm|CornerRadius=0mm|HoleSize=0mm|Usage=FLASHONLY|Rotation=315.000|XOffset=0mm|YOffset=0mm|HoleType=Round|Shape=Round|*
%AMOVALD20*
21,1,1.2000,0.5500,0.0000,0.0000,45.0*
1,1,0.5500,-0.4243,-0.4243*
1,1,0.5500,0.4243,0.4243*
%
%ADD20OVALD20*%

G04:AMPARAMS|DCode=21|XSize=0.55mm|YSize=1.75mm|CornerRadius=0mm|HoleSize=0mm|Usage=FLASHONLY|Rotation=45.000|XOffset=0mm|YOffset=0mm|HoleType=Round|Shape=Round|*
%AMOVALD21*
21,1,1.2000,0.5500,0.0000,0.0000,135.0*
1,1,0.5500,0.4243,-0.4243*
1,1,0.5500,-0.4243,0.4243*
%
%ADD21OVALD21*%

G04:AMPARAMS|DCode=22|XSize=0.762mm|YSize=0.889mm|CornerRadius=0.0953mm|HoleSize=0mm|Usage=FLASHONLY|Rotation=180.000|XOffset=0mm|YOffset=0mm|HoleType=Round|Shape=RoundedRectangle|*
%AMROUNDEDRECTD22*
21,1,0.7620,0.6985,0,0,180.0*
21,1,0.5715,0.8890,0,0,180.0*
1,1,0.1905,-0.2858,0.3493*
1,1,0.1905,0.2858,0.3493*
1,1,0.1905,0.2858,-0.3493*
1,1,0.1905,-0.2858,-0.3493*
%
%ADD22ROUNDEDRECTD22*%
G04:AMPARAMS|DCode=23|XSize=0.889mm|YSize=0.889mm|CornerRadius=0.1111mm|HoleSize=0mm|Usage=FLASHONLY|Rotation=315.000|XOffset=0mm|YOffset=0mm|HoleType=Round|Shape=RoundedRectangle|*
%AMROUNDEDRECTD23*
21,1,0.8890,0.6668,0,0,315.0*
21,1,0.6668,0.8890,0,0,315.0*
1,1,0.2223,0.0000,-0.4715*
1,1,0.2223,-0.4715,0.0000*
1,1,0.2223,0.0000,0.4715*
1,1,0.2223,0.4715,0.0000*
%
%ADD23ROUNDEDRECTD23*%
%ADD37C,0.5000*%
%ADD38C,1.5000*%
%ADD39R,1.5000X1.5000*%
%ADD40O,1.5000X2.0000*%
%ADD41R,1.5000X2.0000*%
%ADD42C,1.3208*%
%ADD43C,1.6500*%
%ADD44R,1.6500X1.6500*%
%ADD45C,0.6000*%
G36*
X451820Y4180D02*
X4180D01*
Y427820D01*
X451820D01*
Y4180D01*
D02*
G37*
%LPC*%
G36*
X247250Y425690D02*
X245455Y425333D01*
X243934Y424316D01*
X242917Y422795D01*
X242560Y421000D01*
X242764Y419975D01*
X230270Y407480D01*
X229739Y406686D01*
X229553Y405750D01*
Y384897D01*
X228684Y384316D01*
X227667Y382795D01*
X227310Y381000D01*
X227667Y379205D01*
X228684Y377684D01*
X230205Y376667D01*
X232000Y376310D01*
X233795Y376667D01*
X235316Y377684D01*
X236333Y379205D01*
X236690Y381000D01*
X236333Y382795D01*
X235316Y384316D01*
X234447Y384897D01*
Y404736D01*
X246224Y416514D01*
X247250Y416310D01*
X249045Y416667D01*
X250566Y417684D01*
X251583Y419205D01*
X251940Y421000D01*
X251583Y422795D01*
X250566Y424316D01*
X249045Y425333D01*
X247250Y425690D01*
D02*
G37*
G36*
X333020Y422709D02*
Y414020D01*
X341709D01*
X341531Y415371D01*
X340520Y417813D01*
X338911Y419911D01*
X336813Y421520D01*
X334371Y422532D01*
X333020Y422709D01*
D02*
G37*
G36*
X330480D02*
X329129Y422532D01*
X326687Y421520D01*
X324589Y419911D01*
X322980Y417813D01*
X321968Y415371D01*
X321791Y414020D01*
X330480D01*
Y422709D01*
D02*
G37*
G36*
X442190Y416790D02*
X432670D01*
Y407270D01*
X442190D01*
Y416790D01*
D02*
G37*
G36*
X430130D02*
X420610D01*
Y407270D01*
X430130D01*
Y416790D01*
D02*
G37*
G36*
X376750Y421928D02*
X374374Y421616D01*
X372161Y420699D01*
X370260Y419240D01*
X368801Y417339D01*
X367884Y415126D01*
X367571Y412750D01*
X367884Y410374D01*
X368801Y408161D01*
X370260Y406260D01*
X372161Y404801D01*
X374374Y403884D01*
X376750Y403572D01*
X379126Y403884D01*
X381339Y404801D01*
X383240Y406260D01*
X384699Y408161D01*
X385616Y410374D01*
X385928Y412750D01*
X385616Y415126D01*
X384699Y417339D01*
X383240Y419240D01*
X381339Y420699D01*
X379126Y421616D01*
X376750Y421928D01*
D02*
G37*
G36*
X341709Y411480D02*
X333020D01*
Y402791D01*
X334371Y402968D01*
X336813Y403980D01*
X338911Y405589D01*
X340520Y407687D01*
X341531Y410129D01*
X341709Y411480D01*
D02*
G37*
G36*
X330480D02*
X321791D01*
X321968Y410129D01*
X322980Y407687D01*
X324589Y405589D01*
X326687Y403980D01*
X329129Y402968D01*
X330480Y402791D01*
Y411480D01*
D02*
G37*
G36*
X406000Y415935D02*
X403429Y415597D01*
X401032Y414604D01*
X398975Y413025D01*
X397396Y410968D01*
X396404Y408571D01*
X396065Y406000D01*
X396404Y403429D01*
X397396Y401032D01*
X398975Y398975D01*
X401032Y397396D01*
X403429Y396404D01*
X406000Y396065D01*
X408571Y396404D01*
X410967Y397396D01*
X413025Y398975D01*
X414604Y401032D01*
X415597Y403429D01*
X415935Y406000D01*
X415597Y408571D01*
X414604Y410968D01*
X413025Y413025D01*
X410967Y414604D01*
X408571Y415597D01*
X406000Y415935D01*
D02*
G37*
G36*
X25000Y415935D02*
X22429Y415597D01*
X20032Y414604D01*
X17975Y413025D01*
X16396Y410967D01*
X15404Y408571D01*
X15065Y406000D01*
X15404Y403429D01*
X16396Y401032D01*
X17975Y398975D01*
X20032Y397396D01*
X22429Y396404D01*
X25000Y396065D01*
X27571Y396404D01*
X29968Y397396D01*
X32025Y398975D01*
X33604Y401032D01*
X34597Y403429D01*
X34935Y406000D01*
X34597Y408571D01*
X33604Y410967D01*
X32025Y413025D01*
X29968Y414604D01*
X27571Y415597D01*
X25000Y415935D01*
D02*
G37*
G36*
X442190Y404730D02*
X432670D01*
Y395210D01*
X442190D01*
Y404730D01*
D02*
G37*
G36*
X430130D02*
X420610D01*
Y395210D01*
X430130D01*
Y404730D01*
D02*
G37*
G36*
X286540Y398480D02*
X277770D01*
Y387210D01*
X286540D01*
Y398480D01*
D02*
G37*
G36*
X275230D02*
X266460D01*
Y387210D01*
X275230D01*
Y398480D01*
D02*
G37*
G36*
X300500Y421430D02*
X261456D01*
X259856Y421112D01*
X258500Y420206D01*
X250457Y412163D01*
X249819Y411207D01*
X249124Y411116D01*
X246911Y410199D01*
X245010Y408740D01*
X243551Y406839D01*
X242634Y404626D01*
X242321Y402250D01*
Y397250D01*
X242634Y394874D01*
X243551Y392661D01*
X245010Y390760D01*
X246911Y389301D01*
X249124Y388384D01*
X251500Y388072D01*
X253876Y388384D01*
X256089Y389301D01*
X257990Y390760D01*
X259449Y392661D01*
X260366Y394874D01*
X260679Y397250D01*
Y402250D01*
X260366Y404626D01*
X259449Y406839D01*
X258367Y408249D01*
X263188Y413070D01*
X265513D01*
X266460Y412290D01*
X266460Y411800D01*
Y401020D01*
X276500D01*
X286540D01*
Y411800D01*
X286540Y412290D01*
X287487Y413070D01*
X298769D01*
X323794Y388044D01*
X325150Y387138D01*
X326750Y386820D01*
X375097D01*
X375325Y386667D01*
X377120Y386310D01*
X378915Y386667D01*
X380436Y387684D01*
X381453Y389205D01*
X381810Y391000D01*
X381453Y392795D01*
X380436Y394316D01*
X378915Y395333D01*
X377120Y395690D01*
X375325Y395333D01*
X375097Y395180D01*
X328481D01*
X303456Y420206D01*
X302100Y421112D01*
X300500Y421430D01*
D02*
G37*
G36*
X431400Y390535D02*
X428829Y390196D01*
X426432Y389204D01*
X424375Y387625D01*
X422796Y385568D01*
X421804Y383171D01*
X421465Y380600D01*
X421804Y378029D01*
X422796Y375633D01*
X422872Y375533D01*
X417536Y370197D01*
X409943D01*
X409690Y371467D01*
X410967Y371996D01*
X413025Y373575D01*
X414604Y375633D01*
X415597Y378029D01*
X415935Y380600D01*
X415597Y383171D01*
X414604Y385568D01*
X413025Y387625D01*
X410967Y389204D01*
X408571Y390196D01*
X406000Y390535D01*
X403429Y390196D01*
X401032Y389204D01*
X398975Y387625D01*
X397396Y385568D01*
X396404Y383171D01*
X396387Y383047D01*
X334875D01*
X333938Y382861D01*
X333144Y382330D01*
X260536Y309722D01*
X259724Y309884D01*
X258026Y309547D01*
X256588Y308585D01*
X248102Y300100D01*
X247141Y298661D01*
X246803Y296964D01*
X247141Y295266D01*
X248102Y293828D01*
X249541Y292866D01*
X251238Y292528D01*
X251642Y292609D01*
X252540Y291711D01*
X252460Y291307D01*
X252798Y289610D01*
X253759Y288171D01*
X255198Y287209D01*
X256895Y286872D01*
X257299Y286952D01*
X258197Y286054D01*
X258117Y285650D01*
X258454Y283953D01*
X259416Y282514D01*
X260855Y281552D01*
X262552Y281215D01*
X262956Y281295D01*
X263854Y280397D01*
X263774Y279993D01*
X264111Y278296D01*
X265073Y276857D01*
X266512Y275896D01*
X268209Y275558D01*
X268613Y275638D01*
X269511Y274740D01*
X269431Y274336D01*
X269768Y272639D01*
X270730Y271200D01*
X272169Y270239D01*
X273866Y269901D01*
X274270Y269981D01*
X275168Y269083D01*
X275087Y268679D01*
X275425Y266982D01*
X276386Y265543D01*
X277825Y264582D01*
X279523Y264244D01*
X279926Y264325D01*
X280825Y263426D01*
X280744Y263023D01*
X281082Y261325D01*
X282043Y259886D01*
X283482Y258925D01*
X285179Y258587D01*
X285583Y258668D01*
X286481Y257770D01*
X286401Y257366D01*
X286739Y255669D01*
X287700Y254230D01*
X289139Y253268D01*
X290836Y252931D01*
X291240Y253011D01*
X292138Y252113D01*
X292058Y251709D01*
X292396Y250012D01*
X293357Y248573D01*
X294796Y247611D01*
X296493Y247274D01*
X298190Y247611D01*
X299629Y248573D01*
X308115Y257058D01*
X309076Y258497D01*
X309414Y260194D01*
X309252Y261007D01*
X324798Y276553D01*
X396387D01*
X396404Y276429D01*
X397396Y274032D01*
X398975Y271975D01*
X401032Y270396D01*
X403429Y269404D01*
X406000Y269065D01*
X408571Y269404D01*
X410967Y270396D01*
X413025Y271975D01*
X414604Y274032D01*
X415597Y276429D01*
X415935Y279000D01*
X415597Y281571D01*
X414604Y283967D01*
X413025Y286025D01*
X410967Y287604D01*
X410535Y287783D01*
X410788Y289053D01*
X418500D01*
X419436Y289239D01*
X420230Y289770D01*
X426333Y295872D01*
X426432Y295796D01*
X428829Y294804D01*
X431400Y294465D01*
X433971Y294804D01*
X436367Y295796D01*
X438425Y297375D01*
X440004Y299433D01*
X440996Y301829D01*
X441335Y304400D01*
X440996Y306971D01*
X440004Y309368D01*
X438425Y311425D01*
X436367Y313004D01*
X433971Y313996D01*
X431400Y314335D01*
X428829Y313996D01*
X426432Y313004D01*
X424375Y311425D01*
X422796Y309368D01*
X421804Y306971D01*
X421465Y304400D01*
X421804Y301829D01*
X422796Y299433D01*
X422872Y299333D01*
X417486Y293947D01*
X409822D01*
X409570Y295217D01*
X410967Y295796D01*
X413025Y297375D01*
X414604Y299433D01*
X415597Y301829D01*
X415935Y304400D01*
X415597Y306971D01*
X414604Y309368D01*
X413025Y311425D01*
X410967Y313004D01*
X409576Y313580D01*
X409517Y313759D01*
X409542Y314969D01*
X409992Y315270D01*
X420875Y326153D01*
X422373Y325855D01*
X422796Y324832D01*
X424375Y322775D01*
X426432Y321196D01*
X428829Y320204D01*
X431400Y319865D01*
X433971Y320204D01*
X436367Y321196D01*
X438425Y322775D01*
X440004Y324832D01*
X440997Y327229D01*
X441335Y329800D01*
X440997Y332371D01*
X440004Y334767D01*
X438425Y336825D01*
X436367Y338404D01*
X433971Y339396D01*
X431400Y339735D01*
X428829Y339396D01*
X426432Y338404D01*
X424375Y336825D01*
X422796Y334767D01*
X421804Y332371D01*
X421746Y331936D01*
X420750D01*
X419814Y331749D01*
X419020Y331219D01*
X417051Y329250D01*
X416476Y329533D01*
X415920Y329915D01*
X415597Y332371D01*
X414604Y334767D01*
X413025Y336825D01*
X410967Y338404D01*
X409449Y339033D01*
X409701Y340303D01*
X418950D01*
X419887Y340489D01*
X420680Y341020D01*
X426333Y346672D01*
X426432Y346596D01*
X428829Y345604D01*
X431400Y345265D01*
X433971Y345604D01*
X436367Y346596D01*
X438425Y348175D01*
X440004Y350233D01*
X440997Y352629D01*
X441335Y355200D01*
X440997Y357771D01*
X440004Y360168D01*
X438425Y362225D01*
X436367Y363804D01*
X433971Y364796D01*
X431400Y365135D01*
X428829Y364796D01*
X426432Y363804D01*
X424375Y362225D01*
X422796Y360168D01*
X421804Y357771D01*
X421465Y355200D01*
X421804Y352629D01*
X422796Y350233D01*
X422872Y350133D01*
X417936Y345197D01*
X410909D01*
X410656Y346467D01*
X410967Y346596D01*
X413025Y348175D01*
X414604Y350233D01*
X415597Y352629D01*
X415935Y355200D01*
X415597Y357771D01*
X414604Y360168D01*
X413025Y362225D01*
X410967Y363804D01*
X410415Y364033D01*
X410667Y365303D01*
X418550D01*
X419486Y365489D01*
X420280Y366020D01*
X426333Y372072D01*
X426432Y371996D01*
X428829Y371004D01*
X431400Y370665D01*
X433971Y371004D01*
X436367Y371996D01*
X438425Y373575D01*
X440004Y375633D01*
X440997Y378029D01*
X441335Y380600D01*
X440997Y383171D01*
X440004Y385568D01*
X438425Y387625D01*
X436367Y389204D01*
X433971Y390196D01*
X431400Y390535D01*
D02*
G37*
G36*
X201069Y419172D02*
X61125D01*
X60188Y418986D01*
X59395Y418455D01*
X56789Y415850D01*
X40550D01*
Y396150D01*
X39571Y395447D01*
X37400D01*
X36464Y395261D01*
X35670Y394730D01*
X30067Y389128D01*
X29968Y389204D01*
X27571Y390196D01*
X25000Y390535D01*
X22429Y390196D01*
X20032Y389204D01*
X17975Y387625D01*
X16396Y385568D01*
X15404Y383171D01*
X15065Y380600D01*
X15404Y378029D01*
X16396Y375633D01*
X17975Y373575D01*
X20032Y371996D01*
X22429Y371004D01*
X25000Y370665D01*
X27571Y371004D01*
X29968Y371996D01*
X32025Y373575D01*
X33604Y375633D01*
X34597Y378029D01*
X34935Y380600D01*
X34597Y383171D01*
X33604Y385568D01*
X33528Y385667D01*
X38414Y390553D01*
X45371D01*
X45623Y389283D01*
X45433Y389204D01*
X43375Y387625D01*
X41796Y385568D01*
X40804Y383171D01*
X40465Y380600D01*
X40804Y378029D01*
X41796Y375633D01*
X43375Y373575D01*
X45433Y371996D01*
X46710Y371467D01*
X46457Y370197D01*
X37550D01*
X36614Y370011D01*
X35820Y369480D01*
X30067Y363728D01*
X29968Y363804D01*
X27571Y364796D01*
X25000Y365135D01*
X22429Y364796D01*
X20032Y363804D01*
X17975Y362225D01*
X16396Y360168D01*
X15404Y357771D01*
X15065Y355200D01*
X15404Y352629D01*
X16396Y350233D01*
X17975Y348175D01*
X20032Y346596D01*
X22429Y345604D01*
X25000Y345265D01*
X27571Y345604D01*
X29968Y346596D01*
X32025Y348175D01*
X33604Y350233D01*
X34597Y352629D01*
X34935Y355200D01*
X34597Y357771D01*
X33604Y360168D01*
X33528Y360267D01*
X38564Y365303D01*
X45733D01*
X45985Y364033D01*
X45433Y363804D01*
X43375Y362225D01*
X41796Y360168D01*
X40803Y357771D01*
X40465Y355200D01*
X40803Y352629D01*
X41796Y350233D01*
X43375Y348175D01*
X45433Y346596D01*
X46348Y346217D01*
X46095Y344947D01*
X37700D01*
X36764Y344761D01*
X35970Y344230D01*
X30067Y338328D01*
X29968Y338404D01*
X27571Y339396D01*
X25000Y339735D01*
X22429Y339396D01*
X20032Y338404D01*
X17975Y336825D01*
X16396Y334767D01*
X15404Y332371D01*
X15065Y329800D01*
X15404Y327229D01*
X16396Y324832D01*
X17975Y322775D01*
X20032Y321196D01*
X22429Y320204D01*
X25000Y319865D01*
X27571Y320204D01*
X29968Y321196D01*
X32025Y322775D01*
X33604Y324832D01*
X34597Y327229D01*
X34935Y329800D01*
X34597Y332371D01*
X33604Y334767D01*
X33528Y334867D01*
X38714Y340053D01*
X46095D01*
X46347Y338783D01*
X45433Y338404D01*
X43375Y336825D01*
X41796Y334767D01*
X40803Y332371D01*
X40465Y329800D01*
X40803Y327229D01*
X41796Y324833D01*
X43375Y322775D01*
X45433Y321196D01*
X47193Y320467D01*
X46940Y319197D01*
X37350D01*
X36414Y319011D01*
X35620Y318480D01*
X30067Y312928D01*
X29968Y313004D01*
X27571Y313997D01*
X25000Y314335D01*
X22429Y313997D01*
X20033Y313004D01*
X17975Y311425D01*
X16396Y309368D01*
X15404Y306971D01*
X15065Y304400D01*
X15404Y301829D01*
X16396Y299433D01*
X17975Y297375D01*
X20033Y295796D01*
X22429Y294804D01*
X25000Y294465D01*
X27571Y294804D01*
X29968Y295796D01*
X32025Y297375D01*
X33604Y299433D01*
X34597Y301829D01*
X34935Y304400D01*
X34597Y306971D01*
X33604Y309368D01*
X33528Y309467D01*
X38364Y314303D01*
X45250D01*
X45503Y313033D01*
X45432Y313004D01*
X43375Y311425D01*
X41796Y309368D01*
X40803Y306971D01*
X40465Y304400D01*
X40803Y301829D01*
X41796Y299433D01*
X43375Y297375D01*
X45432Y295796D01*
X47829Y294804D01*
X48486Y294717D01*
X48402Y293447D01*
X37000D01*
X36064Y293261D01*
X35270Y292730D01*
X30067Y287528D01*
X29968Y287604D01*
X27571Y288596D01*
X25000Y288935D01*
X22429Y288596D01*
X20032Y287604D01*
X17975Y286025D01*
X16396Y283967D01*
X15404Y281571D01*
X15065Y279000D01*
X15404Y276429D01*
X16396Y274032D01*
X17975Y271975D01*
X20032Y270396D01*
X22429Y269404D01*
X25000Y269065D01*
X27571Y269404D01*
X29968Y270396D01*
X32025Y271975D01*
X33604Y274032D01*
X34597Y276429D01*
X34935Y279000D01*
X34597Y281571D01*
X33604Y283967D01*
X33528Y284067D01*
X38014Y288553D01*
X44583D01*
X45014Y287283D01*
X43375Y286025D01*
X41796Y283967D01*
X40804Y281571D01*
X40465Y279000D01*
X40804Y276429D01*
X41796Y274032D01*
X43375Y271975D01*
X45433Y270396D01*
X47072Y269717D01*
X46819Y268447D01*
X37400D01*
X36464Y268261D01*
X35670Y267730D01*
X30067Y262128D01*
X29968Y262204D01*
X27571Y263197D01*
X25000Y263535D01*
X22429Y263197D01*
X20032Y262204D01*
X17975Y260625D01*
X16396Y258568D01*
X15404Y256171D01*
X15065Y253600D01*
X15404Y251029D01*
X16396Y248633D01*
X17975Y246575D01*
X20032Y244996D01*
X22429Y244004D01*
X25000Y243665D01*
X27571Y244004D01*
X29968Y244996D01*
X32025Y246575D01*
X33604Y248633D01*
X34597Y251029D01*
X34935Y253600D01*
X34597Y256171D01*
X33604Y258568D01*
X33528Y258667D01*
X38414Y263553D01*
X45371D01*
X45623Y262283D01*
X45433Y262204D01*
X43375Y260625D01*
X41796Y258568D01*
X40804Y256171D01*
X40465Y253600D01*
X40804Y251029D01*
X41796Y248633D01*
X43375Y246575D01*
X45433Y244996D01*
X47313Y244217D01*
X47061Y242947D01*
X37300D01*
X36364Y242761D01*
X35570Y242230D01*
X30067Y236728D01*
X29968Y236804D01*
X27571Y237796D01*
X25000Y238135D01*
X22429Y237796D01*
X20032Y236804D01*
X17975Y235225D01*
X16396Y233167D01*
X15404Y230771D01*
X15065Y228200D01*
X15404Y225629D01*
X16396Y223232D01*
X17975Y221175D01*
X20032Y219596D01*
X22429Y218603D01*
X25000Y218265D01*
X27571Y218603D01*
X29968Y219596D01*
X32025Y221175D01*
X33604Y223232D01*
X34597Y225629D01*
X34935Y228200D01*
X34597Y230771D01*
X33604Y233167D01*
X33528Y233267D01*
X38314Y238053D01*
X45129D01*
X45416Y236872D01*
X45405Y236783D01*
X43375Y235225D01*
X41796Y233167D01*
X40804Y230771D01*
X40465Y228200D01*
X40804Y225629D01*
X41796Y223232D01*
X43375Y221175D01*
X45433Y219596D01*
X47555Y218717D01*
X47302Y217447D01*
X37200D01*
X36264Y217261D01*
X35470Y216730D01*
X30067Y211328D01*
X29968Y211404D01*
X27571Y212396D01*
X25000Y212735D01*
X22429Y212396D01*
X20032Y211404D01*
X17975Y209825D01*
X16396Y207768D01*
X15404Y205371D01*
X15065Y202800D01*
X15404Y200229D01*
X16396Y197833D01*
X17975Y195775D01*
X20032Y194196D01*
X22429Y193204D01*
X25000Y192865D01*
X27571Y193204D01*
X29968Y194196D01*
X32025Y195775D01*
X33604Y197833D01*
X34597Y200229D01*
X34935Y202800D01*
X34597Y205371D01*
X33604Y207768D01*
X33528Y207867D01*
X38214Y212553D01*
X44922D01*
X45236Y211847D01*
X45275Y211283D01*
X43375Y209825D01*
X41796Y207768D01*
X40803Y205371D01*
X40465Y202800D01*
X40803Y200229D01*
X41796Y197833D01*
X43375Y195775D01*
X45433Y194196D01*
X47829Y193204D01*
X49373Y193000D01*
X49290Y191730D01*
X36883D01*
X35947Y191544D01*
X35153Y191014D01*
X30067Y185928D01*
X29968Y186004D01*
X27571Y186996D01*
X25000Y187335D01*
X22429Y186996D01*
X20032Y186004D01*
X17975Y184425D01*
X16396Y182367D01*
X15404Y179971D01*
X15065Y177400D01*
X15404Y174829D01*
X16396Y172432D01*
X17975Y170375D01*
X20032Y168796D01*
X22429Y167804D01*
X25000Y167465D01*
X27571Y167804D01*
X29968Y168796D01*
X32025Y170375D01*
X33604Y172432D01*
X34597Y174829D01*
X34935Y177400D01*
X34597Y179971D01*
X33604Y182367D01*
X33528Y182467D01*
X37897Y186836D01*
X44431D01*
X44862Y185566D01*
X43375Y184425D01*
X41796Y182367D01*
X40804Y179971D01*
X40465Y177400D01*
X40804Y174829D01*
X41796Y172432D01*
X43375Y170375D01*
X45433Y168796D01*
X47829Y167804D01*
X50400Y167465D01*
X52971Y167804D01*
X55367Y168796D01*
X57425Y170375D01*
X59004Y172432D01*
X59997Y174829D01*
X60092Y175553D01*
X143588D01*
X144525Y175739D01*
X145319Y176270D01*
X147895Y178846D01*
X148708Y178684D01*
X149112Y178765D01*
X150010Y177867D01*
X149930Y177463D01*
X150267Y175765D01*
X151229Y174327D01*
X152667Y173365D01*
X154365Y173027D01*
X156062Y173365D01*
X157501Y174327D01*
X165986Y182812D01*
X166439Y183490D01*
X174123Y191174D01*
X175907Y191529D01*
X177428Y192545D01*
X178445Y194067D01*
X178802Y195862D01*
X178445Y197657D01*
X177428Y199178D01*
X175907Y200195D01*
X174112Y200552D01*
X173907Y200511D01*
X172362Y200819D01*
X170762Y200500D01*
X169406Y199594D01*
X169215Y199403D01*
X168309Y198047D01*
X168094Y196969D01*
X162848Y191723D01*
X161513Y192184D01*
X161291Y193302D01*
X160329Y194741D01*
X160190Y194834D01*
X160029Y196469D01*
X228325Y264764D01*
X229350Y264560D01*
X231145Y264917D01*
X232666Y265934D01*
X233683Y267455D01*
X234040Y269250D01*
X233683Y271045D01*
X232666Y272566D01*
X231145Y273583D01*
X229350Y273940D01*
X227555Y273583D01*
X226034Y272566D01*
X225017Y271045D01*
X224660Y269250D01*
X224864Y268225D01*
X156327Y199688D01*
X155063Y199813D01*
X154672Y200398D01*
X153234Y201359D01*
X151536Y201697D01*
X151132Y201616D01*
X150234Y202515D01*
X150315Y202918D01*
X149977Y204616D01*
X149016Y206055D01*
X147577Y207016D01*
X145879Y207354D01*
X145476Y207273D01*
X144577Y208171D01*
X144658Y208575D01*
X144320Y210273D01*
X143359Y211712D01*
X141920Y212673D01*
X140223Y213011D01*
X138525Y212673D01*
X137086Y211712D01*
X134574Y209199D01*
X127043Y216730D01*
X126249Y217261D01*
X125313Y217447D01*
X53498D01*
X53245Y218717D01*
X55367Y219596D01*
X57425Y221175D01*
X59004Y223232D01*
X59997Y225629D01*
X60335Y228200D01*
X59997Y230771D01*
X59603Y231722D01*
X60308Y232778D01*
X126353D01*
X127322Y231809D01*
X127640Y230213D01*
X128601Y228774D01*
X137086Y220289D01*
X138525Y219327D01*
X140223Y218989D01*
X141920Y219327D01*
X143359Y220289D01*
X144320Y221727D01*
X144658Y223425D01*
X144577Y223829D01*
X145476Y224727D01*
X145879Y224646D01*
X147577Y224984D01*
X149016Y225945D01*
X149977Y227384D01*
X150315Y229081D01*
X150234Y229485D01*
X151132Y230383D01*
X151536Y230303D01*
X153234Y230641D01*
X154672Y231602D01*
X155634Y233041D01*
X155971Y234738D01*
X155891Y235142D01*
X156789Y236040D01*
X157193Y235960D01*
X158890Y236298D01*
X160329Y237259D01*
X161291Y238698D01*
X161628Y240395D01*
X161548Y240799D01*
X162446Y241697D01*
X162850Y241617D01*
X164547Y241954D01*
X165986Y242916D01*
X166948Y244355D01*
X167142Y245331D01*
X168375Y246218D01*
X168519Y246240D01*
X168723Y246178D01*
X168917Y245205D01*
X169934Y243684D01*
X171455Y242667D01*
X173250Y242310D01*
X175045Y242667D01*
X176566Y243684D01*
X177583Y245205D01*
X177940Y247000D01*
X177583Y248795D01*
X176566Y250316D01*
X175045Y251333D01*
X174072Y251527D01*
X174018Y251705D01*
X174030Y251812D01*
X174927Y253082D01*
X175861Y253268D01*
X177300Y254230D01*
X178261Y255669D01*
X178599Y257366D01*
X178519Y257770D01*
X179417Y258668D01*
X179820Y258587D01*
X181518Y258925D01*
X182957Y259886D01*
X183918Y261325D01*
X184256Y263023D01*
X184175Y263426D01*
X185073Y264325D01*
X185477Y264244D01*
X187175Y264582D01*
X188613Y265543D01*
X189575Y266982D01*
X189913Y268679D01*
X189832Y269083D01*
X190730Y269981D01*
X191134Y269901D01*
X192831Y270239D01*
X194270Y271200D01*
X195232Y272639D01*
X195569Y274336D01*
X195489Y274740D01*
X196387Y275638D01*
X196791Y275558D01*
X198488Y275896D01*
X199927Y276857D01*
X200889Y278296D01*
X201226Y279993D01*
X201146Y280397D01*
X202044Y281295D01*
X202448Y281215D01*
X204145Y281552D01*
X205584Y282514D01*
X206546Y283953D01*
X206883Y285650D01*
X206803Y286054D01*
X207701Y286952D01*
X208105Y286872D01*
X209802Y287209D01*
X211241Y288171D01*
X212202Y289610D01*
X212540Y291307D01*
X212460Y291711D01*
X213358Y292609D01*
X213762Y292528D01*
X215459Y292866D01*
X216898Y293828D01*
X217021Y294012D01*
X218656Y294173D01*
X241553Y271276D01*
Y229897D01*
X240684Y229316D01*
X239667Y227795D01*
X239310Y226000D01*
X239667Y224205D01*
X240684Y222684D01*
X242205Y221667D01*
X244000Y221310D01*
X245683Y221645D01*
X246002Y221602D01*
X246953Y221094D01*
Y218300D01*
X246121Y217744D01*
X245105Y216223D01*
X244748Y214428D01*
X245105Y212633D01*
X246121Y211112D01*
X247643Y210095D01*
X249438Y209738D01*
X251233Y210095D01*
X252754Y211112D01*
X253771Y212633D01*
X254128Y214428D01*
X253771Y216223D01*
X252754Y217744D01*
X251847Y218351D01*
Y272639D01*
X251661Y273575D01*
X251130Y274369D01*
X223692Y301808D01*
X223854Y302621D01*
X223773Y303025D01*
X224671Y303923D01*
X225075Y303842D01*
X226773Y304180D01*
X226914Y304275D01*
X228057Y303511D01*
X227810Y302267D01*
X228167Y300472D01*
X229184Y298951D01*
X230705Y297934D01*
X232500Y297577D01*
X234295Y297934D01*
X235166Y298516D01*
X235570Y298596D01*
X236926Y299502D01*
X241599Y304175D01*
X241622Y304180D01*
X243061Y305141D01*
X251546Y313627D01*
X252507Y315065D01*
X252845Y316763D01*
X252507Y318460D01*
X251546Y319899D01*
X250107Y320860D01*
X248410Y321198D01*
X246713Y320860D01*
X245274Y319899D01*
X236789Y311414D01*
X236335Y310735D01*
X232548Y306948D01*
X232500Y306957D01*
X230705Y306600D01*
X230436Y306420D01*
X229293Y307184D01*
X229511Y308277D01*
X229173Y309975D01*
X228211Y311414D01*
X219726Y319899D01*
X219037Y320359D01*
Y356969D01*
X218851Y357906D01*
X218658Y358194D01*
X218833Y358455D01*
X219190Y360250D01*
X218833Y362045D01*
X217816Y363566D01*
X216295Y364583D01*
X214500Y364940D01*
X212705Y364583D01*
X211184Y363566D01*
X210217Y362120D01*
X210124Y362105D01*
X208947Y362745D01*
Y387650D01*
X220100D01*
Y410850D01*
X210404D01*
X205999Y415255D01*
X205999Y415255D01*
X202799Y418455D01*
X202005Y418986D01*
X201069Y419172D01*
D02*
G37*
G36*
X432670Y289716D02*
Y280270D01*
X442116D01*
X441912Y281817D01*
X440825Y284442D01*
X439095Y286695D01*
X436842Y288425D01*
X434217Y289512D01*
X432670Y289716D01*
D02*
G37*
G36*
X430130D02*
X428583Y289512D01*
X425959Y288425D01*
X423704Y286695D01*
X421975Y284442D01*
X420888Y281817D01*
X420684Y280270D01*
X430130D01*
Y289716D01*
D02*
G37*
G36*
X442116Y277730D02*
X432670D01*
Y268284D01*
X434217Y268488D01*
X436842Y269575D01*
X439095Y271304D01*
X440825Y273559D01*
X441912Y276183D01*
X442116Y277730D01*
D02*
G37*
G36*
X430130D02*
X420684D01*
X420888Y276183D01*
X421975Y273559D01*
X423704Y271304D01*
X425959Y269575D01*
X428583Y268488D01*
X430130Y268284D01*
Y277730D01*
D02*
G37*
G36*
X364478Y269095D02*
X358763D01*
X357767Y268897D01*
X356922Y268333D01*
X356358Y267488D01*
X356160Y266493D01*
Y259508D01*
X356358Y258512D01*
X356922Y257667D01*
X357767Y257103D01*
X358763Y256905D01*
X364478D01*
X365473Y257103D01*
X366318Y257667D01*
X366882Y258512D01*
X367080Y259508D01*
Y260423D01*
X369902D01*
Y259536D01*
X370112Y258478D01*
X370712Y257582D01*
X371608Y256982D01*
X372666Y256772D01*
X379334D01*
X380392Y256982D01*
X381288Y257582D01*
X381888Y258478D01*
X382098Y259536D01*
Y266204D01*
X381888Y267262D01*
X381288Y268158D01*
X380392Y268758D01*
X379334Y268968D01*
X372666D01*
X371608Y268758D01*
X370712Y268158D01*
X370112Y267262D01*
X369902Y266204D01*
Y265317D01*
X367080D01*
Y266493D01*
X366882Y267488D01*
X366318Y268333D01*
X365473Y268897D01*
X364478Y269095D01*
D02*
G37*
G36*
X431400Y263535D02*
X428829Y263197D01*
X426432Y262204D01*
X424375Y260625D01*
X422796Y258568D01*
X421804Y256171D01*
X421465Y253600D01*
X421804Y251029D01*
X422796Y248633D01*
X422872Y248533D01*
X418036Y243697D01*
X411150D01*
X410897Y244967D01*
X410967Y244996D01*
X413025Y246575D01*
X414604Y248633D01*
X415597Y251029D01*
X415935Y253600D01*
X415597Y256171D01*
X414604Y258568D01*
X413025Y260625D01*
X410967Y262204D01*
X408571Y263197D01*
X406000Y263535D01*
X403429Y263197D01*
X401032Y262204D01*
X398975Y260625D01*
X397396Y258568D01*
X396404Y256171D01*
X396065Y253600D01*
X396404Y251029D01*
X397396Y248633D01*
X398975Y246575D01*
X401032Y244996D01*
X401103Y244967D01*
X400850Y243697D01*
X399514D01*
X393850Y249360D01*
X393056Y249891D01*
X392120Y250077D01*
X382098D01*
Y250964D01*
X381888Y252022D01*
X381288Y252918D01*
X380392Y253518D01*
X379334Y253728D01*
X372666D01*
X371608Y253518D01*
X370712Y252918D01*
X370112Y252022D01*
X369902Y250964D01*
Y250077D01*
X326355D01*
X325419Y249891D01*
X324625Y249360D01*
X322762Y247497D01*
X321949Y247659D01*
X321545Y247579D01*
X320647Y248477D01*
X320727Y248881D01*
X320390Y250578D01*
X319428Y252017D01*
X317989Y252978D01*
X316292Y253316D01*
X314595Y252978D01*
X313156Y252017D01*
X304671Y243531D01*
X303767Y242179D01*
X297475Y235887D01*
X297205Y235833D01*
X295684Y234816D01*
X294667Y233295D01*
X294310Y231500D01*
X294667Y229705D01*
X295684Y228184D01*
X297205Y227167D01*
X299000Y226810D01*
X300795Y227167D01*
X302316Y228184D01*
X303333Y229705D01*
X303387Y229975D01*
X307803Y234391D01*
X309181Y233973D01*
X309366Y233041D01*
X310327Y231602D01*
X311766Y230641D01*
X313464Y230303D01*
X313868Y230383D01*
X314766Y229485D01*
X314685Y229081D01*
X315023Y227384D01*
X315984Y225945D01*
X317423Y224984D01*
X319121Y224646D01*
X319524Y224727D01*
X320423Y223829D01*
X320342Y223425D01*
X320680Y221727D01*
X321641Y220289D01*
X323080Y219327D01*
X324777Y218989D01*
X326475Y219327D01*
X327914Y220289D01*
X336399Y228774D01*
X337254Y230053D01*
X381486D01*
X397520Y214020D01*
X398314Y213489D01*
X399250Y213303D01*
X402299D01*
X402551Y212033D01*
X401032Y211404D01*
X398975Y209825D01*
X397396Y207768D01*
X396404Y205371D01*
X396129Y203283D01*
X336342D01*
X327914Y211712D01*
X326475Y212673D01*
X324777Y213011D01*
X323080Y212673D01*
X321641Y211712D01*
X320680Y210273D01*
X320342Y208575D01*
X320423Y208171D01*
X319524Y207273D01*
X319121Y207354D01*
X317423Y207016D01*
X315984Y206055D01*
X315023Y204616D01*
X314685Y202918D01*
X314766Y202515D01*
X313868Y201616D01*
X313464Y201697D01*
X311766Y201359D01*
X310327Y200398D01*
X309366Y198959D01*
X309028Y197262D01*
X309109Y196858D01*
X308211Y195960D01*
X307807Y196040D01*
X306110Y195702D01*
X304671Y194741D01*
X303709Y193302D01*
X303372Y191605D01*
X303452Y191201D01*
X302554Y190303D01*
X302150Y190383D01*
X300453Y190046D01*
X299014Y189084D01*
X298052Y187645D01*
X297715Y185948D01*
X297795Y185544D01*
X296897Y184646D01*
X296493Y184726D01*
X294796Y184389D01*
X293357Y183427D01*
X292396Y181988D01*
X292058Y180291D01*
X292138Y179887D01*
X291240Y178989D01*
X290836Y179069D01*
X289139Y178732D01*
X287700Y177770D01*
X286739Y176332D01*
X286401Y174634D01*
X286481Y174230D01*
X285583Y173332D01*
X285179Y173413D01*
X283482Y173075D01*
X282043Y172113D01*
X281082Y170675D01*
X280744Y168977D01*
X280825Y168573D01*
X279926Y167675D01*
X279523Y167756D01*
X277825Y167418D01*
X276386Y166457D01*
X275425Y165018D01*
X275087Y163321D01*
X275168Y162917D01*
X274270Y162019D01*
X273866Y162099D01*
X272169Y161761D01*
X270730Y160800D01*
X269768Y159361D01*
X269431Y157664D01*
X269511Y157260D01*
X268613Y156362D01*
X268209Y156442D01*
X266512Y156104D01*
X265073Y155143D01*
X264111Y153704D01*
X263774Y152007D01*
X263854Y151603D01*
X262956Y150705D01*
X262552Y150785D01*
X260855Y150448D01*
X259416Y149486D01*
X258454Y148047D01*
X258117Y146350D01*
X258197Y145946D01*
X257299Y145048D01*
X256895Y145128D01*
X255198Y144791D01*
X253759Y143829D01*
X252798Y142390D01*
X252460Y140693D01*
X252540Y140289D01*
X251642Y139391D01*
X251238Y139472D01*
X249541Y139134D01*
X248102Y138172D01*
X247141Y136734D01*
X246803Y135036D01*
X246884Y134632D01*
X245985Y133734D01*
X245581Y133815D01*
X243884Y133477D01*
X242445Y132516D01*
X241484Y131077D01*
X241146Y129379D01*
X241227Y128975D01*
X240329Y128077D01*
X239925Y128158D01*
X238227Y127820D01*
X237142Y127095D01*
X236798Y127119D01*
X236045Y127412D01*
X235789Y127602D01*
X235686Y128118D01*
X235156Y128912D01*
X210330Y153737D01*
X209536Y154268D01*
X208600Y154454D01*
X200388D01*
X199927Y155143D01*
X198488Y156104D01*
X196791Y156442D01*
X196387Y156362D01*
X195489Y157260D01*
X195569Y157664D01*
X195232Y159361D01*
X194270Y160800D01*
X192831Y161761D01*
X191134Y162099D01*
X190730Y162019D01*
X189832Y162917D01*
X189913Y163321D01*
X189575Y165018D01*
X188614Y166457D01*
X187175Y167418D01*
X185477Y167756D01*
X185074Y167675D01*
X184175Y168573D01*
X184256Y168977D01*
X183918Y170675D01*
X182957Y172113D01*
X181518Y173075D01*
X179820Y173413D01*
X179417Y173332D01*
X178519Y174230D01*
X178599Y174634D01*
X178261Y176332D01*
X177300Y177770D01*
X175861Y178732D01*
X174164Y179069D01*
X172466Y178732D01*
X171028Y177770D01*
X162542Y169285D01*
X161581Y167846D01*
X161243Y166149D01*
X161405Y165336D01*
X148508Y152439D01*
X118374D01*
X117674Y154129D01*
X116359Y155843D01*
X114645Y157158D01*
X112650Y157985D01*
X110508Y158267D01*
X108366Y157985D01*
X106371Y157158D01*
X104657Y155843D01*
X103342Y154129D01*
X102515Y152134D01*
X102233Y149992D01*
X102515Y147850D01*
X103215Y146160D01*
X88995Y131939D01*
X88670Y132157D01*
X87612Y132367D01*
X86554Y132157D01*
X85657Y131558D01*
X80942Y126843D01*
X80343Y125946D01*
X80133Y124888D01*
X80343Y123830D01*
X80942Y122933D01*
X85657Y118219D01*
X86554Y117620D01*
X87612Y117409D01*
X88670Y117620D01*
X89566Y118219D01*
X94281Y122933D01*
X94880Y123830D01*
X95091Y124888D01*
X94880Y125946D01*
X94281Y126843D01*
X92550Y128574D01*
X106676Y142699D01*
X108366Y141999D01*
X110508Y141717D01*
X112650Y141999D01*
X114645Y142826D01*
X116359Y144141D01*
X117674Y145855D01*
X118374Y147545D01*
X149522D01*
X150458Y147731D01*
X151252Y148262D01*
X164865Y161875D01*
X165678Y161714D01*
X166082Y161794D01*
X166967Y160910D01*
X166970Y160843D01*
X166900Y160492D01*
X167016Y159911D01*
X167029Y159646D01*
X143262Y135879D01*
X142731Y135085D01*
X142545Y134149D01*
Y123374D01*
X140855Y122674D01*
X139141Y121359D01*
X137826Y119645D01*
X136999Y117650D01*
X136717Y115508D01*
X136999Y113366D01*
X137699Y111676D01*
X123449Y97425D01*
X121731Y99143D01*
X120834Y99742D01*
X119776Y99953D01*
X118718Y99742D01*
X117822Y99143D01*
X113107Y94428D01*
X112508Y93532D01*
X112297Y92474D01*
X112508Y91416D01*
X113107Y90519D01*
X117822Y85804D01*
X118718Y85205D01*
X119776Y84995D01*
X120834Y85205D01*
X121731Y85804D01*
X126446Y90519D01*
X127045Y91416D01*
X127255Y92474D01*
X127045Y93532D01*
X126817Y93872D01*
X141160Y108215D01*
X142850Y107515D01*
X144992Y107233D01*
X147134Y107515D01*
X149129Y108342D01*
X150843Y109657D01*
X152158Y111370D01*
X152985Y113366D01*
X153267Y115508D01*
X152985Y117650D01*
X152158Y119645D01*
X150843Y121359D01*
X149129Y122674D01*
X147439Y123374D01*
Y133135D01*
X170522Y156219D01*
X171335Y156057D01*
X171739Y156137D01*
X172637Y155239D01*
X172557Y154835D01*
X172894Y153138D01*
X173856Y151699D01*
X175052Y150900D01*
Y147045D01*
X175053Y147040D01*
Y77014D01*
X167986Y69947D01*
X105264D01*
X59980Y115230D01*
X59187Y115761D01*
X58250Y115947D01*
X53739D01*
X53487Y117217D01*
X55367Y117996D01*
X57425Y119575D01*
X59004Y121632D01*
X59997Y124029D01*
X60335Y126600D01*
X59997Y129171D01*
X59004Y131567D01*
X57425Y133625D01*
X55367Y135204D01*
X52971Y136196D01*
X50400Y136535D01*
X47829Y136196D01*
X45433Y135204D01*
X43375Y133625D01*
X41796Y131567D01*
X40804Y129171D01*
X40465Y126600D01*
X40804Y124029D01*
X41796Y121632D01*
X43375Y119575D01*
X45433Y117996D01*
X47313Y117217D01*
X47061Y115947D01*
X37300D01*
X36364Y115761D01*
X35570Y115230D01*
X30067Y109728D01*
X29968Y109804D01*
X27571Y110796D01*
X25000Y111135D01*
X22429Y110796D01*
X20032Y109804D01*
X17975Y108225D01*
X16396Y106167D01*
X15404Y103771D01*
X15065Y101200D01*
X15404Y98629D01*
X16396Y96233D01*
X17975Y94175D01*
X20032Y92596D01*
X22429Y91603D01*
X25000Y91265D01*
X27571Y91603D01*
X29968Y92596D01*
X32025Y94175D01*
X33604Y96233D01*
X34597Y98629D01*
X34935Y101200D01*
X34597Y103771D01*
X33604Y106167D01*
X33528Y106267D01*
X38314Y111053D01*
X45129D01*
X45416Y109872D01*
X45405Y109783D01*
X43375Y108225D01*
X41796Y106167D01*
X40803Y103771D01*
X40465Y101200D01*
X40803Y98629D01*
X41796Y96233D01*
X43375Y94175D01*
X45433Y92596D01*
X47555Y91717D01*
X47302Y90447D01*
X37200D01*
X36264Y90261D01*
X35470Y89730D01*
X30067Y84328D01*
X29968Y84404D01*
X27571Y85396D01*
X25000Y85735D01*
X22429Y85396D01*
X20033Y84404D01*
X17975Y82825D01*
X16396Y80767D01*
X15404Y78371D01*
X15065Y75800D01*
X15404Y73229D01*
X16396Y70833D01*
X17975Y68775D01*
X20033Y67196D01*
X22429Y66204D01*
X25000Y65865D01*
X27571Y66204D01*
X29968Y67196D01*
X32025Y68775D01*
X33604Y70833D01*
X34597Y73229D01*
X34935Y75800D01*
X34597Y78371D01*
X33604Y80767D01*
X33528Y80867D01*
X38214Y85553D01*
X44922D01*
X45236Y84846D01*
X45275Y84283D01*
X43375Y82825D01*
X41796Y80767D01*
X40803Y78371D01*
X40465Y75800D01*
X40803Y73229D01*
X41796Y70833D01*
X43375Y68775D01*
X45432Y67196D01*
X46589Y66717D01*
X46336Y65447D01*
X37600D01*
X36664Y65261D01*
X35870Y64730D01*
X30067Y58928D01*
X29968Y59004D01*
X27571Y59997D01*
X25000Y60335D01*
X22429Y59997D01*
X20032Y59004D01*
X17975Y57425D01*
X16396Y55367D01*
X15404Y52971D01*
X15065Y50400D01*
X15404Y47829D01*
X16396Y45433D01*
X17975Y43375D01*
X20032Y41796D01*
X22429Y40804D01*
X25000Y40465D01*
X27571Y40804D01*
X29968Y41796D01*
X32025Y43375D01*
X33604Y45433D01*
X34597Y47829D01*
X34935Y50400D01*
X34597Y52971D01*
X33604Y55367D01*
X33528Y55467D01*
X38614Y60553D01*
X45854D01*
X46106Y59283D01*
X45433Y59004D01*
X43375Y57425D01*
X41796Y55367D01*
X40804Y52971D01*
X40465Y50400D01*
X40804Y47829D01*
X41796Y45433D01*
X43375Y43375D01*
X45275Y41917D01*
X45236Y41354D01*
X44922Y40647D01*
X38200D01*
X37264Y40461D01*
X36470Y39930D01*
X30067Y33528D01*
X29968Y33604D01*
X27571Y34597D01*
X25000Y34935D01*
X22429Y34597D01*
X20032Y33604D01*
X17975Y32025D01*
X16396Y29968D01*
X15404Y27571D01*
X15065Y25000D01*
X15404Y22429D01*
X16396Y20032D01*
X17975Y17975D01*
X20032Y16396D01*
X22429Y15404D01*
X25000Y15065D01*
X27571Y15404D01*
X29968Y16396D01*
X32025Y17975D01*
X33604Y20032D01*
X34597Y22429D01*
X34935Y25000D01*
X34597Y27571D01*
X33604Y29968D01*
X33528Y30067D01*
X39214Y35753D01*
X47302D01*
X47555Y34483D01*
X45433Y33604D01*
X43375Y32025D01*
X41796Y29968D01*
X40804Y27571D01*
X40465Y25000D01*
X40804Y22429D01*
X41796Y20032D01*
X43375Y17975D01*
X45433Y16396D01*
X47829Y15404D01*
X50400Y15065D01*
X52971Y15404D01*
X55367Y16396D01*
X57425Y17975D01*
X59004Y20032D01*
X59997Y22429D01*
X60335Y25000D01*
X59997Y27571D01*
X59004Y29968D01*
X58928Y30067D01*
X61414Y32553D01*
X85714D01*
X85839Y31283D01*
X85108Y31138D01*
X84212Y30538D01*
X83612Y29642D01*
X83402Y28584D01*
Y21916D01*
X83612Y20858D01*
X84212Y19962D01*
X85108Y19362D01*
X86166Y19152D01*
X92834D01*
X93892Y19362D01*
X94789Y19962D01*
X95388Y20858D01*
X95598Y21916D01*
Y28584D01*
X95388Y29642D01*
X94789Y30538D01*
X93892Y31138D01*
X93161Y31283D01*
X93286Y32553D01*
X100954D01*
X101079Y31283D01*
X100348Y31138D01*
X99452Y30538D01*
X98852Y29642D01*
X98642Y28584D01*
Y21916D01*
X98852Y20858D01*
X99452Y19962D01*
X100348Y19362D01*
X101406Y19152D01*
X108074D01*
X109132Y19362D01*
X110028Y19962D01*
X110628Y20858D01*
X110838Y21916D01*
Y22849D01*
X116300D01*
Y22008D01*
X116498Y21012D01*
X117062Y20167D01*
X117907Y19603D01*
X118903Y19405D01*
X124618D01*
X125613Y19603D01*
X126458Y20167D01*
X127022Y21012D01*
X127220Y22008D01*
Y28993D01*
X127022Y29988D01*
X126458Y30833D01*
X125613Y31397D01*
X124618Y31595D01*
X118903D01*
X117907Y31397D01*
X117062Y30833D01*
X116498Y29988D01*
X116300Y28993D01*
Y27743D01*
X110838D01*
Y28584D01*
X110628Y29642D01*
X110028Y30538D01*
X109132Y31138D01*
X108401Y31283D01*
X108526Y32553D01*
X110500D01*
X111437Y32739D01*
X112230Y33270D01*
X120664Y41703D01*
X177400D01*
X178336Y41889D01*
X179130Y42420D01*
X216961Y80251D01*
X217492Y81045D01*
X217678Y81981D01*
Y111018D01*
X218287Y111140D01*
X219726Y112101D01*
X226605Y118980D01*
X227778Y118494D01*
Y113275D01*
X227965Y112338D01*
X228495Y111544D01*
X252014Y88026D01*
X251810Y87000D01*
X252167Y85205D01*
X253184Y83684D01*
X254705Y82667D01*
X256500Y82310D01*
X258295Y82667D01*
X259816Y83684D01*
X260833Y85205D01*
X260950Y85793D01*
X262328Y86211D01*
X273514Y75026D01*
X273310Y74000D01*
X273667Y72205D01*
X274684Y70684D01*
X276205Y69667D01*
X278000Y69310D01*
X279795Y69667D01*
X281316Y70684D01*
X282333Y72205D01*
X282690Y74000D01*
X282333Y75795D01*
X281804Y76586D01*
X282791Y77396D01*
X292617Y67570D01*
X293411Y67039D01*
X294347Y66853D01*
X363436D01*
X385722Y44567D01*
Y15831D01*
X385909Y14894D01*
X386439Y14101D01*
X389770Y10770D01*
X390564Y10239D01*
X391500Y10053D01*
X418900D01*
X419836Y10239D01*
X420630Y10770D01*
X426333Y16472D01*
X426432Y16396D01*
X428829Y15404D01*
X431400Y15065D01*
X433971Y15404D01*
X436367Y16396D01*
X438425Y17975D01*
X440004Y20032D01*
X440997Y22429D01*
X441335Y25000D01*
X440997Y27571D01*
X440004Y29968D01*
X438425Y32025D01*
X436367Y33604D01*
X433971Y34597D01*
X431400Y34935D01*
X428829Y34597D01*
X426432Y33604D01*
X424375Y32025D01*
X422796Y29968D01*
X421804Y27571D01*
X421465Y25000D01*
X421804Y22429D01*
X422796Y20032D01*
X422872Y19933D01*
X417886Y14947D01*
X410788D01*
X410535Y16217D01*
X410967Y16396D01*
X413025Y17975D01*
X414604Y20032D01*
X415597Y22429D01*
X415935Y25000D01*
X415597Y27571D01*
X414604Y29968D01*
X413025Y32025D01*
X410967Y33604D01*
X409932Y34033D01*
X410184Y35303D01*
X418750D01*
X419687Y35489D01*
X420480Y36020D01*
X426333Y41872D01*
X426432Y41796D01*
X428829Y40804D01*
X431400Y40465D01*
X433971Y40804D01*
X436367Y41796D01*
X438425Y43375D01*
X440004Y45433D01*
X440997Y47829D01*
X441335Y50400D01*
X440997Y52971D01*
X440004Y55367D01*
X438425Y57425D01*
X436367Y59004D01*
X433971Y59997D01*
X431400Y60335D01*
X428829Y59997D01*
X426432Y59004D01*
X424375Y57425D01*
X422796Y55367D01*
X421804Y52971D01*
X421465Y50400D01*
X421804Y47829D01*
X422796Y45433D01*
X422872Y45333D01*
X417736Y40197D01*
X410426D01*
X410173Y41467D01*
X410967Y41796D01*
X413025Y43375D01*
X414604Y45433D01*
X415597Y47829D01*
X415935Y50400D01*
X415597Y52971D01*
X414604Y55367D01*
X413025Y57425D01*
X410967Y59004D01*
X408571Y59997D01*
X408294Y60033D01*
X408377Y61303D01*
X419350D01*
X420286Y61489D01*
X421080Y62020D01*
X426333Y67272D01*
X426432Y67196D01*
X428829Y66203D01*
X431400Y65865D01*
X433971Y66203D01*
X436367Y67196D01*
X438425Y68775D01*
X440004Y70833D01*
X440996Y73229D01*
X441335Y75800D01*
X440996Y78371D01*
X440004Y80767D01*
X438425Y82825D01*
X436367Y84404D01*
X433971Y85396D01*
X431400Y85735D01*
X428829Y85396D01*
X426432Y84404D01*
X424375Y82825D01*
X422796Y80767D01*
X421804Y78371D01*
X421465Y75800D01*
X421804Y73229D01*
X422796Y70833D01*
X422872Y70733D01*
X418336Y66197D01*
X411752D01*
X411321Y67467D01*
X413025Y68775D01*
X414604Y70833D01*
X415597Y73229D01*
X415935Y75800D01*
X415597Y78371D01*
X414604Y80767D01*
X413025Y82825D01*
X410967Y84404D01*
X409544Y84993D01*
X409432Y85561D01*
X409511Y86382D01*
X410092Y86770D01*
X420875Y97553D01*
X422373Y97255D01*
X422796Y96233D01*
X424375Y94175D01*
X426432Y92596D01*
X428829Y91603D01*
X431400Y91265D01*
X433971Y91603D01*
X436367Y92596D01*
X438425Y94175D01*
X440004Y96233D01*
X440997Y98629D01*
X441335Y101200D01*
X440997Y103771D01*
X440004Y106167D01*
X438425Y108225D01*
X436367Y109804D01*
X433971Y110796D01*
X431400Y111135D01*
X428829Y110796D01*
X426432Y109804D01*
X424375Y108225D01*
X422796Y106167D01*
X421804Y103771D01*
X421746Y103336D01*
X420750D01*
X419814Y103149D01*
X419020Y102619D01*
X417051Y100650D01*
X416476Y100933D01*
X415920Y101315D01*
X415597Y103771D01*
X414604Y106167D01*
X413025Y108225D01*
X410967Y109804D01*
X409811Y110283D01*
X410064Y111553D01*
X418800D01*
X419736Y111739D01*
X420530Y112270D01*
X426333Y118072D01*
X426432Y117996D01*
X428829Y117004D01*
X431400Y116665D01*
X433971Y117004D01*
X436367Y117996D01*
X438425Y119575D01*
X440004Y121632D01*
X440997Y124029D01*
X441335Y126600D01*
X440997Y129171D01*
X440004Y131567D01*
X438425Y133625D01*
X436367Y135204D01*
X433971Y136196D01*
X431400Y136535D01*
X428829Y136196D01*
X426432Y135204D01*
X424375Y133625D01*
X422796Y131567D01*
X421804Y129171D01*
X421465Y126600D01*
X421804Y124029D01*
X422796Y121632D01*
X422872Y121533D01*
X417786Y116447D01*
X410546D01*
X410294Y117717D01*
X410967Y117996D01*
X413025Y119575D01*
X414604Y121632D01*
X415597Y124029D01*
X415935Y126600D01*
X415597Y129171D01*
X414604Y131567D01*
X413025Y133625D01*
X410967Y135204D01*
X410173Y135533D01*
X410426Y136803D01*
X418650D01*
X419586Y136989D01*
X420380Y137520D01*
X426333Y143472D01*
X426432Y143396D01*
X428829Y142404D01*
X431400Y142065D01*
X433971Y142404D01*
X436367Y143396D01*
X438425Y144975D01*
X440004Y147032D01*
X440997Y149429D01*
X441335Y152000D01*
X440997Y154571D01*
X440004Y156967D01*
X438425Y159025D01*
X436367Y160604D01*
X433971Y161597D01*
X431400Y161935D01*
X428829Y161597D01*
X426432Y160604D01*
X424375Y159025D01*
X422796Y156967D01*
X421804Y154571D01*
X421465Y152000D01*
X421804Y149429D01*
X422796Y147032D01*
X422872Y146933D01*
X417636Y141697D01*
X410184D01*
X409932Y142967D01*
X410967Y143396D01*
X413025Y144975D01*
X414604Y147032D01*
X415597Y149429D01*
X415935Y152000D01*
X415597Y154571D01*
X414604Y156967D01*
X413025Y159025D01*
X410967Y160604D01*
X409932Y161033D01*
X410184Y162303D01*
X418750D01*
X419687Y162489D01*
X420480Y163020D01*
X426333Y168872D01*
X426432Y168796D01*
X428829Y167804D01*
X431400Y167465D01*
X433971Y167804D01*
X436367Y168796D01*
X438425Y170375D01*
X440004Y172432D01*
X440997Y174829D01*
X441335Y177400D01*
X440997Y179971D01*
X440004Y182367D01*
X438425Y184425D01*
X436367Y186004D01*
X433971Y186996D01*
X431400Y187335D01*
X428829Y186996D01*
X426432Y186004D01*
X424375Y184425D01*
X422796Y182367D01*
X421804Y179971D01*
X421465Y177400D01*
X421804Y174829D01*
X422796Y172432D01*
X422872Y172333D01*
X417736Y167197D01*
X410426D01*
X410173Y168467D01*
X410967Y168796D01*
X413025Y170375D01*
X414604Y172432D01*
X415597Y174829D01*
X415935Y177400D01*
X415597Y179971D01*
X414604Y182368D01*
X413025Y184425D01*
X410967Y186004D01*
X410898Y186033D01*
X411150Y187303D01*
X418350D01*
X419286Y187489D01*
X420080Y188020D01*
X426333Y194272D01*
X426432Y194196D01*
X428829Y193204D01*
X431400Y192865D01*
X433971Y193204D01*
X436367Y194196D01*
X438425Y195775D01*
X440004Y197833D01*
X440996Y200229D01*
X441335Y202800D01*
X440996Y205371D01*
X440004Y207768D01*
X438425Y209825D01*
X436367Y211404D01*
X433971Y212397D01*
X431400Y212735D01*
X428829Y212397D01*
X426432Y211404D01*
X424375Y209825D01*
X422796Y207768D01*
X421804Y205371D01*
X421465Y202800D01*
X421804Y200229D01*
X422796Y197833D01*
X422872Y197733D01*
X417336Y192197D01*
X409460D01*
X409207Y193467D01*
X410967Y194196D01*
X413025Y195775D01*
X414604Y197833D01*
X415597Y200229D01*
X415935Y202800D01*
X415597Y205371D01*
X414604Y207768D01*
X413025Y209825D01*
X410967Y211404D01*
X409449Y212033D01*
X409701Y213303D01*
X418950D01*
X419887Y213489D01*
X420680Y214020D01*
X426333Y219672D01*
X426432Y219596D01*
X428829Y218604D01*
X431400Y218265D01*
X433971Y218604D01*
X436367Y219596D01*
X438425Y221175D01*
X440004Y223232D01*
X440997Y225629D01*
X441335Y228200D01*
X440997Y230771D01*
X440004Y233167D01*
X438425Y235225D01*
X436367Y236804D01*
X433971Y237796D01*
X431400Y238135D01*
X428829Y237796D01*
X426432Y236804D01*
X424375Y235225D01*
X422796Y233167D01*
X421804Y230771D01*
X421465Y228200D01*
X421804Y225629D01*
X422796Y223232D01*
X422872Y223133D01*
X417936Y218197D01*
X410909D01*
X410656Y219467D01*
X410967Y219596D01*
X413025Y221175D01*
X414604Y223232D01*
X415597Y225629D01*
X415935Y228200D01*
X415597Y230771D01*
X414604Y233167D01*
X413025Y235225D01*
X410967Y236804D01*
X409207Y237533D01*
X409460Y238803D01*
X419050D01*
X419986Y238989D01*
X420780Y239520D01*
X426333Y245072D01*
X426432Y244996D01*
X428829Y244004D01*
X431400Y243665D01*
X433971Y244004D01*
X436367Y244996D01*
X438425Y246575D01*
X440004Y248633D01*
X440997Y251029D01*
X441335Y253600D01*
X440997Y256171D01*
X440004Y258568D01*
X438425Y260625D01*
X436367Y262204D01*
X433971Y263197D01*
X431400Y263535D01*
D02*
G37*
G36*
X51670Y162716D02*
Y153270D01*
X61116D01*
X60912Y154817D01*
X59825Y157442D01*
X58095Y159696D01*
X55841Y161425D01*
X53217Y162512D01*
X51670Y162716D01*
D02*
G37*
G36*
X49130D02*
X47583Y162512D01*
X44959Y161425D01*
X42705Y159696D01*
X40975Y157442D01*
X39888Y154817D01*
X39684Y153270D01*
X49130D01*
Y162716D01*
D02*
G37*
G36*
X25000Y161935D02*
X22429Y161597D01*
X20032Y160604D01*
X17975Y159025D01*
X16396Y156967D01*
X15404Y154571D01*
X15065Y152000D01*
X15404Y149429D01*
X16396Y147032D01*
X17975Y144975D01*
X20032Y143396D01*
X22429Y142404D01*
X25000Y142065D01*
X27571Y142404D01*
X29968Y143396D01*
X32025Y144975D01*
X33604Y147032D01*
X34597Y149429D01*
X34935Y152000D01*
X34597Y154571D01*
X33604Y156967D01*
X32025Y159025D01*
X29968Y160604D01*
X27571Y161597D01*
X25000Y161935D01*
D02*
G37*
G36*
X61116Y150730D02*
X51670D01*
Y141284D01*
X53217Y141488D01*
X55841Y142575D01*
X58095Y144305D01*
X59825Y146559D01*
X60912Y149183D01*
X61116Y150730D01*
D02*
G37*
G36*
X49130D02*
X39684D01*
X39888Y149183D01*
X40975Y146559D01*
X42705Y144305D01*
X44959Y142575D01*
X47583Y141488D01*
X49130Y141284D01*
Y150730D01*
D02*
G37*
G36*
X25000Y136535D02*
X22429Y136196D01*
X20032Y135204D01*
X17975Y133625D01*
X16396Y131567D01*
X15404Y129171D01*
X15065Y126600D01*
X15404Y124029D01*
X16396Y121632D01*
X17975Y119575D01*
X20032Y117996D01*
X22429Y117004D01*
X25000Y116665D01*
X27571Y117004D01*
X29968Y117996D01*
X32025Y119575D01*
X33604Y121632D01*
X34597Y124029D01*
X34935Y126600D01*
X34597Y129171D01*
X33604Y131567D01*
X32025Y133625D01*
X29968Y135204D01*
X27571Y136196D01*
X25000Y136535D01*
D02*
G37*
G36*
X362040Y45040D02*
X353270D01*
Y36270D01*
X362040D01*
Y45040D01*
D02*
G37*
G36*
X350730D02*
X341960D01*
Y36270D01*
X350730D01*
Y45040D01*
D02*
G37*
G36*
X258540Y44790D02*
X249770D01*
Y36020D01*
X258540D01*
Y44790D01*
D02*
G37*
G36*
X247230D02*
X238460D01*
Y36020D01*
X247230D01*
Y44790D01*
D02*
G37*
G36*
X327000Y44179D02*
X324624Y43866D01*
X322411Y42949D01*
X320510Y41490D01*
X319051Y39589D01*
X318134Y37376D01*
X317822Y35000D01*
X318134Y32624D01*
X319051Y30411D01*
X320510Y28510D01*
X322411Y27051D01*
X324624Y26134D01*
X327000Y25821D01*
X329376Y26134D01*
X331589Y27051D01*
X333490Y28510D01*
X334949Y30411D01*
X335866Y32624D01*
X336179Y35000D01*
X335866Y37376D01*
X334949Y39589D01*
X333490Y41490D01*
X331589Y42949D01*
X329376Y43866D01*
X327000Y44179D01*
D02*
G37*
G36*
X302000D02*
X299624Y43866D01*
X297411Y42949D01*
X295510Y41490D01*
X294051Y39589D01*
X293134Y37376D01*
X292822Y35000D01*
X293134Y32624D01*
X294051Y30411D01*
X295510Y28510D01*
X297411Y27051D01*
X299624Y26134D01*
X302000Y25821D01*
X304376Y26134D01*
X306589Y27051D01*
X308490Y28510D01*
X309949Y30411D01*
X310866Y32624D01*
X311178Y35000D01*
X310866Y37376D01*
X309949Y39589D01*
X308490Y41490D01*
X306589Y42949D01*
X304376Y43866D01*
X302000Y44179D01*
D02*
G37*
G36*
X223500Y43928D02*
X221124Y43616D01*
X218911Y42699D01*
X217010Y41240D01*
X215551Y39339D01*
X214634Y37126D01*
X214321Y34750D01*
X214634Y32374D01*
X215551Y30161D01*
X217010Y28260D01*
X218911Y26801D01*
X221124Y25884D01*
X223500Y25571D01*
X225875Y25884D01*
X228089Y26801D01*
X229990Y28260D01*
X231449Y30161D01*
X232366Y32374D01*
X232679Y34750D01*
X232366Y37126D01*
X231449Y39339D01*
X229990Y41240D01*
X228089Y42699D01*
X225875Y43616D01*
X223500Y43928D01*
D02*
G37*
G36*
X198500D02*
X196124Y43616D01*
X193911Y42699D01*
X192010Y41240D01*
X190551Y39339D01*
X189634Y37126D01*
X189321Y34750D01*
X189634Y32374D01*
X190551Y30161D01*
X192010Y28260D01*
X193911Y26801D01*
X196124Y25884D01*
X198500Y25571D01*
X200875Y25884D01*
X203089Y26801D01*
X204990Y28260D01*
X206449Y30161D01*
X207366Y32374D01*
X207679Y34750D01*
X207366Y37126D01*
X206449Y39339D01*
X204990Y41240D01*
X203089Y42699D01*
X200875Y43616D01*
X198500Y43928D01*
D02*
G37*
G36*
X362040Y33730D02*
X353270D01*
Y24960D01*
X362040D01*
Y33730D01*
D02*
G37*
G36*
X350730D02*
X341960D01*
Y24960D01*
X350730D01*
Y33730D01*
D02*
G37*
G36*
X258540Y33480D02*
X249770D01*
Y24710D01*
X258540D01*
Y33480D01*
D02*
G37*
G36*
X247230D02*
X238460D01*
Y24710D01*
X247230D01*
Y33480D01*
D02*
G37*
%LPD*%
G36*
X370024Y353933D02*
X368801Y352339D01*
X367884Y350126D01*
X367571Y347750D01*
X367884Y345374D01*
X368801Y343161D01*
X370024Y341567D01*
X369581Y340297D01*
X340287D01*
X339661Y341567D01*
X340520Y342687D01*
X341531Y345129D01*
X341709Y346480D01*
X331750D01*
Y349020D01*
X341709D01*
X341531Y350371D01*
X340520Y352813D01*
X339661Y353933D01*
X340287Y355203D01*
X369581D01*
X370024Y353933D01*
D02*
G37*
G36*
X202213Y412120D02*
X201900Y410850D01*
X201900D01*
Y387650D01*
X204053D01*
Y315539D01*
X204239Y314603D01*
X204770Y313809D01*
X206660Y311919D01*
X206498Y311106D01*
X206578Y310702D01*
X205694Y309818D01*
X205628Y309814D01*
X205276Y309884D01*
X204696Y309769D01*
X204430Y309756D01*
X188447Y325739D01*
Y387914D01*
X190589Y388801D01*
X192490Y390260D01*
X193949Y392161D01*
X194866Y394374D01*
X195179Y396750D01*
Y401750D01*
X194866Y404126D01*
X193949Y406339D01*
X192490Y408240D01*
X190589Y409699D01*
X188376Y410616D01*
X186000Y410928D01*
X183624Y410616D01*
X181411Y409699D01*
X179510Y408240D01*
X178051Y406339D01*
X177134Y404126D01*
X176821Y401750D01*
Y396750D01*
X176932Y395908D01*
X176095Y394953D01*
X175845D01*
X174908Y394767D01*
X174114Y394236D01*
X164100Y384222D01*
X69738D01*
X59230Y394730D01*
X59006Y394880D01*
X59391Y396150D01*
X60250D01*
Y412389D01*
X62139Y414278D01*
X200055D01*
X202213Y412120D01*
D02*
G37*
%LPC*%
G36*
X112270Y411709D02*
Y400520D01*
X121127D01*
Y401750D01*
X120782Y404371D01*
X119770Y406813D01*
X118161Y408911D01*
X116063Y410520D01*
X113621Y411532D01*
X112270Y411709D01*
D02*
G37*
G36*
X109730Y411710D02*
X108379Y411532D01*
X105937Y410520D01*
X103839Y408911D01*
X102230Y406813D01*
X101218Y404371D01*
X100873Y401750D01*
Y400520D01*
X109730D01*
Y411710D01*
D02*
G37*
G36*
X161000Y410928D02*
X158624Y410616D01*
X156411Y409699D01*
X154510Y408240D01*
X153051Y406339D01*
X152134Y404126D01*
X151821Y401750D01*
Y396750D01*
X152134Y394374D01*
X153051Y392161D01*
X154510Y390260D01*
X156411Y388801D01*
X158624Y387884D01*
X161000Y387571D01*
X163376Y387884D01*
X165589Y388801D01*
X167490Y390260D01*
X168949Y392161D01*
X169866Y394374D01*
X170179Y396750D01*
Y401750D01*
X169866Y404126D01*
X168949Y406339D01*
X167490Y408240D01*
X165589Y409699D01*
X163376Y410616D01*
X161000Y410928D01*
D02*
G37*
G36*
X136000D02*
X133624Y410616D01*
X131411Y409699D01*
X129510Y408240D01*
X128051Y406339D01*
X127134Y404126D01*
X126821Y401750D01*
Y396750D01*
X127134Y394374D01*
X128051Y392161D01*
X129510Y390260D01*
X131411Y388801D01*
X133624Y387884D01*
X136000Y387571D01*
X138376Y387884D01*
X140589Y388801D01*
X142490Y390260D01*
X143949Y392161D01*
X144866Y394374D01*
X145178Y396750D01*
Y401750D01*
X144866Y404126D01*
X143949Y406339D01*
X142490Y408240D01*
X140589Y409699D01*
X138376Y410616D01*
X136000Y410928D01*
D02*
G37*
G36*
X86000D02*
X83624Y410616D01*
X81411Y409699D01*
X79510Y408240D01*
X78051Y406339D01*
X77134Y404126D01*
X76821Y401750D01*
Y396750D01*
X77134Y394374D01*
X78051Y392161D01*
X79510Y390260D01*
X81411Y388801D01*
X83624Y387884D01*
X86000Y387571D01*
X88376Y387884D01*
X90589Y388801D01*
X92490Y390260D01*
X93949Y392161D01*
X94866Y394374D01*
X95178Y396750D01*
Y401750D01*
X94866Y404126D01*
X93949Y406339D01*
X92490Y408240D01*
X90589Y409699D01*
X88376Y410616D01*
X86000Y410928D01*
D02*
G37*
G36*
X121127Y397980D02*
X112270D01*
Y386791D01*
X113621Y386968D01*
X116063Y387980D01*
X118161Y389589D01*
X119770Y391687D01*
X120782Y394129D01*
X121127Y396750D01*
Y397980D01*
D02*
G37*
G36*
X109730D02*
X100873D01*
Y396750D01*
X101218Y394129D01*
X102230Y391687D01*
X103839Y389589D01*
X105937Y387980D01*
X108379Y386968D01*
X109730Y386791D01*
Y397980D01*
D02*
G37*
%LPD*%
D17*
X173233Y247000D02*
X173250D01*
X164281Y255951D02*
X173233Y247000D01*
X164264Y255951D02*
X164281D01*
X333853Y232500D02*
X382500D01*
X399250Y215750D01*
X329020Y227667D02*
X333853Y232500D01*
X327606Y237567D02*
X396633D01*
X406000Y228200D01*
X249400Y214466D02*
X249438Y214428D01*
X249400Y214466D02*
Y272639D01*
X215176Y306863D02*
X249400Y272639D01*
X244000Y226000D02*
Y272289D01*
Y226000D02*
X244000Y226000D01*
X218819Y297471D02*
X244000Y272289D01*
X206500Y315539D02*
X215176Y306863D01*
X186000Y324725D02*
X213255Y297471D01*
X218819D01*
X156686Y196586D02*
X229350Y269250D01*
X152950Y187362D02*
X156686Y191098D01*
Y196586D01*
X143558Y189283D02*
X147294Y193019D01*
X36883Y189283D02*
X143558D01*
X25000Y177400D02*
X36883Y189283D01*
X62097Y194940D02*
X137901D01*
X141637Y198676D01*
X54237Y202800D02*
X62097Y194940D01*
X50400Y202800D02*
X54237D01*
X50400Y177400D02*
X51000Y178000D01*
X143588D02*
X148338Y182750D01*
X51000Y178000D02*
X143588D01*
X148338Y182750D02*
X148338D01*
X37200Y215000D02*
X125313D01*
X135980Y204333D01*
X25000Y202800D02*
X37200Y215000D01*
X37300Y240500D02*
X133406D01*
X50400Y279000D02*
X129902D01*
X50400Y253600D02*
X132675D01*
X25000D02*
X37400Y266000D01*
X132675Y253600D02*
X147294Y238981D01*
X37000Y291000D02*
X129216D01*
X25000Y279000D02*
X37000Y291000D01*
X25000Y228200D02*
X37300Y240500D01*
X50400Y304400D02*
X127129D01*
X37400Y266000D02*
X131588D01*
X127129Y304400D02*
X169921Y261608D01*
X129216Y291000D02*
X164264Y255951D01*
X129902Y279000D02*
X158607Y250295D01*
X133406Y240500D02*
X140581Y233324D01*
X131588Y266000D02*
X152950Y244638D01*
X52425Y378575D02*
X120837D01*
X50400Y380600D02*
X52425Y378575D01*
X120837D02*
X203862Y295550D01*
X134925Y227667D02*
X135980D01*
X57425Y235225D02*
X127367D01*
X134925Y227667D01*
X50400Y228200D02*
X57425Y235225D01*
X25000Y355200D02*
X37550Y367750D01*
X120348D02*
X198205Y289893D01*
X37550Y367750D02*
X120348D01*
X140581Y233324D02*
X141637D01*
X37400Y393000D02*
X57500D01*
X25000Y380600D02*
X37400Y393000D01*
X57500D02*
X68725Y381775D01*
X165114D01*
X70133Y63000D02*
X79383Y53750D01*
X37600Y63000D02*
X70133D01*
X25000Y50400D02*
X37600Y63000D01*
X59075Y88000D02*
X86925Y60150D01*
X25000Y75800D02*
X37200Y88000D01*
X59075D01*
X25000Y101200D02*
X37300Y113500D01*
X58250D02*
X104250Y67500D01*
X37300Y113500D02*
X58250D01*
X104250Y67500D02*
X169000D01*
X37350Y316750D02*
X126093D01*
X25000Y304400D02*
X37350Y316750D01*
X126093D02*
X175578Y267265D01*
X122971Y342500D02*
X186892Y278579D01*
X25000Y329800D02*
X37700Y342500D01*
X122971D01*
X419050Y241250D02*
X431400Y253600D01*
X392120Y247630D02*
X398500Y241250D01*
X419050D01*
X324971Y291500D02*
X418500D01*
X431400Y304400D01*
X295079Y261608D02*
X324971Y291500D01*
X333223Y367750D02*
X418550D01*
X261138Y295664D02*
X333223Y367750D01*
X418550D02*
X431400Y380600D01*
X395528Y337850D02*
X400428Y342750D01*
X326066Y337850D02*
X395528D01*
X400428Y342750D02*
X418950D01*
X431400Y355200D01*
X408261Y317000D02*
X420750Y329489D01*
X283765Y272922D02*
X327843Y317000D01*
X408261D01*
X399250Y215750D02*
X418950D01*
X431400Y228200D01*
X323967Y198676D02*
X332893Y189750D01*
X418350D02*
X431400Y202800D01*
X332893Y189750D02*
X418350D01*
X418750Y164750D02*
X431400Y177400D01*
X334662Y164750D02*
X418750D01*
X312050Y187362D02*
X334662Y164750D01*
X418650Y139250D02*
X431400Y152000D01*
X300736Y176049D02*
X337534Y139250D01*
X418650D01*
X340204Y114000D02*
X418800D01*
X316620Y137584D02*
X340204Y114000D01*
X418800D02*
X431400Y126600D01*
X266795Y142107D02*
X326802Y82100D01*
X294347Y69300D02*
X364450D01*
X261138Y136451D02*
X318688Y78900D01*
X302461Y72500D02*
X365775D01*
X272451Y147764D02*
X334916Y85300D01*
X244167Y119480D02*
X294347Y69300D01*
X367101Y75700D02*
X394569Y48232D01*
X326802Y82100D02*
X369752D01*
X310575Y75700D02*
X367101D01*
X334916Y85300D02*
X396500D01*
X343029Y88500D02*
X408361D01*
X255481Y130794D02*
X310575Y75700D01*
X408361Y88500D02*
X420750Y100889D01*
X278108Y153421D02*
X343029Y88500D01*
X365775Y72500D02*
X391369Y46906D01*
X396500Y85300D02*
X406000Y75800D01*
X318688Y78900D02*
X368426D01*
X249824Y125137D02*
X302461Y72500D01*
X369752Y82100D02*
X388102Y63750D01*
X364450Y69300D02*
X388169Y45581D01*
X368426Y78900D02*
X395350Y51976D01*
X419350Y63750D02*
X431400Y75800D01*
X388102Y63750D02*
X419350D01*
X391369Y39105D02*
X405475Y25000D01*
X397250Y37750D02*
X418750D01*
X394569Y40431D02*
X397250Y37750D01*
X394569Y40431D02*
Y48232D01*
X391369Y39105D02*
Y46906D01*
X405475Y25000D02*
X406000D01*
X418750Y37750D02*
X431400Y50400D01*
X391500Y12500D02*
X418900D01*
X388169Y15831D02*
X391500Y12500D01*
X388169Y15831D02*
Y45581D01*
X418900Y12500D02*
X431400Y25000D01*
X431400D01*
X119776Y92474D02*
X121958D01*
X144992Y115508D01*
X216590Y316763D02*
Y356969D01*
X214500Y359059D02*
Y360250D01*
X216590Y316763D02*
X220833Y312520D01*
X214500Y359059D02*
X216590Y356969D01*
X206500Y394750D02*
X211000Y399250D01*
X206500Y315539D02*
Y394750D01*
X138750Y372500D02*
X148250Y363000D01*
X175000D01*
X404424Y51976D02*
X406000Y50400D01*
X395350Y51976D02*
X404424D01*
X341643Y101200D02*
X406000D01*
X283765Y159078D02*
X341643Y101200D01*
X230225Y113275D02*
X256500Y87000D01*
X230225Y113275D02*
Y125856D01*
X233425Y118575D02*
X278000Y74000D01*
X233425Y118575D02*
Y127181D01*
X316573Y137584D02*
X316620D01*
X289422Y164735D02*
X316573Y137584D01*
X323363Y198676D02*
X323967D01*
X61125Y416725D02*
X201069D01*
X204269Y413525D02*
X204269D01*
X201069Y416725D02*
X204269Y413525D01*
X204269D02*
X211000Y406794D01*
X232000Y405750D02*
X247250Y421000D01*
X232000Y381000D02*
Y405750D01*
X175309Y374750D02*
X177809Y377250D01*
X179000D01*
X152250Y374750D02*
X175309D01*
X50400Y406000D02*
X61125Y416725D01*
X211000Y399250D02*
Y406794D01*
X186000Y324725D02*
Y398725D01*
X165114Y381775D02*
X175845Y392506D01*
X179781D02*
X186000Y398725D01*
X175845Y392506D02*
X179781D01*
X104740Y25250D02*
X104786Y25296D01*
X121556D01*
X121760Y25500D01*
X50400Y101200D02*
X88104Y63496D01*
X110500Y35000D02*
X119650Y44150D01*
X170773Y60150D02*
X188813Y78190D01*
X79383Y53750D02*
X173424D01*
X119650Y44150D02*
X177400D01*
X86925Y60150D02*
X170773D01*
X85599Y56950D02*
X172098D01*
X116999Y50550D02*
X174749D01*
X118324Y47350D02*
X176075D01*
X169593Y63496D02*
X183156Y77059D01*
X172098Y56950D02*
X194470Y79321D01*
X169000Y67500D02*
X177500Y76000D01*
X176075Y47350D02*
X211440Y82716D01*
X177500Y76000D02*
Y147044D01*
X88104Y63496D02*
X169593D01*
X177400Y44150D02*
X215231Y81981D01*
X116849Y50400D02*
X116999Y50550D01*
X174749D02*
X205783Y81584D01*
X173424Y53750D02*
X200126Y80453D01*
X66749Y75800D02*
X85599Y56950D01*
X109174Y38200D02*
X118324Y47350D01*
X183156Y77059D02*
Y149685D01*
X50400Y50400D02*
X116849D01*
X25000Y25000D02*
X38200Y38200D01*
X50400Y25000D02*
X60400Y35000D01*
X38200Y38200D02*
X109174D01*
X60400Y35000D02*
X110500D01*
X50400Y75800D02*
X66749D01*
X196791Y152007D02*
X208600D01*
X233425Y127181D01*
X188813Y144028D02*
X192549Y147764D01*
X196791Y152007D01*
X209731Y146350D02*
X230225Y125856D01*
X202448Y146350D02*
X209731D01*
X194470Y138372D02*
X202448Y146350D01*
X215231Y81981D02*
Y112823D01*
X220833Y118425D02*
Y119480D01*
X211440Y121401D02*
X215176Y125137D01*
X215231Y112823D02*
X220833Y118425D01*
X211440Y82716D02*
Y121401D01*
X205783Y81584D02*
Y127058D01*
X200126Y80453D02*
Y132715D01*
X205783Y127058D02*
X209519Y130794D01*
X200126Y132715D02*
X203862Y136451D01*
X361620Y263000D02*
X361750Y262870D01*
X376000D01*
Y247630D02*
X392120D01*
X317706Y238981D02*
X326355Y247630D01*
X376000D01*
X135980Y204333D02*
X135980D01*
X149522Y149992D02*
X169921Y170392D01*
X110508Y149992D02*
X149522D01*
X87612Y127096D02*
X110508Y149992D01*
Y149992D01*
X87612Y124888D02*
Y127096D01*
X420750Y100889D02*
X431089D01*
X431400Y101200D01*
X338871Y126600D02*
X406000D01*
X295079Y170392D02*
X338871Y126600D01*
X336098Y152000D02*
X406000D01*
X306393Y181705D02*
X336098Y152000D01*
X333325Y177400D02*
X406000D01*
X317706Y193019D02*
X333325Y177400D01*
X404036Y200836D02*
X406000Y202800D01*
X329020Y204333D02*
X332517Y200836D01*
X404036D01*
X323363Y233324D02*
X327606Y237567D01*
X329329Y329800D02*
X406000D01*
X420750Y329489D02*
X431089D01*
X431400Y329800D01*
X278108Y278579D02*
X329329Y329800D01*
X326557Y304400D02*
X406000D01*
X300736Y255951D02*
X323784Y279000D01*
X406000D01*
X289422Y267265D02*
X326557Y304400D01*
X334875Y380600D02*
X406000D01*
X255481Y301206D02*
X334875Y380600D01*
X279523Y268679D02*
X283765Y272922D01*
X272451Y284236D02*
X326066Y337850D01*
X299980Y329981D02*
X327649Y357650D01*
X299980Y323078D02*
Y329981D01*
X327649Y357650D02*
X403550D01*
X406000Y355200D01*
X266795Y289893D02*
X299980Y323078D01*
X261138Y295550D02*
Y295664D01*
X144992Y134149D02*
X175578Y164735D01*
X144992Y115508D02*
Y134149D01*
X177499Y155342D02*
X181235Y159078D01*
X177499Y147045D02*
X177500Y147044D01*
X177499Y147045D02*
Y155342D01*
X194470Y79321D02*
Y138372D01*
X188813Y78190D02*
Y144028D01*
X183156Y149685D02*
X186892Y153421D01*
X50400Y329800D02*
X124357D01*
X181235Y272922D01*
X50400Y355200D02*
X121584D01*
X192549Y284236D01*
D18*
X89500Y25250D02*
D03*
X104740D02*
D03*
D19*
X376000Y247630D02*
D03*
Y262870D02*
D03*
D20*
X244167Y312520D02*
D03*
X249824Y306863D02*
D03*
X255481Y301206D02*
D03*
X261138Y295550D02*
D03*
X266795Y289893D02*
D03*
X272451Y284236D02*
D03*
X278108Y278579D02*
D03*
X283765Y272922D02*
D03*
X289422Y267265D02*
D03*
X295079Y261608D02*
D03*
X300736Y255951D02*
D03*
X306393Y250295D02*
D03*
X312050Y244638D02*
D03*
X317706Y238981D02*
D03*
X323363Y233324D02*
D03*
X329020Y227667D02*
D03*
X220833Y119480D02*
D03*
X215176Y125137D02*
D03*
X209519Y130794D02*
D03*
X203862Y136451D02*
D03*
X198205Y142107D02*
D03*
X192549Y147764D02*
D03*
X186892Y153421D02*
D03*
X181235Y159078D02*
D03*
X175578Y164735D02*
D03*
X169921Y170392D02*
D03*
X164264Y176049D02*
D03*
X158607Y181705D02*
D03*
X152950Y187362D02*
D03*
X147294Y193019D02*
D03*
X141637Y198676D02*
D03*
X135980Y204333D02*
D03*
D21*
X329020D02*
D03*
X323363Y198676D02*
D03*
X317706Y193019D02*
D03*
X312050Y187362D02*
D03*
X306393Y181705D02*
D03*
X300736Y176049D02*
D03*
X295079Y170392D02*
D03*
X289422Y164735D02*
D03*
X283765Y159078D02*
D03*
X278108Y153421D02*
D03*
X272451Y147764D02*
D03*
X266795Y142107D02*
D03*
X261138Y136451D02*
D03*
X255481Y130794D02*
D03*
X249824Y125137D02*
D03*
X244167Y119480D02*
D03*
X135980Y227667D02*
D03*
X141637Y233324D02*
D03*
X147294Y238981D02*
D03*
X152950Y244638D02*
D03*
X158607Y250295D02*
D03*
X164264Y255951D02*
D03*
X169921Y261608D02*
D03*
X175578Y267265D02*
D03*
X181235Y272922D02*
D03*
X186892Y278579D02*
D03*
X192549Y284236D02*
D03*
X198205Y289893D02*
D03*
X203862Y295550D02*
D03*
X209519Y301206D02*
D03*
X215176Y306863D02*
D03*
X220833Y312520D02*
D03*
D22*
X361620Y263000D02*
D03*
X346380D02*
D03*
X121760Y25500D02*
D03*
X137000D02*
D03*
D23*
X119776Y92474D02*
D03*
X109000Y103250D02*
D03*
X87612Y124888D02*
D03*
X98388Y114112D02*
D03*
D37*
X172171Y195133D02*
Y196447D01*
X233970Y302458D02*
X244032Y312520D01*
X232691Y302458D02*
X233970D01*
X244032Y312520D02*
X244167D01*
X232500Y302267D02*
X232691Y302458D01*
X299000Y231500D02*
X312050Y244550D01*
Y244638D01*
X172171Y196447D02*
X172362Y196638D01*
X158743Y181705D02*
X172171Y195133D01*
X158607Y181705D02*
X158743D01*
X261456Y417250D02*
X300500D01*
X326750Y391000D01*
X251500Y399750D02*
X253413Y401663D01*
Y409207D01*
X261456Y417250D01*
X326750Y391000D02*
X377120D01*
D38*
X327000Y35000D02*
D03*
X302000D02*
D03*
X223500Y34750D02*
D03*
X198500D02*
D03*
X331750Y347750D02*
D03*
X376750D02*
D03*
X331750Y412750D02*
D03*
X376750D02*
D03*
D39*
X352000Y35000D02*
D03*
X248500Y34750D02*
D03*
D40*
X251500Y399750D02*
D03*
X86000Y399250D02*
D03*
X111000D02*
D03*
X136000D02*
D03*
X161000D02*
D03*
X186000D02*
D03*
D41*
X276500Y399750D02*
D03*
X211000Y399250D02*
D03*
D42*
X110508Y149992D02*
D03*
X144992Y115508D02*
D03*
D43*
X25000Y75800D02*
D03*
X50400Y75800D02*
D03*
X25000Y101200D02*
D03*
X50400Y101200D02*
D03*
X25000Y126600D02*
D03*
X50400Y126600D02*
D03*
X25000Y355200D02*
D03*
X50400Y355200D02*
D03*
X25000Y380600D02*
D03*
X50400D02*
D03*
X25000Y406000D02*
D03*
X50400Y329800D02*
D03*
X25000Y329800D02*
D03*
X50400Y304400D02*
D03*
X25000Y304400D02*
D03*
X50400Y279000D02*
D03*
X25000D02*
D03*
X50400Y253600D02*
D03*
X25000D02*
D03*
X50400Y228200D02*
D03*
X25000Y228200D02*
D03*
X50400Y202800D02*
D03*
X25000Y202800D02*
D03*
X50400Y177400D02*
D03*
X25000D02*
D03*
X50400Y152000D02*
D03*
X25000D02*
D03*
X50400Y50400D02*
D03*
Y25000D02*
D03*
X25000Y50400D02*
D03*
Y25000D02*
D03*
X406000Y75800D02*
D03*
X431400D02*
D03*
X406000Y101200D02*
D03*
X431400Y101200D02*
D03*
X406000Y126600D02*
D03*
X431400D02*
D03*
X406000Y355200D02*
D03*
X431400D02*
D03*
X406000Y380600D02*
D03*
X431400D02*
D03*
X406000Y406000D02*
D03*
X431400Y329800D02*
D03*
X406000Y329800D02*
D03*
X431400Y304400D02*
D03*
X406000D02*
D03*
X431400Y279000D02*
D03*
X406000D02*
D03*
X431400Y253600D02*
D03*
X406000D02*
D03*
X431400Y228200D02*
D03*
X406000D02*
D03*
X431400Y202800D02*
D03*
X406000D02*
D03*
X431400Y177400D02*
D03*
X406000Y177400D02*
D03*
X431400Y152000D02*
D03*
X406000D02*
D03*
X431400Y50400D02*
D03*
Y25000D02*
D03*
X406000Y50400D02*
D03*
Y25000D02*
D03*
D44*
X50400Y406000D02*
D03*
X431400D02*
D03*
D45*
X443841Y420871D02*
D03*
Y384871D02*
D03*
Y375871D02*
D03*
Y366871D02*
D03*
Y348871D02*
D03*
Y339871D02*
D03*
Y321871D02*
D03*
Y312871D02*
D03*
Y294871D02*
D03*
Y285870D02*
D03*
Y267871D02*
D03*
Y258871D02*
D03*
Y249870D02*
D03*
Y240870D02*
D03*
Y231870D02*
D03*
Y222871D02*
D03*
Y213871D02*
D03*
Y195870D02*
D03*
Y186870D02*
D03*
Y168871D02*
D03*
Y159870D02*
D03*
Y141870D02*
D03*
Y132870D02*
D03*
Y114870D02*
D03*
Y105870D02*
D03*
Y96870D02*
D03*
Y87870D02*
D03*
Y69870D02*
D03*
Y60870D02*
D03*
Y42870D02*
D03*
Y33870D02*
D03*
Y15870D02*
D03*
X434841Y420871D02*
D03*
Y240870D02*
D03*
X425841Y420871D02*
D03*
Y366871D02*
D03*
Y87870D02*
D03*
X416841Y420871D02*
D03*
Y393871D02*
D03*
Y312871D02*
D03*
Y267871D02*
D03*
Y87870D02*
D03*
X407841Y420871D02*
D03*
X398841D02*
D03*
Y267871D02*
D03*
X389841Y420871D02*
D03*
Y411871D02*
D03*
Y402871D02*
D03*
Y267871D02*
D03*
Y258871D02*
D03*
Y213871D02*
D03*
X380841Y42870D02*
D03*
Y33870D02*
D03*
Y24870D02*
D03*
Y15870D02*
D03*
X371841Y51870D02*
D03*
Y42870D02*
D03*
Y33870D02*
D03*
Y24870D02*
D03*
Y15870D02*
D03*
X362841Y420871D02*
D03*
Y348871D02*
D03*
Y222871D02*
D03*
Y60870D02*
D03*
Y51870D02*
D03*
Y15870D02*
D03*
X353841Y402871D02*
D03*
Y222871D02*
D03*
Y60870D02*
D03*
Y51870D02*
D03*
Y15870D02*
D03*
X344841Y411871D02*
D03*
Y402871D02*
D03*
Y348871D02*
D03*
Y222871D02*
D03*
Y60870D02*
D03*
Y51870D02*
D03*
Y15870D02*
D03*
X335841Y222871D02*
D03*
Y60870D02*
D03*
Y51870D02*
D03*
Y24870D02*
D03*
Y15870D02*
D03*
X326841D02*
D03*
X317841Y411871D02*
D03*
Y384871D02*
D03*
Y375871D02*
D03*
Y60870D02*
D03*
Y51870D02*
D03*
Y24870D02*
D03*
Y15870D02*
D03*
X308841Y393871D02*
D03*
Y384871D02*
D03*
Y375871D02*
D03*
Y366871D02*
D03*
Y51870D02*
D03*
Y24870D02*
D03*
Y15870D02*
D03*
X299841Y402871D02*
D03*
Y393871D02*
D03*
Y384871D02*
D03*
Y375871D02*
D03*
Y366871D02*
D03*
Y357871D02*
D03*
Y213871D02*
D03*
Y204870D02*
D03*
Y195870D02*
D03*
Y60870D02*
D03*
Y15870D02*
D03*
X290840Y402871D02*
D03*
Y393871D02*
D03*
Y384871D02*
D03*
Y375871D02*
D03*
Y366871D02*
D03*
Y357871D02*
D03*
Y348871D02*
D03*
Y222871D02*
D03*
Y213871D02*
D03*
Y204870D02*
D03*
Y195870D02*
D03*
Y60870D02*
D03*
Y51870D02*
D03*
Y42870D02*
D03*
Y24870D02*
D03*
Y15870D02*
D03*
X281840Y375871D02*
D03*
Y366871D02*
D03*
Y357871D02*
D03*
Y348871D02*
D03*
Y339871D02*
D03*
Y249870D02*
D03*
Y222871D02*
D03*
Y213871D02*
D03*
Y204870D02*
D03*
Y60870D02*
D03*
Y51870D02*
D03*
Y42870D02*
D03*
Y33870D02*
D03*
Y24870D02*
D03*
Y15870D02*
D03*
X272840Y375871D02*
D03*
Y366871D02*
D03*
Y330871D02*
D03*
Y258871D02*
D03*
Y249870D02*
D03*
Y240870D02*
D03*
Y222871D02*
D03*
Y213871D02*
D03*
Y177871D02*
D03*
Y60870D02*
D03*
Y51870D02*
D03*
Y42870D02*
D03*
Y33870D02*
D03*
Y24870D02*
D03*
Y15870D02*
D03*
X263841Y384871D02*
D03*
Y375871D02*
D03*
Y366871D02*
D03*
Y330871D02*
D03*
Y258871D02*
D03*
Y249870D02*
D03*
Y240870D02*
D03*
Y222871D02*
D03*
Y186870D02*
D03*
Y177871D02*
D03*
Y78870D02*
D03*
Y69870D02*
D03*
Y60870D02*
D03*
Y51870D02*
D03*
Y42870D02*
D03*
Y33870D02*
D03*
Y24870D02*
D03*
Y15870D02*
D03*
X254841Y276870D02*
D03*
Y195870D02*
D03*
Y186870D02*
D03*
Y78870D02*
D03*
Y69870D02*
D03*
Y60870D02*
D03*
Y51870D02*
D03*
Y15870D02*
D03*
X245840Y384871D02*
D03*
Y375871D02*
D03*
Y366871D02*
D03*
Y357871D02*
D03*
Y348871D02*
D03*
Y204870D02*
D03*
Y195870D02*
D03*
Y159870D02*
D03*
Y150870D02*
D03*
Y141870D02*
D03*
Y78870D02*
D03*
Y69870D02*
D03*
Y60870D02*
D03*
Y51870D02*
D03*
Y15870D02*
D03*
X236840Y366871D02*
D03*
Y357871D02*
D03*
Y348871D02*
D03*
Y339871D02*
D03*
Y231870D02*
D03*
Y222871D02*
D03*
Y213871D02*
D03*
Y204870D02*
D03*
Y168871D02*
D03*
Y159870D02*
D03*
Y150870D02*
D03*
Y141870D02*
D03*
Y132870D02*
D03*
Y69870D02*
D03*
Y60870D02*
D03*
Y51870D02*
D03*
Y15870D02*
D03*
X227840Y411871D02*
D03*
Y366871D02*
D03*
Y357871D02*
D03*
Y348871D02*
D03*
Y339871D02*
D03*
Y330871D02*
D03*
Y240870D02*
D03*
Y231870D02*
D03*
Y222871D02*
D03*
Y213871D02*
D03*
Y204870D02*
D03*
Y177871D02*
D03*
Y168871D02*
D03*
Y159870D02*
D03*
Y150870D02*
D03*
Y141870D02*
D03*
Y15870D02*
D03*
X218841Y366871D02*
D03*
Y249870D02*
D03*
Y240870D02*
D03*
Y231870D02*
D03*
Y222871D02*
D03*
Y213871D02*
D03*
Y204870D02*
D03*
Y186870D02*
D03*
Y177871D02*
D03*
Y168871D02*
D03*
Y159870D02*
D03*
Y150870D02*
D03*
Y15870D02*
D03*
X209841Y240870D02*
D03*
Y231870D02*
D03*
Y222871D02*
D03*
Y213871D02*
D03*
Y204870D02*
D03*
Y186870D02*
D03*
Y177871D02*
D03*
Y60870D02*
D03*
Y51870D02*
D03*
Y42870D02*
D03*
Y24870D02*
D03*
Y15870D02*
D03*
X200840Y231870D02*
D03*
Y222871D02*
D03*
Y213871D02*
D03*
Y204870D02*
D03*
Y186870D02*
D03*
Y15870D02*
D03*
X191840Y222871D02*
D03*
Y213871D02*
D03*
Y15870D02*
D03*
X182840Y33870D02*
D03*
Y24870D02*
D03*
Y15870D02*
D03*
X173840Y402871D02*
D03*
Y33870D02*
D03*
Y24870D02*
D03*
Y15870D02*
D03*
X164840Y123870D02*
D03*
Y114870D02*
D03*
Y105870D02*
D03*
Y96870D02*
D03*
Y87870D02*
D03*
Y33870D02*
D03*
Y24870D02*
D03*
Y15870D02*
D03*
X155840Y222871D02*
D03*
Y213871D02*
D03*
Y204870D02*
D03*
Y132870D02*
D03*
Y123870D02*
D03*
Y105870D02*
D03*
Y96870D02*
D03*
Y87870D02*
D03*
Y33870D02*
D03*
Y24870D02*
D03*
Y15870D02*
D03*
X146840Y213871D02*
D03*
Y96870D02*
D03*
Y87870D02*
D03*
Y33870D02*
D03*
Y24870D02*
D03*
Y15870D02*
D03*
X137840Y141870D02*
D03*
Y132870D02*
D03*
Y96870D02*
D03*
Y15870D02*
D03*
X128840Y222871D02*
D03*
Y168871D02*
D03*
Y159870D02*
D03*
Y141870D02*
D03*
Y132870D02*
D03*
Y123870D02*
D03*
Y114870D02*
D03*
Y15870D02*
D03*
X119840Y168871D02*
D03*
Y159870D02*
D03*
Y141870D02*
D03*
Y132870D02*
D03*
Y123870D02*
D03*
Y114870D02*
D03*
Y105870D02*
D03*
Y15870D02*
D03*
X110840Y168871D02*
D03*
Y132870D02*
D03*
Y123870D02*
D03*
Y114870D02*
D03*
Y15870D02*
D03*
X101840Y168871D02*
D03*
Y159870D02*
D03*
Y132870D02*
D03*
Y123870D02*
D03*
Y78870D02*
D03*
Y15870D02*
D03*
X92840Y168871D02*
D03*
Y159870D02*
D03*
Y150870D02*
D03*
Y141870D02*
D03*
Y105870D02*
D03*
Y15870D02*
D03*
X83840Y168871D02*
D03*
Y159870D02*
D03*
Y150870D02*
D03*
Y141870D02*
D03*
Y114870D02*
D03*
Y105870D02*
D03*
Y15870D02*
D03*
X74840Y168871D02*
D03*
Y159870D02*
D03*
Y150870D02*
D03*
Y141870D02*
D03*
Y132870D02*
D03*
Y123870D02*
D03*
Y114870D02*
D03*
Y24870D02*
D03*
Y15870D02*
D03*
X65840Y402871D02*
D03*
Y168871D02*
D03*
Y159870D02*
D03*
Y150870D02*
D03*
Y141870D02*
D03*
Y132870D02*
D03*
Y123870D02*
D03*
Y24870D02*
D03*
Y15870D02*
D03*
X56840Y420871D02*
D03*
X47840D02*
D03*
X38840D02*
D03*
Y348871D02*
D03*
Y195870D02*
D03*
Y168871D02*
D03*
Y159870D02*
D03*
Y141870D02*
D03*
Y132870D02*
D03*
Y69870D02*
D03*
Y15870D02*
D03*
X29840Y420871D02*
D03*
Y240870D02*
D03*
X20840Y420871D02*
D03*
Y240870D02*
D03*
X11840Y420871D02*
D03*
Y411871D02*
D03*
Y402871D02*
D03*
Y393871D02*
D03*
Y384871D02*
D03*
Y375871D02*
D03*
Y366871D02*
D03*
Y357871D02*
D03*
Y348871D02*
D03*
Y339871D02*
D03*
Y330871D02*
D03*
Y321871D02*
D03*
Y312871D02*
D03*
Y303871D02*
D03*
Y294871D02*
D03*
Y285870D02*
D03*
Y276870D02*
D03*
Y267871D02*
D03*
Y258871D02*
D03*
Y249870D02*
D03*
Y240870D02*
D03*
Y231870D02*
D03*
Y222871D02*
D03*
Y213871D02*
D03*
Y204870D02*
D03*
Y195870D02*
D03*
Y186870D02*
D03*
Y177871D02*
D03*
Y168871D02*
D03*
Y159870D02*
D03*
Y150870D02*
D03*
Y141870D02*
D03*
Y132870D02*
D03*
Y123870D02*
D03*
Y114870D02*
D03*
Y105870D02*
D03*
Y96870D02*
D03*
Y87870D02*
D03*
Y78870D02*
D03*
Y69870D02*
D03*
Y60870D02*
D03*
Y51870D02*
D03*
Y42870D02*
D03*
Y33870D02*
D03*
Y24870D02*
D03*
Y15870D02*
D03*
X146250Y158250D02*
D03*
X169250Y133729D02*
D03*
X163240Y139740D02*
D03*
X132500Y86250D02*
D03*
X259500Y317250D02*
D03*
X224500Y96000D02*
D03*
X109490Y83760D02*
D03*
X115500Y77750D02*
D03*
X124000D02*
D03*
X132500D02*
D03*
X141000D02*
D03*
X149500D02*
D03*
X169250Y145750D02*
D03*
X137750Y166750D02*
D03*
X146250D02*
D03*
X224500Y104500D02*
D03*
X154750Y166750D02*
D03*
X320880Y263000D02*
D03*
X329380D02*
D03*
X337880D02*
D03*
X382495Y216000D02*
D03*
X373995D02*
D03*
X365495D02*
D03*
X356995D02*
D03*
X348495D02*
D03*
X339995D02*
D03*
X121750Y225000D02*
D03*
X113250D02*
D03*
X104750D02*
D03*
X96250D02*
D03*
X87750D02*
D03*
X70750D02*
D03*
D03*
X79250D02*
D03*
X331495Y216000D02*
D03*
X136250Y216250D02*
D03*
X354250Y349250D02*
D03*
X173250Y247000D02*
D03*
X249438Y214428D02*
D03*
X244000Y226000D02*
D03*
X229350Y269250D02*
D03*
X196750Y388000D02*
D03*
Y370000D02*
D03*
Y352000D02*
D03*
Y343000D02*
D03*
Y334000D02*
D03*
Y325000D02*
D03*
X270250Y355750D02*
D03*
Y340000D02*
D03*
X232500Y302267D02*
D03*
X184888Y206638D02*
D03*
X288224Y242276D02*
D03*
X299000Y231500D02*
D03*
X174112Y195862D02*
D03*
X119776Y92474D02*
D03*
X214500Y360250D02*
D03*
X175000Y363000D02*
D03*
X256500Y87000D02*
D03*
X346380Y263000D02*
D03*
X278000Y74000D02*
D03*
X137000Y25500D02*
D03*
X232000Y381000D02*
D03*
X179000Y377250D02*
D03*
X152250Y374750D02*
D03*
X138750Y372500D02*
D03*
X247250Y421000D02*
D03*
X89500Y25250D02*
D03*
X377120Y391000D02*
D03*
M02*
