G04*
G04 #@! TF.GenerationSoftware,Altium Limited,Altium NEXUS,4.0.7 (54)*
G04*
G04 Layer_Color=32896*
%FSLAX44Y44*%
%MOMM*%
G71*
G04*
G04 #@! TF.SameCoordinates,2F636ACE-6931-4982-A4A6-23C36C612785*
G04*
G04*
G04 #@! TF.FilePolarity,Positive*
G04*
G01*
G75*
%ADD11C,0.6000*%
%ADD12C,0.2500*%
%ADD13C,0.1270*%
%ADD14C,0.2000*%
%ADD16C,0.1250*%
%ADD17C,0.1600*%
D11*
X319500Y158500D02*
G03*
X319500Y158500I-3000J0D01*
G01*
D12*
X340000Y171700D02*
G03*
X340000Y171700I-1250J0D01*
G01*
D13*
X222770Y290750D02*
X242526Y270993D01*
X251507Y279974D01*
X231750Y299730D02*
X251507Y279974D01*
X222770Y290750D02*
X231750Y299730D01*
X238552Y286776D02*
X239436Y287660D01*
X237315Y287306D02*
X239083Y285539D01*
X235194Y285185D02*
X236961Y283417D01*
X234840Y283064D02*
X235724Y283948D01*
X295026Y238302D02*
X295910Y239186D01*
X293789Y238833D02*
X295556Y237065D01*
X291667Y236711D02*
X293435Y234944D01*
X291314Y234590D02*
X292198Y235474D01*
X299000Y222520D02*
X307980Y231500D01*
X279244Y242276D02*
X299000Y222520D01*
X279244Y242276D02*
X288224Y251257D01*
X307980Y231500D01*
X322356Y173806D02*
Y175056D01*
X321106Y175556D02*
X323606D01*
X321106Y178556D02*
X323606D01*
X322356Y179056D02*
Y180306D01*
X308386Y170706D02*
Y183406D01*
X336326D01*
Y170706D02*
Y183406D01*
X308386Y170706D02*
X336326D01*
X248660Y333650D02*
X276600D01*
Y346350D01*
X248660D02*
X276600D01*
X248660Y333650D02*
Y346350D01*
X262630Y342000D02*
Y343250D01*
X261380Y341500D02*
X263880D01*
X261380Y338500D02*
X263880D01*
X262630Y336750D02*
Y338000D01*
X365600Y139280D02*
Y167220D01*
X352900D02*
X365600D01*
X352900Y139280D02*
Y167220D01*
Y139280D02*
X365600D01*
X356000Y153250D02*
X357250D01*
X357750Y152000D02*
Y154500D01*
X360750Y152000D02*
Y154500D01*
X361250Y153250D02*
X362500D01*
X267600Y140410D02*
Y168350D01*
X254900D02*
X267600D01*
X254900Y140410D02*
Y168350D01*
Y140410D02*
X267600D01*
X258000Y154380D02*
X259250D01*
X259750Y153130D02*
Y155630D01*
X262750Y153130D02*
Y155630D01*
X263250Y154380D02*
X264500Y154380D01*
X366600Y74780D02*
Y102720D01*
X353900D02*
X366600D01*
X353900Y74780D02*
Y102720D01*
Y74780D02*
X366600D01*
X357000Y88750D02*
X358250D01*
X358750Y87500D02*
Y90000D01*
X361750Y87500D02*
Y90000D01*
X362250Y88750D02*
X363500D01*
X365600Y106030D02*
Y133970D01*
X352900D02*
X365600D01*
X352900Y106030D02*
Y133970D01*
Y106030D02*
X365600D01*
X356000Y120000D02*
X357250D01*
X357750Y118750D02*
Y121250D01*
X360750Y118750D02*
X360750Y121250D01*
X361250Y120000D02*
X362500D01*
X262630Y352500D02*
Y353750D01*
X261380Y354250D02*
X263880D01*
X261380Y357250D02*
X263880D01*
X262630Y357750D02*
Y359000D01*
X248660Y349400D02*
Y362100D01*
X276600D01*
Y349400D02*
Y362100D01*
X248660Y349400D02*
X276600D01*
X355530Y384650D02*
X383470D01*
Y397350D01*
X355530D02*
X383470D01*
X355530Y384650D02*
Y397350D01*
X369500Y395000D02*
Y397000D01*
Y385000D02*
Y387000D01*
X180914Y199836D02*
X181798Y198952D01*
X179677Y199305D02*
X181444Y201073D01*
X177555Y201427D02*
X179323Y203195D01*
X177202Y203548D02*
X178086Y202664D01*
X165132Y195862D02*
X174112Y186882D01*
X165132Y195862D02*
X184888Y215618D01*
X193868Y206638D01*
X174112Y186882D02*
X193868Y206638D01*
X369750Y377750D02*
Y379000D01*
X368500Y377250D02*
X371000D01*
X368500Y374250D02*
X371000D01*
X369750Y372500D02*
Y373750D01*
X383720Y369400D02*
Y382100D01*
X355780Y369400D02*
X383720D01*
X355780D02*
Y382100D01*
X383720D01*
D14*
X214464Y280432D02*
X214818Y280786D01*
X221182Y273714D02*
X221535Y274068D01*
X294500Y68500D02*
X326500Y68500D01*
X294500Y168500D02*
X326500D01*
X294500Y68500D02*
Y168500D01*
X326500Y68500D02*
X326500Y168500D01*
X12300Y420200D02*
X63100D01*
Y10800D02*
Y420200D01*
X12300Y10800D02*
X63100D01*
X12300D02*
Y420200D01*
X393300D02*
X444100D01*
Y10800D02*
Y420200D01*
X393300Y10800D02*
X444100D01*
X393300D02*
Y420200D01*
D16*
X369496Y386996D02*
X370500Y388000D01*
X368500Y390000D02*
X370500Y388000D01*
X368500Y390000D02*
X370500Y392000D01*
X368496Y393996D02*
X369500Y395000D01*
X368500Y394000D02*
X370500Y392000D01*
D17*
X291898Y222151D02*
X293547D01*
X295196Y220502D01*
Y218852D01*
X291898Y215554D01*
X290248D01*
X288599Y217203D01*
Y218852D01*
X286125Y219677D02*
X284475Y221326D01*
X285300Y220502D01*
X290248Y225450D01*
Y223801D01*
X278703Y227099D02*
X282001Y223801D01*
Y230398D01*
X282826Y231223D01*
X284475D01*
X286125Y229573D01*
Y227924D01*
X344938Y176390D02*
X346105Y175224D01*
Y172891D01*
X344938Y171725D01*
X340273D01*
X339107Y172891D01*
Y175224D01*
X340273Y176390D01*
X346105Y178722D02*
Y183388D01*
X344938D01*
X340273Y178722D01*
X339107D01*
X322581Y61999D02*
Y56167D01*
X321415Y55001D01*
X319083D01*
X317916Y56167D01*
Y61999D01*
X310919Y55001D02*
X315584D01*
X310919Y59666D01*
Y60833D01*
X312085Y61999D01*
X314417D01*
X315584Y60833D01*
X351331Y387251D02*
Y394249D01*
X347833D01*
X346666Y393083D01*
Y390750D01*
X347833Y389584D01*
X351331D01*
X348999D02*
X346666Y387251D01*
X344334Y393083D02*
X343167Y394249D01*
X340835D01*
X339669Y393083D01*
Y391916D01*
X340835Y390750D01*
X342001D01*
X340835D01*
X339669Y389584D01*
Y388417D01*
X340835Y387251D01*
X343167D01*
X344334Y388417D01*
X204825Y269523D02*
X209773Y264575D01*
X206474Y261276D01*
X204825Y259627D02*
X203175Y257977D01*
X204000Y258802D01*
X199052Y263750D01*
X200701D01*
X439916Y429999D02*
X442249D01*
X441083D01*
Y424167D01*
X442249Y423001D01*
X443415D01*
X444581Y424167D01*
X432919Y429999D02*
X435251Y428833D01*
X437584Y426500D01*
Y424167D01*
X436417Y423001D01*
X434085D01*
X432919Y424167D01*
Y425334D01*
X434085Y426500D01*
X437584D01*
X59916Y429499D02*
X62249D01*
X61083D01*
Y423667D01*
X62249Y422501D01*
X63415D01*
X64581Y423667D01*
X52919Y429499D02*
X57584D01*
Y426000D01*
X55251Y427166D01*
X54085D01*
X52919Y426000D01*
Y423667D01*
X54085Y422501D01*
X56417D01*
X57584Y423667D01*
X260174Y264125D02*
X261823D01*
X263473Y262475D01*
Y260826D01*
X260174Y257527D01*
X258525D01*
X256875Y259177D01*
Y260826D01*
X254401Y261651D02*
X252752Y263300D01*
X253576Y262475D01*
X258525Y267424D01*
Y265774D01*
X254401Y269898D02*
Y271547D01*
X252752Y273196D01*
X251102D01*
X250278Y272372D01*
Y270722D01*
X251102Y269898D01*
X250278Y270722D01*
X248628D01*
X247804Y269898D01*
Y268248D01*
X249453Y266599D01*
X251102D01*
X174662Y220211D02*
Y221861D01*
X176312Y223510D01*
X177961D01*
X181260Y220211D01*
Y218562D01*
X179611Y216912D01*
X177961D01*
X177136Y214438D02*
X175487Y212789D01*
X176312Y213613D01*
X171364Y218562D01*
X173013D01*
Y210315D02*
X171364Y208665D01*
X172188Y209490D01*
X167240Y214438D01*
X168890D01*
X347082Y377333D02*
X348248Y378499D01*
X350581D01*
X351747Y377333D01*
Y372667D01*
X350581Y371501D01*
X348248D01*
X347082Y372667D01*
X344749Y371501D02*
X342417D01*
X343583D01*
Y378499D01*
X344749Y377333D01*
X338918D02*
X337752Y378499D01*
X335419D01*
X334253Y377333D01*
Y372667D01*
X335419Y371501D01*
X337752D01*
X338918Y372667D01*
Y377333D01*
X261889Y181453D02*
X263055Y182620D01*
X265388D01*
X266554Y181453D01*
Y176788D01*
X265388Y175622D01*
X263055D01*
X261889Y176788D01*
X259556D02*
X258390Y175622D01*
X256057D01*
X254891Y176788D01*
Y181453D01*
X256057Y182620D01*
X258390D01*
X259556Y181453D01*
Y180287D01*
X258390Y179121D01*
X254891D01*
X371417Y97166D02*
X370251Y98333D01*
Y100665D01*
X371417Y101832D01*
X376083D01*
X377249Y100665D01*
Y98333D01*
X376083Y97166D01*
X371417Y94834D02*
X370251Y93667D01*
Y91335D01*
X371417Y90169D01*
X372584D01*
X373750Y91335D01*
X374916Y90169D01*
X376083D01*
X377249Y91335D01*
Y93667D01*
X376083Y94834D01*
X374916D01*
X373750Y93667D01*
X372584Y94834D01*
X371417D01*
X373750Y93667D02*
Y91335D01*
X375083Y127584D02*
X376249Y126417D01*
Y124085D01*
X375083Y122919D01*
X370417D01*
X369251Y124085D01*
Y126417D01*
X370417Y127584D01*
X376249Y134581D02*
X375083Y132249D01*
X372750Y129916D01*
X370417D01*
X369251Y131083D01*
Y133415D01*
X370417Y134581D01*
X371584D01*
X372750Y133415D01*
Y129916D01*
X374583Y160334D02*
X375749Y159167D01*
Y156835D01*
X374583Y155668D01*
X369917D01*
X368751Y156835D01*
Y159167D01*
X369917Y160334D01*
X375749Y167331D02*
Y162666D01*
X372250D01*
X373416Y164999D01*
Y166165D01*
X372250Y167331D01*
X369917D01*
X368751Y166165D01*
Y163832D01*
X369917Y162666D01*
X239916Y338333D02*
X241083Y339499D01*
X243415D01*
X244582Y338333D01*
Y333667D01*
X243415Y332501D01*
X241083D01*
X239916Y333667D01*
X232918Y332501D02*
X237584D01*
X232918Y337166D01*
Y338333D01*
X234085Y339499D01*
X236417D01*
X237584Y338333D01*
X238250Y355583D02*
X239416Y356749D01*
X241749D01*
X242915Y355583D01*
Y350917D01*
X241749Y349751D01*
X239416D01*
X238250Y350917D01*
X235917Y349751D02*
X233585D01*
X234751D01*
Y356749D01*
X235917Y355583D01*
M02*
