G04*
G04 #@! TF.GenerationSoftware,Altium Limited,Altium NEXUS,4.0.7 (54)*
G04*
G04 Layer_Physical_Order=2*
G04 Layer_Color=16711680*
%FSLAX44Y44*%
%MOMM*%
G71*
G04*
G04 #@! TF.SameCoordinates,2F636ACE-6931-4982-A4A6-23C36C612785*
G04*
G04*
G04 #@! TF.FilePolarity,Positive*
G04*
G01*
G75*
%ADD17C,0.1600*%
G04:AMPARAMS|DCode=18|XSize=0.889mm|YSize=0.889mm|CornerRadius=0.1111mm|HoleSize=0mm|Usage=FLASHONLY|Rotation=180.000|XOffset=0mm|YOffset=0mm|HoleType=Round|Shape=RoundedRectangle|*
%AMROUNDEDRECTD18*
21,1,0.8890,0.6668,0,0,180.0*
21,1,0.6668,0.8890,0,0,180.0*
1,1,0.2223,-0.3334,0.3334*
1,1,0.2223,0.3334,0.3334*
1,1,0.2223,0.3334,-0.3334*
1,1,0.2223,-0.3334,-0.3334*
%
%ADD18ROUNDEDRECTD18*%
G04:AMPARAMS|DCode=19|XSize=0.889mm|YSize=0.889mm|CornerRadius=0.1111mm|HoleSize=0mm|Usage=FLASHONLY|Rotation=270.000|XOffset=0mm|YOffset=0mm|HoleType=Round|Shape=RoundedRectangle|*
%AMROUNDEDRECTD19*
21,1,0.8890,0.6668,0,0,270.0*
21,1,0.6668,0.8890,0,0,270.0*
1,1,0.2223,-0.3334,-0.3334*
1,1,0.2223,-0.3334,0.3334*
1,1,0.2223,0.3334,0.3334*
1,1,0.2223,0.3334,-0.3334*
%
%ADD19ROUNDEDRECTD19*%
G04:AMPARAMS|DCode=23|XSize=0.889mm|YSize=0.889mm|CornerRadius=0.1111mm|HoleSize=0mm|Usage=FLASHONLY|Rotation=315.000|XOffset=0mm|YOffset=0mm|HoleType=Round|Shape=RoundedRectangle|*
%AMROUNDEDRECTD23*
21,1,0.8890,0.6668,0,0,315.0*
21,1,0.6668,0.8890,0,0,315.0*
1,1,0.2223,0.0000,-0.4715*
1,1,0.2223,-0.4715,0.0000*
1,1,0.2223,0.0000,0.4715*
1,1,0.2223,0.4715,0.0000*
%
%ADD23ROUNDEDRECTD23*%
%ADD37C,0.5000*%
%ADD38C,1.5000*%
%ADD39R,1.5000X1.5000*%
%ADD40O,1.5000X2.0000*%
%ADD41R,1.5000X2.0000*%
%ADD42C,1.3208*%
%ADD43C,1.6500*%
%ADD44R,1.6500X1.6500*%
%ADD45C,0.6000*%
G04:AMPARAMS|DCode=46|XSize=0.6mm|YSize=0.8mm|CornerRadius=0mm|HoleSize=0mm|Usage=FLASHONLY|Rotation=225.000|XOffset=0mm|YOffset=0mm|HoleType=Round|Shape=Rectangle|*
%AMROTATEDRECTD46*
4,1,4,-0.0707,0.4950,0.4950,-0.0707,0.0707,-0.4950,-0.4950,0.0707,-0.0707,0.4950,0.0*
%
%ADD46ROTATEDRECTD46*%

G04:AMPARAMS|DCode=47|XSize=0.65mm|YSize=1.65mm|CornerRadius=0.0488mm|HoleSize=0mm|Usage=FLASHONLY|Rotation=90.000|XOffset=0mm|YOffset=0mm|HoleType=Round|Shape=RoundedRectangle|*
%AMROUNDEDRECTD47*
21,1,0.6500,1.5525,0,0,90.0*
21,1,0.5525,1.6500,0,0,90.0*
1,1,0.0975,0.7763,0.2763*
1,1,0.0975,0.7763,-0.2763*
1,1,0.0975,-0.7763,-0.2763*
1,1,0.0975,-0.7763,0.2763*
%
%ADD47ROUNDEDRECTD47*%
G04:AMPARAMS|DCode=48|XSize=0.889mm|YSize=0.889mm|CornerRadius=0.1111mm|HoleSize=0mm|Usage=FLASHONLY|Rotation=45.000|XOffset=0mm|YOffset=0mm|HoleType=Round|Shape=RoundedRectangle|*
%AMROUNDEDRECTD48*
21,1,0.8890,0.6668,0,0,45.0*
21,1,0.6668,0.8890,0,0,45.0*
1,1,0.2223,0.4715,0.0000*
1,1,0.2223,0.0000,-0.4715*
1,1,0.2223,-0.4715,0.0000*
1,1,0.2223,0.0000,0.4715*
%
%ADD48ROUNDEDRECTD48*%
G36*
X451820Y4180D02*
X4180D01*
Y427820D01*
X451820D01*
Y4180D01*
D02*
G37*
%LPC*%
G36*
X247250Y425690D02*
X245455Y425333D01*
X243934Y424316D01*
X242917Y422795D01*
X242596Y421183D01*
X242003Y420840D01*
X241335Y420648D01*
X239027Y422956D01*
X237671Y423862D01*
X236071Y424180D01*
X100500D01*
X98900Y423862D01*
X97544Y422956D01*
X85443Y410855D01*
X83624Y410616D01*
X81411Y409699D01*
X79510Y408240D01*
X78051Y406339D01*
X77134Y404126D01*
X76821Y401750D01*
Y396750D01*
X77134Y394374D01*
X78051Y392161D01*
X79510Y390260D01*
X81411Y388801D01*
X83624Y387884D01*
X86000Y387571D01*
X88376Y387884D01*
X90589Y388801D01*
X92490Y390260D01*
X93949Y392161D01*
X94866Y394374D01*
X95178Y396750D01*
Y401750D01*
X94866Y404126D01*
X93949Y406339D01*
X93429Y407017D01*
X102232Y415820D01*
X234339D01*
X243483Y406676D01*
X242634Y404626D01*
X242321Y402250D01*
Y397250D01*
X242634Y394874D01*
X243551Y392661D01*
X245010Y390760D01*
X246911Y389301D01*
X249124Y388384D01*
X250830Y388160D01*
Y361680D01*
X250618Y361638D01*
X249722Y361039D01*
X249122Y360142D01*
X248912Y359084D01*
Y352416D01*
X249122Y351358D01*
X249722Y350462D01*
X250618Y349862D01*
X250830Y349820D01*
Y345930D01*
X250618Y345888D01*
X249722Y345289D01*
X249122Y344392D01*
X248912Y343334D01*
Y339814D01*
X209387Y300289D01*
X208481Y298933D01*
X208163Y297333D01*
Y275332D01*
X205838Y273007D01*
X206842Y272003D01*
X164294Y229456D01*
X163388Y228100D01*
X163070Y226500D01*
Y203500D01*
X163388Y201900D01*
X164294Y200544D01*
X167274Y197564D01*
X166843Y196920D01*
X166633Y195862D01*
X166843Y194804D01*
X167442Y193907D01*
X172157Y189193D01*
X173054Y188593D01*
X174112Y188383D01*
X175170Y188593D01*
X175349Y188713D01*
X198975Y165087D01*
Y114636D01*
X113769Y29430D01*
X91524D01*
X91295Y29583D01*
X89500Y29940D01*
X87705Y29583D01*
X86184Y28566D01*
X85167Y27045D01*
X84810Y25250D01*
X85167Y23455D01*
X86184Y21934D01*
X87705Y20917D01*
X89500Y20560D01*
X91295Y20917D01*
X91524Y21070D01*
X115500D01*
X117100Y21388D01*
X118456Y22294D01*
X206111Y109949D01*
X207017Y111305D01*
X207335Y112905D01*
Y166819D01*
X207017Y168418D01*
X206111Y169775D01*
X185377Y190508D01*
X185863Y191681D01*
X225657D01*
X255152Y162186D01*
Y158666D01*
X255362Y157608D01*
X255961Y156712D01*
X256858Y156112D01*
X257916Y155902D01*
X264584D01*
X265642Y156112D01*
X266539Y156712D01*
X267138Y157608D01*
X267180Y157820D01*
X276300D01*
X277504Y158059D01*
X290012D01*
X290827Y158221D01*
X291518Y158682D01*
X291979Y159373D01*
X292141Y160187D01*
Y165713D01*
X291979Y166527D01*
X291771Y166838D01*
X292758Y167648D01*
X295379Y165026D01*
Y123740D01*
X293363Y121724D01*
X292642Y121938D01*
X292141Y122298D01*
Y127612D01*
X291979Y128427D01*
X291518Y129117D01*
X290827Y129579D01*
X290012Y129741D01*
X274698D01*
X274338Y130242D01*
X274124Y130963D01*
X275820Y132659D01*
X290012D01*
X290827Y132821D01*
X291518Y133282D01*
X291979Y133973D01*
X292141Y134788D01*
Y140312D01*
X291979Y141127D01*
X291518Y141818D01*
X290827Y142279D01*
X290012Y142441D01*
X274487D01*
X273673Y142279D01*
X272983Y141818D01*
X272521Y141127D01*
X272359Y140312D01*
Y136120D01*
X196770Y60530D01*
X196239Y59736D01*
X196053Y58800D01*
Y43586D01*
X193911Y42699D01*
X192010Y41240D01*
X190551Y39339D01*
X189634Y37126D01*
X189321Y34750D01*
X189634Y32374D01*
X190551Y30161D01*
X192010Y28260D01*
X193911Y26801D01*
X196124Y25884D01*
X198500Y25571D01*
X200875Y25884D01*
X203089Y26801D01*
X204990Y28260D01*
X206449Y30161D01*
X207366Y32374D01*
X207679Y34750D01*
X207366Y37126D01*
X206449Y39339D01*
X204990Y41240D01*
X203089Y42699D01*
X200947Y43586D01*
Y57786D01*
X271136Y127976D01*
X271858Y127762D01*
X272359Y127402D01*
Y123420D01*
X221770Y72830D01*
X221239Y72036D01*
X221053Y71100D01*
Y43586D01*
X218911Y42699D01*
X217010Y41240D01*
X215551Y39339D01*
X214634Y37126D01*
X214321Y34750D01*
X214634Y32374D01*
X215551Y30161D01*
X217010Y28260D01*
X218911Y26801D01*
X221124Y25884D01*
X223500Y25571D01*
X225875Y25884D01*
X228089Y26801D01*
X229990Y28260D01*
X231449Y30161D01*
X232366Y32374D01*
X232679Y34750D01*
X232366Y37126D01*
X231449Y39339D01*
X229990Y41240D01*
X228089Y42699D01*
X225947Y43586D01*
Y70086D01*
X271136Y115276D01*
X271858Y115062D01*
X272359Y114703D01*
Y109388D01*
X272521Y108573D01*
X272983Y107882D01*
X273673Y107421D01*
X274487Y107259D01*
X289802D01*
X290161Y106758D01*
X290376Y106037D01*
X288680Y104341D01*
X274487D01*
X273673Y104179D01*
X272983Y103717D01*
X272521Y103027D01*
X272359Y102212D01*
Y96687D01*
X272521Y95873D01*
X272983Y95183D01*
X273673Y94721D01*
X274487Y94559D01*
X290012D01*
X290827Y94721D01*
X291518Y95183D01*
X291979Y95873D01*
X292141Y96687D01*
Y100880D01*
X303680Y112420D01*
X304211Y113214D01*
X304397Y114150D01*
Y169552D01*
X304211Y170489D01*
X303680Y171283D01*
X252321Y222642D01*
X251528Y223172D01*
X250591Y223358D01*
X250102D01*
X248486Y224974D01*
X248690Y226000D01*
X248333Y227795D01*
X247316Y229316D01*
X245795Y230333D01*
X244000Y230690D01*
X242205Y230333D01*
X240684Y229316D01*
X239667Y227795D01*
X239310Y226000D01*
X239667Y224205D01*
X240684Y222684D01*
X242205Y221667D01*
X244000Y221310D01*
X245026Y221514D01*
X246808Y219731D01*
X246752Y218236D01*
X246672Y218112D01*
X246121Y217744D01*
X245105Y216223D01*
X244748Y214428D01*
X245105Y212633D01*
X246121Y211112D01*
X247643Y210095D01*
X249438Y209738D01*
X250463Y209942D01*
X291947Y168458D01*
X291138Y167471D01*
X290827Y167679D01*
X290012Y167841D01*
X274487D01*
X273673Y167679D01*
X272983Y167218D01*
X272521Y166527D01*
X272452Y166180D01*
X267180D01*
X267138Y166392D01*
X266539Y167288D01*
X265642Y167888D01*
X264584Y168098D01*
X261064D01*
X230344Y198818D01*
X228988Y199724D01*
X227388Y200042D01*
X178556D01*
X176067Y202531D01*
X175170Y203130D01*
X174112Y203341D01*
X173452Y203210D01*
X171430Y205232D01*
Y224769D01*
X212753Y266092D01*
X213757Y265088D01*
X214254Y265584D01*
X252544Y227294D01*
X253900Y226388D01*
X255500Y226070D01*
X282500D01*
X283757Y226320D01*
X295249D01*
X295505Y226371D01*
X297045Y224831D01*
X297942Y224231D01*
X299000Y224021D01*
X300058Y224231D01*
X300237Y224351D01*
X310555Y214033D01*
Y182986D01*
X310344Y182944D01*
X309447Y182345D01*
X308848Y181448D01*
X308638Y180390D01*
Y173722D01*
X308848Y172665D01*
X309447Y171768D01*
X310344Y171168D01*
X311402Y170958D01*
X318069D01*
X319127Y171168D01*
X320024Y171768D01*
X320623Y172665D01*
X320834Y173722D01*
Y180390D01*
X320623Y181448D01*
X320024Y182345D01*
X319127Y182944D01*
X318916Y182986D01*
Y215764D01*
X318598Y217364D01*
X317691Y218720D01*
X306149Y230263D01*
X306269Y230442D01*
X306479Y231500D01*
X306269Y232558D01*
X305669Y233455D01*
X300955Y238169D01*
X300058Y238769D01*
X299000Y238979D01*
X297942Y238769D01*
X297045Y238169D01*
X295002Y236126D01*
X294886Y236049D01*
X293518Y234680D01*
X282750D01*
X281493Y234430D01*
X257232D01*
X228160Y263502D01*
X228786Y264672D01*
X229350Y264560D01*
X231145Y264917D01*
X232666Y265934D01*
X233247Y266803D01*
X298250D01*
X299186Y266989D01*
X299980Y267520D01*
X372232Y339772D01*
X374374Y338884D01*
X376750Y338572D01*
X379126Y338884D01*
X381339Y339801D01*
X383240Y341260D01*
X384699Y343161D01*
X385616Y345374D01*
X385928Y347750D01*
X385616Y350126D01*
X384699Y352339D01*
X383240Y354240D01*
X381339Y355699D01*
X379197Y356586D01*
Y369652D01*
X380704D01*
X381762Y369862D01*
X382659Y370462D01*
X383258Y371358D01*
X383468Y372416D01*
Y379084D01*
X383258Y380142D01*
X382659Y381039D01*
X381762Y381638D01*
X380704Y381848D01*
X374613D01*
X372622Y383839D01*
X373248Y385009D01*
X373786Y384902D01*
X380454D01*
X381512Y385112D01*
X382408Y385712D01*
X383008Y386608D01*
X383218Y387666D01*
Y389370D01*
X383517Y389570D01*
X393750D01*
X395350Y389888D01*
X396706Y390794D01*
X402641Y396730D01*
X403429Y396404D01*
X406000Y396065D01*
X408571Y396404D01*
X410967Y397396D01*
X413025Y398975D01*
X414604Y401032D01*
X415597Y403429D01*
X415935Y406000D01*
X415597Y408571D01*
X414604Y410968D01*
X413025Y413025D01*
X410967Y414604D01*
X408571Y415597D01*
X406000Y415935D01*
X403429Y415597D01*
X401032Y414604D01*
X398975Y413025D01*
X397396Y410968D01*
X396404Y408571D01*
X396065Y406000D01*
X396404Y403429D01*
X396730Y402641D01*
X392019Y397930D01*
X381994D01*
X380394Y397612D01*
X379666Y397125D01*
X379065D01*
X378928Y397098D01*
X373786D01*
X372728Y396888D01*
X371832Y396288D01*
X371232Y395392D01*
X371022Y394334D01*
Y387666D01*
X371129Y387128D01*
X369959Y386502D01*
X367978Y388483D01*
Y394334D01*
X367768Y395392D01*
X367169Y396288D01*
X366272Y396888D01*
X366166Y396909D01*
X365747Y398287D01*
X372232Y404772D01*
X374374Y403884D01*
X376750Y403572D01*
X379126Y403884D01*
X381339Y404801D01*
X383240Y406260D01*
X384699Y408161D01*
X385616Y410374D01*
X385928Y412750D01*
X385616Y415126D01*
X384699Y417339D01*
X383240Y419240D01*
X381339Y420699D01*
X379126Y421616D01*
X376750Y421928D01*
X374374Y421616D01*
X372161Y420699D01*
X370260Y419240D01*
X368801Y417339D01*
X367914Y415197D01*
X356350D01*
X347167Y424380D01*
X346373Y424911D01*
X345437Y425097D01*
X250091D01*
X249557Y424991D01*
X249045Y425333D01*
X247250Y425690D01*
D02*
G37*
G36*
X442190Y416790D02*
X432670D01*
Y407270D01*
X442190D01*
Y416790D01*
D02*
G37*
G36*
X430130D02*
X420610D01*
Y407270D01*
X430130D01*
Y416790D01*
D02*
G37*
G36*
X112270Y411709D02*
Y400520D01*
X121127D01*
Y401750D01*
X120782Y404371D01*
X119770Y406813D01*
X118161Y408911D01*
X116063Y410520D01*
X113621Y411532D01*
X112270Y411709D01*
D02*
G37*
G36*
X109730Y411710D02*
X108379Y411532D01*
X105937Y410520D01*
X103839Y408911D01*
X102230Y406813D01*
X101218Y404371D01*
X100873Y401750D01*
Y400520D01*
X109730D01*
Y411710D01*
D02*
G37*
G36*
X442190Y404730D02*
X432670D01*
Y395210D01*
X442190D01*
Y404730D01*
D02*
G37*
G36*
X430130D02*
X420610D01*
Y395210D01*
X430130D01*
Y404730D01*
D02*
G37*
G36*
X220100Y410850D02*
X201900D01*
Y387650D01*
X220100D01*
Y410850D01*
D02*
G37*
G36*
X186000Y410928D02*
X183624Y410616D01*
X181411Y409699D01*
X179510Y408240D01*
X178051Y406339D01*
X177134Y404126D01*
X176821Y401750D01*
Y396750D01*
X177134Y394374D01*
X178051Y392161D01*
X179510Y390260D01*
X181411Y388801D01*
X183624Y387884D01*
X186000Y387571D01*
X188376Y387884D01*
X190589Y388801D01*
X192490Y390260D01*
X193949Y392161D01*
X194866Y394374D01*
X195179Y396750D01*
Y401750D01*
X194866Y404126D01*
X193949Y406339D01*
X192490Y408240D01*
X190589Y409699D01*
X188376Y410616D01*
X186000Y410928D01*
D02*
G37*
G36*
X121127Y397980D02*
X112270D01*
Y386791D01*
X113621Y386968D01*
X116063Y387980D01*
X118161Y389589D01*
X119770Y391687D01*
X120782Y394129D01*
X121127Y396750D01*
Y397980D01*
D02*
G37*
G36*
X109730D02*
X100873D01*
Y396750D01*
X101218Y394129D01*
X102230Y391687D01*
X103839Y389589D01*
X105937Y387980D01*
X108379Y386968D01*
X109730Y386791D01*
Y397980D01*
D02*
G37*
G36*
X232000Y385690D02*
X230205Y385333D01*
X228684Y384316D01*
X227667Y382795D01*
X227310Y381000D01*
X227514Y379975D01*
X226486Y378947D01*
X183353D01*
X183333Y379045D01*
X182316Y380566D01*
X180795Y381583D01*
X179000Y381940D01*
X177205Y381583D01*
X175684Y380566D01*
X174667Y379045D01*
X174310Y377250D01*
X174667Y375455D01*
X175684Y373934D01*
X177205Y372917D01*
X179000Y372560D01*
X180795Y372917D01*
X182316Y373934D01*
X182396Y374053D01*
X227500D01*
X228436Y374239D01*
X229230Y374770D01*
X230974Y376514D01*
X232000Y376310D01*
X233795Y376667D01*
X235316Y377684D01*
X236333Y379205D01*
X236690Y381000D01*
X236333Y382795D01*
X235316Y384316D01*
X233795Y385333D01*
X232000Y385690D01*
D02*
G37*
G36*
X161000Y410928D02*
X158624Y410616D01*
X156411Y409699D01*
X154510Y408240D01*
X153051Y406339D01*
X152134Y404126D01*
X151821Y401750D01*
Y396750D01*
X152134Y394374D01*
X153051Y392161D01*
X154510Y390260D01*
X156411Y388801D01*
X157803Y388224D01*
Y377246D01*
X156626Y376606D01*
X156533Y376620D01*
X155566Y378066D01*
X154045Y379083D01*
X152250Y379440D01*
X151519Y379295D01*
X142076Y388738D01*
X142159Y390005D01*
X142490Y390260D01*
X143949Y392161D01*
X144866Y394374D01*
X145178Y396750D01*
Y401750D01*
X144866Y404126D01*
X143949Y406339D01*
X142490Y408240D01*
X140589Y409699D01*
X138376Y410616D01*
X136000Y410928D01*
X133624Y410616D01*
X131411Y409699D01*
X129510Y408240D01*
X128051Y406339D01*
X127134Y404126D01*
X126821Y401750D01*
Y396750D01*
X127134Y394374D01*
X128051Y392161D01*
X129510Y390260D01*
X131411Y388801D01*
X133624Y387884D01*
X136000Y387571D01*
X136284Y387609D01*
X147823Y376070D01*
X147560Y374750D01*
X147917Y372955D01*
X148934Y371434D01*
X150455Y370417D01*
X152250Y370060D01*
X154045Y370417D01*
X155566Y371434D01*
X156533Y372880D01*
X156626Y372894D01*
X157803Y372254D01*
Y371000D01*
X157989Y370064D01*
X158520Y369270D01*
X159303Y368486D01*
Y363000D01*
X159489Y362064D01*
X160020Y361270D01*
X170803Y350486D01*
Y250897D01*
X169934Y250316D01*
X168917Y248795D01*
X168560Y247000D01*
X168917Y245205D01*
X169934Y243684D01*
X171455Y242667D01*
X173250Y242310D01*
X175045Y242667D01*
X176566Y243684D01*
X177583Y245205D01*
X177940Y247000D01*
X177583Y248795D01*
X176566Y250316D01*
X175697Y250897D01*
Y351500D01*
X175511Y352436D01*
X174980Y353230D01*
X164197Y364014D01*
Y369500D01*
X164011Y370436D01*
X163480Y371230D01*
X162697Y372014D01*
Y387795D01*
X163376Y387884D01*
X165589Y388801D01*
X167490Y390260D01*
X168949Y392161D01*
X169866Y394374D01*
X170179Y396750D01*
Y401750D01*
X169866Y404126D01*
X168949Y406339D01*
X167490Y408240D01*
X165589Y409699D01*
X163376Y410616D01*
X161000Y410928D01*
D02*
G37*
G36*
X431400Y390535D02*
X428829Y390196D01*
X426432Y389204D01*
X424375Y387625D01*
X422796Y385568D01*
X421804Y383171D01*
X421465Y380600D01*
X421804Y378029D01*
X422796Y375633D01*
X424375Y373575D01*
X426432Y371996D01*
X428829Y371004D01*
X431400Y370665D01*
X433971Y371004D01*
X436367Y371996D01*
X438425Y373575D01*
X440004Y375633D01*
X440997Y378029D01*
X441335Y380600D01*
X440997Y383171D01*
X440004Y385568D01*
X438425Y387625D01*
X436367Y389204D01*
X433971Y390196D01*
X431400Y390535D01*
D02*
G37*
G36*
X406000D02*
X403429Y390196D01*
X401032Y389204D01*
X398975Y387625D01*
X397396Y385568D01*
X396404Y383171D01*
X396065Y380600D01*
X396404Y378029D01*
X397396Y375633D01*
X398975Y373575D01*
X401032Y371996D01*
X403429Y371004D01*
X406000Y370665D01*
X408571Y371004D01*
X410967Y371996D01*
X413025Y373575D01*
X414604Y375633D01*
X415597Y378029D01*
X415935Y380600D01*
X415597Y383171D01*
X414604Y385568D01*
X413025Y387625D01*
X410967Y389204D01*
X408571Y390196D01*
X406000Y390535D01*
D02*
G37*
G36*
X50400D02*
X47829Y390196D01*
X45433Y389204D01*
X43375Y387625D01*
X41796Y385568D01*
X40804Y383171D01*
X40465Y380600D01*
X40804Y378029D01*
X41796Y375633D01*
X43375Y373575D01*
X45433Y371996D01*
X47829Y371004D01*
X50400Y370665D01*
X52971Y371004D01*
X55367Y371996D01*
X57425Y373575D01*
X59004Y375633D01*
X59997Y378029D01*
X60335Y380600D01*
X59997Y383171D01*
X59004Y385568D01*
X57425Y387625D01*
X55367Y389204D01*
X52971Y390196D01*
X50400Y390535D01*
D02*
G37*
G36*
X25000D02*
X22429Y390196D01*
X20032Y389204D01*
X17975Y387625D01*
X16396Y385568D01*
X15404Y383171D01*
X15065Y380600D01*
X15404Y378029D01*
X16396Y375633D01*
X17975Y373575D01*
X20032Y371996D01*
X22429Y371004D01*
X25000Y370665D01*
X27571Y371004D01*
X29968Y371996D01*
X32025Y373575D01*
X33604Y375633D01*
X34597Y378029D01*
X34935Y380600D01*
X34597Y383171D01*
X33604Y385568D01*
X32025Y387625D01*
X29968Y389204D01*
X27571Y390196D01*
X25000Y390535D01*
D02*
G37*
G36*
Y415935D02*
X22429Y415597D01*
X20032Y414604D01*
X17975Y413025D01*
X16396Y410967D01*
X15404Y408571D01*
X15065Y406000D01*
X15404Y403429D01*
X16396Y401032D01*
X17975Y398975D01*
X20032Y397396D01*
X22429Y396404D01*
X25000Y396065D01*
X27571Y396404D01*
X29968Y397396D01*
X30067Y397472D01*
X33920Y393620D01*
X34713Y393089D01*
X35650Y392903D01*
X62386D01*
X84520Y370770D01*
X85314Y370239D01*
X86250Y370053D01*
X134853D01*
X135434Y369184D01*
X136955Y368167D01*
X138750Y367810D01*
X140545Y368167D01*
X142066Y369184D01*
X143083Y370705D01*
X143440Y372500D01*
X143083Y374295D01*
X142066Y375816D01*
X140545Y376833D01*
X138750Y377190D01*
X136955Y376833D01*
X135434Y375816D01*
X134853Y374947D01*
X87264D01*
X65130Y397080D01*
X64336Y397611D01*
X63400Y397797D01*
X60250D01*
Y415850D01*
X40550D01*
Y397797D01*
X36664D01*
X33528Y400933D01*
X33604Y401032D01*
X34597Y403429D01*
X34935Y406000D01*
X34597Y408571D01*
X33604Y410967D01*
X32025Y413025D01*
X29968Y414604D01*
X27571Y415597D01*
X25000Y415935D01*
D02*
G37*
G36*
X175000Y367690D02*
X173205Y367333D01*
X171684Y366316D01*
X170667Y364795D01*
X170310Y363000D01*
X170667Y361205D01*
X171684Y359684D01*
X173205Y358667D01*
X175000Y358310D01*
X176795Y358667D01*
X178316Y359684D01*
X178897Y360553D01*
X208586D01*
X209810Y360250D01*
X210167Y358455D01*
X211184Y356934D01*
X212705Y355917D01*
X214500Y355560D01*
X216295Y355917D01*
X217816Y356934D01*
X218833Y358455D01*
X219190Y360250D01*
X218833Y362045D01*
X217816Y363566D01*
X216295Y364583D01*
X214500Y364940D01*
X212705Y364583D01*
X212544Y364476D01*
X212290Y364730D01*
X211496Y365261D01*
X210559Y365447D01*
X178897D01*
X178316Y366316D01*
X176795Y367333D01*
X175000Y367690D01*
D02*
G37*
G36*
X25000Y365135D02*
X22429Y364796D01*
X20032Y363804D01*
X17975Y362225D01*
X16396Y360168D01*
X15404Y357771D01*
X15065Y355200D01*
X15404Y352629D01*
X16396Y350233D01*
X17975Y348175D01*
X20032Y346596D01*
X22429Y345604D01*
X25000Y345265D01*
X27571Y345604D01*
X29968Y346596D01*
X32025Y348175D01*
X33604Y350233D01*
X34597Y352629D01*
X34935Y355200D01*
X34597Y357771D01*
X33604Y360168D01*
X32025Y362225D01*
X29968Y363804D01*
X27571Y364796D01*
X25000Y365135D01*
D02*
G37*
G36*
X431400Y365135D02*
X428829Y364796D01*
X426432Y363804D01*
X424375Y362225D01*
X422796Y360168D01*
X421804Y357771D01*
X421465Y355200D01*
X421804Y352629D01*
X422796Y350233D01*
X424375Y348175D01*
X426432Y346596D01*
X428829Y345604D01*
X431400Y345265D01*
X433971Y345604D01*
X436367Y346596D01*
X438425Y348175D01*
X440004Y350233D01*
X440997Y352629D01*
X441335Y355200D01*
X440997Y357771D01*
X440004Y360168D01*
X438425Y362225D01*
X436367Y363804D01*
X433971Y364796D01*
X431400Y365135D01*
D02*
G37*
G36*
X406000D02*
X403429Y364796D01*
X401032Y363804D01*
X398975Y362225D01*
X397396Y360168D01*
X396404Y357771D01*
X396065Y355200D01*
X396404Y352629D01*
X397396Y350233D01*
X398975Y348175D01*
X401032Y346596D01*
X403429Y345604D01*
X406000Y345265D01*
X408571Y345604D01*
X410967Y346596D01*
X413025Y348175D01*
X414604Y350233D01*
X415597Y352629D01*
X415935Y355200D01*
X415597Y357771D01*
X414604Y360168D01*
X413025Y362225D01*
X410967Y363804D01*
X408571Y364796D01*
X406000Y365135D01*
D02*
G37*
G36*
X50400D02*
X47829Y364796D01*
X45433Y363804D01*
X43375Y362225D01*
X41796Y360168D01*
X40803Y357771D01*
X40465Y355200D01*
X40803Y352629D01*
X41796Y350233D01*
X43375Y348175D01*
X45433Y346596D01*
X47829Y345604D01*
X50400Y345265D01*
X52971Y345604D01*
X55367Y346596D01*
X57425Y348175D01*
X59004Y350233D01*
X59996Y352629D01*
X60335Y355200D01*
X59996Y357771D01*
X59004Y360168D01*
X57425Y362225D01*
X55367Y363804D01*
X52971Y364796D01*
X50400Y365135D01*
D02*
G37*
G36*
X50400Y339735D02*
X47829Y339397D01*
X45433Y338404D01*
X43375Y336825D01*
X41796Y334767D01*
X40803Y332371D01*
X40465Y329800D01*
X40803Y327229D01*
X41796Y324833D01*
X43375Y322775D01*
X45433Y321196D01*
X47829Y320204D01*
X50400Y319865D01*
X52971Y320204D01*
X55367Y321196D01*
X57425Y322775D01*
X59004Y324833D01*
X59996Y327229D01*
X60335Y329800D01*
X59996Y332371D01*
X59004Y334767D01*
X57425Y336825D01*
X55367Y338404D01*
X52971Y339397D01*
X50400Y339735D01*
D02*
G37*
G36*
X406000Y339735D02*
X403429Y339397D01*
X401032Y338404D01*
X398975Y336825D01*
X397396Y334767D01*
X396404Y332371D01*
X396065Y329800D01*
X396404Y327229D01*
X397396Y324832D01*
X398975Y322775D01*
X401032Y321196D01*
X403429Y320204D01*
X406000Y319865D01*
X408571Y320204D01*
X410967Y321196D01*
X413025Y322775D01*
X414604Y324832D01*
X415597Y327229D01*
X415935Y329800D01*
X415597Y332371D01*
X414604Y334767D01*
X413025Y336825D01*
X410967Y338404D01*
X408571Y339397D01*
X406000Y339735D01*
D02*
G37*
G36*
X431400Y339735D02*
X428829Y339396D01*
X426432Y338404D01*
X424375Y336825D01*
X422796Y334767D01*
X421804Y332371D01*
X421465Y329800D01*
X421804Y327229D01*
X422796Y324832D01*
X424375Y322775D01*
X426432Y321196D01*
X428829Y320204D01*
X431400Y319865D01*
X433971Y320204D01*
X436367Y321196D01*
X438425Y322775D01*
X440004Y324832D01*
X440997Y327229D01*
X441335Y329800D01*
X440997Y332371D01*
X440004Y334767D01*
X438425Y336825D01*
X436367Y338404D01*
X433971Y339396D01*
X431400Y339735D01*
D02*
G37*
G36*
X25000D02*
X22429Y339396D01*
X20032Y338404D01*
X17975Y336825D01*
X16396Y334767D01*
X15404Y332371D01*
X15065Y329800D01*
X15404Y327229D01*
X16396Y324832D01*
X17975Y322775D01*
X20032Y321196D01*
X22429Y320204D01*
X25000Y319865D01*
X27571Y320204D01*
X29968Y321196D01*
X32025Y322775D01*
X33604Y324832D01*
X34597Y327229D01*
X34935Y329800D01*
X34597Y332371D01*
X33604Y334767D01*
X32025Y336825D01*
X29968Y338404D01*
X27571Y339396D01*
X25000Y339735D01*
D02*
G37*
G36*
Y314335D02*
X22429Y313997D01*
X20033Y313004D01*
X17975Y311425D01*
X16396Y309368D01*
X15404Y306971D01*
X15065Y304400D01*
X15404Y301829D01*
X16396Y299433D01*
X17975Y297375D01*
X20033Y295796D01*
X22429Y294804D01*
X25000Y294465D01*
X27571Y294804D01*
X29968Y295796D01*
X32025Y297375D01*
X33604Y299433D01*
X34597Y301829D01*
X34935Y304400D01*
X34597Y306971D01*
X33604Y309368D01*
X32025Y311425D01*
X29968Y313004D01*
X27571Y313997D01*
X25000Y314335D01*
D02*
G37*
G36*
X431400Y314335D02*
X428829Y313996D01*
X426432Y313004D01*
X424375Y311425D01*
X422796Y309368D01*
X421804Y306971D01*
X421465Y304400D01*
X421804Y301829D01*
X422796Y299433D01*
X424375Y297375D01*
X426432Y295796D01*
X428829Y294804D01*
X431400Y294465D01*
X433971Y294804D01*
X436367Y295796D01*
X438425Y297375D01*
X440004Y299433D01*
X440996Y301829D01*
X441335Y304400D01*
X440996Y306971D01*
X440004Y309368D01*
X438425Y311425D01*
X436367Y313004D01*
X433971Y313996D01*
X431400Y314335D01*
D02*
G37*
G36*
X406000D02*
X403429Y313996D01*
X401032Y313004D01*
X398975Y311425D01*
X397396Y309368D01*
X396404Y306971D01*
X396065Y304400D01*
X396404Y301829D01*
X397396Y299433D01*
X398975Y297375D01*
X401032Y295796D01*
X403429Y294804D01*
X406000Y294465D01*
X408571Y294804D01*
X410967Y295796D01*
X413025Y297375D01*
X414604Y299433D01*
X415597Y301829D01*
X415935Y304400D01*
X415597Y306971D01*
X414604Y309368D01*
X413025Y311425D01*
X410967Y313004D01*
X408571Y313996D01*
X406000Y314335D01*
D02*
G37*
G36*
X50400D02*
X47829Y313996D01*
X45432Y313004D01*
X43375Y311425D01*
X41796Y309368D01*
X40803Y306971D01*
X40465Y304400D01*
X40803Y301829D01*
X41796Y299433D01*
X43375Y297375D01*
X45432Y295796D01*
X47829Y294804D01*
X50400Y294465D01*
X52971Y294804D01*
X55367Y295796D01*
X57425Y297375D01*
X59004Y299433D01*
X59996Y301829D01*
X60335Y304400D01*
X59996Y306971D01*
X59004Y309368D01*
X57425Y311425D01*
X55367Y313004D01*
X52971Y313996D01*
X50400Y314335D01*
D02*
G37*
G36*
X432670Y289716D02*
Y280270D01*
X442116D01*
X441912Y281817D01*
X440825Y284442D01*
X439095Y286695D01*
X436842Y288425D01*
X434217Y289512D01*
X432670Y289716D01*
D02*
G37*
G36*
X430130D02*
X428583Y289512D01*
X425959Y288425D01*
X423704Y286695D01*
X421975Y284442D01*
X420888Y281817D01*
X420684Y280270D01*
X430130D01*
Y289716D01*
D02*
G37*
G36*
X406000Y288935D02*
X403429Y288596D01*
X401032Y287604D01*
X398975Y286025D01*
X397396Y283967D01*
X396404Y281571D01*
X396065Y279000D01*
X396404Y276429D01*
X397396Y274032D01*
X398975Y271975D01*
X401032Y270396D01*
X403429Y269404D01*
X406000Y269065D01*
X408571Y269404D01*
X410967Y270396D01*
X413025Y271975D01*
X414604Y274032D01*
X415597Y276429D01*
X415935Y279000D01*
X415597Y281571D01*
X414604Y283967D01*
X413025Y286025D01*
X410967Y287604D01*
X408571Y288596D01*
X406000Y288935D01*
D02*
G37*
G36*
X50400D02*
X47829Y288596D01*
X45433Y287604D01*
X43375Y286025D01*
X41796Y283967D01*
X40804Y281571D01*
X40465Y279000D01*
X40804Y276429D01*
X41796Y274032D01*
X43375Y271975D01*
X45433Y270396D01*
X47829Y269404D01*
X50400Y269065D01*
X52971Y269404D01*
X55367Y270396D01*
X57425Y271975D01*
X59004Y274032D01*
X59997Y276429D01*
X60335Y279000D01*
X59997Y281571D01*
X59004Y283967D01*
X57425Y286025D01*
X55367Y287604D01*
X52971Y288596D01*
X50400Y288935D01*
D02*
G37*
G36*
X25000D02*
X22429Y288596D01*
X20032Y287604D01*
X17975Y286025D01*
X16396Y283967D01*
X15404Y281571D01*
X15065Y279000D01*
X15404Y276429D01*
X16396Y274032D01*
X17975Y271975D01*
X20032Y270396D01*
X22429Y269404D01*
X25000Y269065D01*
X27571Y269404D01*
X29968Y270396D01*
X32025Y271975D01*
X33604Y274032D01*
X34597Y276429D01*
X34935Y279000D01*
X34597Y281571D01*
X33604Y283967D01*
X32025Y286025D01*
X29968Y287604D01*
X27571Y288596D01*
X25000Y288935D01*
D02*
G37*
G36*
X442116Y277730D02*
X432670D01*
Y268284D01*
X434217Y268488D01*
X436842Y269575D01*
X439095Y271304D01*
X440825Y273559D01*
X441912Y276183D01*
X442116Y277730D01*
D02*
G37*
G36*
X430130D02*
X420684D01*
X420888Y276183D01*
X421975Y273559D01*
X423704Y271304D01*
X425959Y269575D01*
X428583Y268488D01*
X430130Y268284D01*
Y277730D01*
D02*
G37*
G36*
X431400Y263535D02*
X428829Y263197D01*
X426432Y262204D01*
X424375Y260625D01*
X422796Y258568D01*
X421804Y256171D01*
X421465Y253600D01*
X421804Y251029D01*
X422796Y248633D01*
X424375Y246575D01*
X426432Y244996D01*
X428829Y244004D01*
X431400Y243665D01*
X433971Y244004D01*
X436367Y244996D01*
X438425Y246575D01*
X440004Y248633D01*
X440997Y251029D01*
X441335Y253600D01*
X440997Y256171D01*
X440004Y258568D01*
X438425Y260625D01*
X436367Y262204D01*
X433971Y263197D01*
X431400Y263535D01*
D02*
G37*
G36*
X406000D02*
X403429Y263197D01*
X401032Y262204D01*
X398975Y260625D01*
X397396Y258568D01*
X396404Y256171D01*
X396065Y253600D01*
X396404Y251029D01*
X397396Y248633D01*
X398975Y246575D01*
X401032Y244996D01*
X403429Y244004D01*
X406000Y243665D01*
X408571Y244004D01*
X410967Y244996D01*
X413025Y246575D01*
X414604Y248633D01*
X415597Y251029D01*
X415935Y253600D01*
X415597Y256171D01*
X414604Y258568D01*
X413025Y260625D01*
X410967Y262204D01*
X408571Y263197D01*
X406000Y263535D01*
D02*
G37*
G36*
X50400D02*
X47829Y263197D01*
X45433Y262204D01*
X43375Y260625D01*
X41796Y258568D01*
X40804Y256171D01*
X40465Y253600D01*
X40804Y251029D01*
X41796Y248633D01*
X43375Y246575D01*
X45433Y244996D01*
X47829Y244004D01*
X50400Y243665D01*
X52971Y244004D01*
X55367Y244996D01*
X57425Y246575D01*
X59004Y248633D01*
X59997Y251029D01*
X60335Y253600D01*
X59997Y256171D01*
X59004Y258568D01*
X57425Y260625D01*
X55367Y262204D01*
X52971Y263197D01*
X50400Y263535D01*
D02*
G37*
G36*
X25000D02*
X22429Y263197D01*
X20032Y262204D01*
X17975Y260625D01*
X16396Y258568D01*
X15404Y256171D01*
X15065Y253600D01*
X15404Y251029D01*
X16396Y248633D01*
X17975Y246575D01*
X20032Y244996D01*
X22429Y244004D01*
X25000Y243665D01*
X27571Y244004D01*
X29968Y244996D01*
X32025Y246575D01*
X33604Y248633D01*
X34597Y251029D01*
X34935Y253600D01*
X34597Y256171D01*
X33604Y258568D01*
X32025Y260625D01*
X29968Y262204D01*
X27571Y263197D01*
X25000Y263535D01*
D02*
G37*
G36*
X50400Y238135D02*
X47829Y237796D01*
X45433Y236804D01*
X43375Y235225D01*
X41796Y233167D01*
X40804Y230771D01*
X40465Y228200D01*
X40804Y225629D01*
X41796Y223232D01*
X43375Y221175D01*
X45433Y219596D01*
X47829Y218604D01*
X50400Y218265D01*
X52971Y218604D01*
X55367Y219596D01*
X57425Y221175D01*
X59004Y223232D01*
X59997Y225629D01*
X60335Y228200D01*
X59997Y230771D01*
X59004Y233167D01*
X57425Y235225D01*
X55367Y236804D01*
X52971Y237796D01*
X50400Y238135D01*
D02*
G37*
G36*
X431400Y238135D02*
X428829Y237796D01*
X426432Y236804D01*
X424375Y235225D01*
X422796Y233167D01*
X421804Y230771D01*
X421465Y228200D01*
X421804Y225629D01*
X422796Y223232D01*
X424375Y221175D01*
X426432Y219596D01*
X428829Y218604D01*
X431400Y218265D01*
X433971Y218604D01*
X436367Y219596D01*
X438425Y221175D01*
X440004Y223232D01*
X440997Y225629D01*
X441335Y228200D01*
X440997Y230771D01*
X440004Y233167D01*
X438425Y235225D01*
X436367Y236804D01*
X433971Y237796D01*
X431400Y238135D01*
D02*
G37*
G36*
X406000D02*
X403429Y237796D01*
X401032Y236804D01*
X398975Y235225D01*
X397396Y233167D01*
X396404Y230771D01*
X396065Y228200D01*
X396404Y225629D01*
X397396Y223232D01*
X398975Y221175D01*
X401032Y219596D01*
X403429Y218604D01*
X406000Y218265D01*
X408571Y218604D01*
X410967Y219596D01*
X413025Y221175D01*
X414604Y223232D01*
X415597Y225629D01*
X415935Y228200D01*
X415597Y230771D01*
X414604Y233167D01*
X413025Y235225D01*
X410967Y236804D01*
X408571Y237796D01*
X406000Y238135D01*
D02*
G37*
G36*
X25000Y238135D02*
X22429Y237796D01*
X20032Y236804D01*
X17975Y235225D01*
X16396Y233167D01*
X15404Y230771D01*
X15065Y228200D01*
X15404Y225629D01*
X16396Y223232D01*
X17975Y221175D01*
X20032Y219596D01*
X22429Y218603D01*
X25000Y218265D01*
X27571Y218603D01*
X29968Y219596D01*
X32025Y221175D01*
X33604Y223232D01*
X34597Y225629D01*
X34935Y228200D01*
X34597Y230771D01*
X33604Y233167D01*
X32025Y235225D01*
X29968Y236804D01*
X27571Y237796D01*
X25000Y238135D01*
D02*
G37*
G36*
X50400Y212735D02*
X47829Y212397D01*
X45433Y211404D01*
X43375Y209825D01*
X41796Y207768D01*
X40803Y205371D01*
X40465Y202800D01*
X40803Y200229D01*
X41796Y197833D01*
X43375Y195775D01*
X45433Y194196D01*
X47829Y193204D01*
X50400Y192865D01*
X52971Y193204D01*
X55367Y194196D01*
X57425Y195775D01*
X59004Y197833D01*
X59996Y200229D01*
X60335Y202800D01*
X59996Y205371D01*
X59004Y207768D01*
X57425Y209825D01*
X55367Y211404D01*
X52971Y212397D01*
X50400Y212735D01*
D02*
G37*
G36*
X431400Y212735D02*
X428829Y212397D01*
X426432Y211404D01*
X424375Y209825D01*
X422796Y207768D01*
X421804Y205371D01*
X421465Y202800D01*
X421804Y200229D01*
X422796Y197833D01*
X424375Y195775D01*
X426432Y194196D01*
X428829Y193204D01*
X431400Y192865D01*
X433971Y193204D01*
X436367Y194196D01*
X438425Y195775D01*
X440004Y197833D01*
X440996Y200229D01*
X441335Y202800D01*
X440996Y205371D01*
X440004Y207768D01*
X438425Y209825D01*
X436367Y211404D01*
X433971Y212397D01*
X431400Y212735D01*
D02*
G37*
G36*
X406000D02*
X403429Y212397D01*
X401032Y211404D01*
X398975Y209825D01*
X397396Y207768D01*
X396404Y205371D01*
X396065Y202800D01*
X396404Y200229D01*
X397396Y197833D01*
X398975Y195775D01*
X401032Y194196D01*
X403429Y193204D01*
X406000Y192865D01*
X408571Y193204D01*
X410967Y194196D01*
X413025Y195775D01*
X414604Y197833D01*
X415597Y200229D01*
X415935Y202800D01*
X415597Y205371D01*
X414604Y207768D01*
X413025Y209825D01*
X410967Y211404D01*
X408571Y212397D01*
X406000Y212735D01*
D02*
G37*
G36*
X25000Y212735D02*
X22429Y212396D01*
X20032Y211404D01*
X17975Y209825D01*
X16396Y207768D01*
X15404Y205371D01*
X15065Y202800D01*
X15404Y200229D01*
X16396Y197833D01*
X17975Y195775D01*
X20032Y194196D01*
X22429Y193204D01*
X25000Y192865D01*
X27571Y193204D01*
X29968Y194196D01*
X32025Y195775D01*
X33604Y197833D01*
X34597Y200229D01*
X34935Y202800D01*
X34597Y205371D01*
X33604Y207768D01*
X32025Y209825D01*
X29968Y211404D01*
X27571Y212396D01*
X25000Y212735D01*
D02*
G37*
G36*
X406000Y187335D02*
X403429Y186996D01*
X401032Y186004D01*
X398975Y184425D01*
X397396Y182368D01*
X396404Y179971D01*
X396065Y177400D01*
X396404Y174829D01*
X397396Y172432D01*
X398975Y170375D01*
X401032Y168796D01*
X403429Y167804D01*
X406000Y167465D01*
X408571Y167804D01*
X410967Y168796D01*
X413025Y170375D01*
X414604Y172432D01*
X415597Y174829D01*
X415935Y177400D01*
X415597Y179971D01*
X414604Y182368D01*
X413025Y184425D01*
X410967Y186004D01*
X408571Y186996D01*
X406000Y187335D01*
D02*
G37*
G36*
X431400Y187335D02*
X428829Y186996D01*
X426432Y186004D01*
X424375Y184425D01*
X422796Y182367D01*
X421804Y179971D01*
X421465Y177400D01*
X421804Y174829D01*
X422796Y172432D01*
X424375Y170375D01*
X426432Y168796D01*
X428829Y167804D01*
X431400Y167465D01*
X433971Y167804D01*
X436367Y168796D01*
X438425Y170375D01*
X440004Y172432D01*
X440997Y174829D01*
X441335Y177400D01*
X440997Y179971D01*
X440004Y182367D01*
X438425Y184425D01*
X436367Y186004D01*
X433971Y186996D01*
X431400Y187335D01*
D02*
G37*
G36*
X50400D02*
X47829Y186996D01*
X45433Y186004D01*
X43375Y184425D01*
X41796Y182367D01*
X40804Y179971D01*
X40465Y177400D01*
X40804Y174829D01*
X41796Y172432D01*
X43375Y170375D01*
X45433Y168796D01*
X47829Y167804D01*
X50400Y167465D01*
X52971Y167804D01*
X55367Y168796D01*
X57425Y170375D01*
X59004Y172432D01*
X59997Y174829D01*
X60335Y177400D01*
X59997Y179971D01*
X59004Y182367D01*
X57425Y184425D01*
X55367Y186004D01*
X52971Y186996D01*
X50400Y187335D01*
D02*
G37*
G36*
X25000D02*
X22429Y186996D01*
X20032Y186004D01*
X17975Y184425D01*
X16396Y182367D01*
X15404Y179971D01*
X15065Y177400D01*
X15404Y174829D01*
X16396Y172432D01*
X17975Y170375D01*
X20032Y168796D01*
X22429Y167804D01*
X25000Y167465D01*
X27571Y167804D01*
X29968Y168796D01*
X32025Y170375D01*
X33604Y172432D01*
X34597Y174829D01*
X34935Y177400D01*
X34597Y179971D01*
X33604Y182367D01*
X32025Y184425D01*
X29968Y186004D01*
X27571Y186996D01*
X25000Y187335D01*
D02*
G37*
G36*
X333309Y183154D02*
X326642D01*
X325584Y182944D01*
X324687Y182345D01*
X324088Y181448D01*
X323877Y180390D01*
Y175248D01*
X323850Y175111D01*
Y170975D01*
X323444Y170569D01*
X322538Y169212D01*
X322220Y167613D01*
Y157600D01*
X322538Y156000D01*
X323444Y154644D01*
X328859Y149229D01*
Y147487D01*
X329021Y146673D01*
X329482Y145983D01*
X330173Y145521D01*
X330988Y145359D01*
X343488D01*
X343974Y144186D01*
X342229Y142441D01*
X330988D01*
X330173Y142279D01*
X329482Y141818D01*
X329021Y141127D01*
X328859Y140312D01*
Y134788D01*
X329021Y133973D01*
X329482Y133282D01*
X330173Y132821D01*
X330988Y132659D01*
X346512D01*
X347327Y132821D01*
X348018Y133282D01*
X348479Y133973D01*
X348641Y134788D01*
Y137029D01*
X351116Y139505D01*
X357305D01*
X357442Y139532D01*
X362584D01*
X363642Y139742D01*
X364538Y140342D01*
X365138Y141238D01*
X365348Y142296D01*
Y148964D01*
X365138Y150022D01*
X364538Y150919D01*
X363642Y151518D01*
X362584Y151728D01*
X355916D01*
X354858Y151518D01*
X353961Y150919D01*
X353362Y150022D01*
X353152Y148964D01*
Y147865D01*
X349385D01*
X348641Y148476D01*
Y153013D01*
X348479Y153827D01*
X348018Y154517D01*
X347327Y154979D01*
X346512Y155141D01*
X334771D01*
X333026Y156886D01*
X333512Y158059D01*
X343229D01*
X343374Y157914D01*
X344730Y157008D01*
X346330Y156690D01*
X353320D01*
X353362Y156478D01*
X353961Y155582D01*
X354858Y154982D01*
X355916Y154772D01*
X362584D01*
X363642Y154982D01*
X364538Y155582D01*
X365138Y156478D01*
X365348Y157536D01*
Y164204D01*
X365138Y165262D01*
X364538Y166159D01*
X363642Y166758D01*
X362584Y166968D01*
X355916D01*
X354858Y166758D01*
X353961Y166159D01*
X353362Y165262D01*
X353320Y165050D01*
X348641D01*
Y165713D01*
X348479Y166527D01*
X348018Y167218D01*
X347327Y167679D01*
X346512Y167841D01*
X332933D01*
X332127Y168823D01*
X332211Y169243D01*
Y170958D01*
X333309D01*
X334367Y171168D01*
X335264Y171768D01*
X335863Y172665D01*
X336074Y173722D01*
Y180390D01*
X335863Y181448D01*
X335264Y182345D01*
X334367Y182944D01*
X333309Y183154D01*
D02*
G37*
G36*
X51670Y162716D02*
Y153270D01*
X61116D01*
X60912Y154817D01*
X59825Y157442D01*
X58095Y159696D01*
X55841Y161425D01*
X53217Y162512D01*
X51670Y162716D01*
D02*
G37*
G36*
X49130D02*
X47583Y162512D01*
X44959Y161425D01*
X42705Y159696D01*
X40975Y157442D01*
X39888Y154817D01*
X39684Y153270D01*
X49130D01*
Y162716D01*
D02*
G37*
G36*
X431400Y161935D02*
X428829Y161597D01*
X426432Y160604D01*
X424375Y159025D01*
X422796Y156967D01*
X421804Y154571D01*
X421465Y152000D01*
X421804Y149429D01*
X422796Y147032D01*
X424375Y144975D01*
X426432Y143396D01*
X428829Y142404D01*
X431400Y142065D01*
X433971Y142404D01*
X436367Y143396D01*
X438425Y144975D01*
X440004Y147032D01*
X440997Y149429D01*
X441335Y152000D01*
X440997Y154571D01*
X440004Y156967D01*
X438425Y159025D01*
X436367Y160604D01*
X433971Y161597D01*
X431400Y161935D01*
D02*
G37*
G36*
X406000D02*
X403429Y161597D01*
X401032Y160604D01*
X398975Y159025D01*
X397396Y156967D01*
X396404Y154571D01*
X396065Y152000D01*
X396404Y149429D01*
X397396Y147032D01*
X398975Y144975D01*
X401032Y143396D01*
X403429Y142404D01*
X406000Y142065D01*
X408571Y142404D01*
X410967Y143396D01*
X413025Y144975D01*
X414604Y147032D01*
X415597Y149429D01*
X415935Y152000D01*
X415597Y154571D01*
X414604Y156967D01*
X413025Y159025D01*
X410967Y160604D01*
X408571Y161597D01*
X406000Y161935D01*
D02*
G37*
G36*
X25000D02*
X22429Y161597D01*
X20032Y160604D01*
X17975Y159025D01*
X16396Y156967D01*
X15404Y154571D01*
X15065Y152000D01*
X15404Y149429D01*
X16396Y147032D01*
X17975Y144975D01*
X20032Y143396D01*
X22429Y142404D01*
X25000Y142065D01*
X27571Y142404D01*
X29968Y143396D01*
X32025Y144975D01*
X33604Y147032D01*
X34597Y149429D01*
X34935Y152000D01*
X34597Y154571D01*
X33604Y156967D01*
X32025Y159025D01*
X29968Y160604D01*
X27571Y161597D01*
X25000Y161935D01*
D02*
G37*
G36*
X110508Y158267D02*
X108366Y157985D01*
X106371Y157158D01*
X104657Y155843D01*
X103342Y154129D01*
X102515Y152134D01*
X102233Y149992D01*
X102515Y147850D01*
X103342Y145855D01*
X104657Y144141D01*
X106371Y142826D01*
X108366Y141999D01*
X110508Y141717D01*
X112650Y141999D01*
X114645Y142826D01*
X116359Y144141D01*
X117674Y145855D01*
X118501Y147850D01*
X118783Y149992D01*
X118501Y152134D01*
X117674Y154129D01*
X116359Y155843D01*
X114645Y157158D01*
X112650Y157985D01*
X110508Y158267D01*
D02*
G37*
G36*
X61116Y150730D02*
X51670D01*
Y141284D01*
X53217Y141488D01*
X55841Y142575D01*
X58095Y144305D01*
X59825Y146559D01*
X60912Y149183D01*
X61116Y150730D01*
D02*
G37*
G36*
X49130D02*
X39684D01*
X39888Y149183D01*
X40975Y146559D01*
X42705Y144305D01*
X44959Y142575D01*
X47583Y141488D01*
X49130Y141284D01*
Y150730D01*
D02*
G37*
G36*
X362584Y133718D02*
X355916D01*
X354858Y133508D01*
X353961Y132908D01*
X353362Y132012D01*
X353152Y130954D01*
Y129530D01*
X347400D01*
X347327Y129579D01*
X346512Y129741D01*
X330988D01*
X330173Y129579D01*
X329482Y129117D01*
X329021Y128427D01*
X328859Y127612D01*
Y122087D01*
X329021Y121273D01*
X329482Y120583D01*
X330173Y120121D01*
X330988Y119959D01*
X346512D01*
X347327Y120121D01*
X348018Y120583D01*
X348410Y121170D01*
X356980D01*
X358580Y121488D01*
X358631Y121522D01*
X362584D01*
X363642Y121732D01*
X364538Y122332D01*
X365138Y123228D01*
X365348Y124286D01*
Y130954D01*
X365138Y132012D01*
X364538Y132908D01*
X363642Y133508D01*
X362584Y133718D01*
D02*
G37*
G36*
X362584Y118478D02*
X355916D01*
X354858Y118268D01*
X353961Y117669D01*
X353362Y116772D01*
X353347Y116695D01*
X347602D01*
X347327Y116879D01*
X346512Y117041D01*
X330988D01*
X330173Y116879D01*
X329482Y116418D01*
X329021Y115727D01*
X328859Y114913D01*
Y109388D01*
X329021Y108573D01*
X329482Y107882D01*
X330173Y107421D01*
X330988Y107259D01*
X346512D01*
X347327Y107421D01*
X348018Y107882D01*
X348320Y108335D01*
X353293D01*
X353362Y107988D01*
X353961Y107092D01*
X354858Y106492D01*
X355916Y106282D01*
X362584D01*
X363642Y106492D01*
X364538Y107092D01*
X365138Y107988D01*
X365348Y109046D01*
Y115714D01*
X365138Y116772D01*
X364538Y117669D01*
X363642Y118268D01*
X362584Y118478D01*
D02*
G37*
G36*
X25000Y136535D02*
X22429Y136196D01*
X20032Y135204D01*
X17975Y133625D01*
X16396Y131567D01*
X15404Y129171D01*
X15065Y126600D01*
X15404Y124029D01*
X16396Y121632D01*
X17975Y119575D01*
X20032Y117996D01*
X22429Y117004D01*
X25000Y116665D01*
X27571Y117004D01*
X29968Y117996D01*
X32025Y119575D01*
X33604Y121632D01*
X34597Y124029D01*
X34935Y126600D01*
X34597Y129171D01*
X33604Y131567D01*
X32025Y133625D01*
X29968Y135204D01*
X27571Y136196D01*
X25000Y136535D01*
D02*
G37*
G36*
X431400Y136535D02*
X428829Y136196D01*
X426432Y135204D01*
X424375Y133625D01*
X422796Y131567D01*
X421804Y129171D01*
X421465Y126600D01*
X421804Y124029D01*
X422796Y121632D01*
X424375Y119575D01*
X426432Y117996D01*
X428829Y117004D01*
X431400Y116665D01*
X433971Y117004D01*
X436367Y117996D01*
X438425Y119575D01*
X440004Y121632D01*
X440997Y124029D01*
X441335Y126600D01*
X440997Y129171D01*
X440004Y131567D01*
X438425Y133625D01*
X436367Y135204D01*
X433971Y136196D01*
X431400Y136535D01*
D02*
G37*
G36*
X406000D02*
X403429Y136196D01*
X401032Y135204D01*
X398975Y133625D01*
X397396Y131567D01*
X396404Y129171D01*
X396065Y126600D01*
X396404Y124029D01*
X397396Y121632D01*
X398975Y119575D01*
X401032Y117996D01*
X403429Y117004D01*
X406000Y116665D01*
X408571Y117004D01*
X410967Y117996D01*
X413025Y119575D01*
X414604Y121632D01*
X415597Y124029D01*
X415935Y126600D01*
X415597Y129171D01*
X414604Y131567D01*
X413025Y133625D01*
X410967Y135204D01*
X408571Y136196D01*
X406000Y136535D01*
D02*
G37*
G36*
X144992Y123783D02*
X142850Y123501D01*
X140855Y122674D01*
X139141Y121359D01*
X137826Y119645D01*
X136999Y117650D01*
X136717Y115508D01*
X136999Y113366D01*
X137826Y111370D01*
X139141Y109657D01*
X140855Y108342D01*
X142850Y107515D01*
X144992Y107233D01*
X147134Y107515D01*
X149129Y108342D01*
X150843Y109657D01*
X152158Y111370D01*
X152985Y113366D01*
X153267Y115508D01*
X152985Y117650D01*
X152158Y119645D01*
X150843Y121359D01*
X149129Y122674D01*
X147134Y123501D01*
X144992Y123783D01*
D02*
G37*
G36*
X50400Y111135D02*
X47829Y110796D01*
X45433Y109804D01*
X43375Y108225D01*
X41796Y106167D01*
X40803Y103771D01*
X40465Y101200D01*
X40803Y98629D01*
X41796Y96233D01*
X43375Y94175D01*
X45433Y92596D01*
X47829Y91604D01*
X50400Y91265D01*
X52971Y91604D01*
X55367Y92596D01*
X57425Y94175D01*
X59004Y96233D01*
X59996Y98629D01*
X60335Y101200D01*
X59996Y103771D01*
X59004Y106167D01*
X57425Y108225D01*
X55367Y109804D01*
X52971Y110796D01*
X50400Y111135D01*
D02*
G37*
G36*
X406000Y111135D02*
X403429Y110796D01*
X401032Y109804D01*
X398975Y108225D01*
X397396Y106167D01*
X396404Y103771D01*
X396065Y101200D01*
X396404Y98629D01*
X397396Y96233D01*
X398975Y94175D01*
X401032Y92596D01*
X403429Y91604D01*
X406000Y91265D01*
X408571Y91604D01*
X410967Y92596D01*
X413025Y94175D01*
X414604Y96233D01*
X415597Y98629D01*
X415935Y101200D01*
X415597Y103771D01*
X414604Y106167D01*
X413025Y108225D01*
X410967Y109804D01*
X408571Y110796D01*
X406000Y111135D01*
D02*
G37*
G36*
X431400Y111135D02*
X428829Y110796D01*
X426432Y109804D01*
X424375Y108225D01*
X422796Y106167D01*
X421804Y103771D01*
X421465Y101200D01*
X421804Y98629D01*
X422796Y96233D01*
X424375Y94175D01*
X426432Y92596D01*
X428829Y91603D01*
X431400Y91265D01*
X433971Y91603D01*
X436367Y92596D01*
X438425Y94175D01*
X440004Y96233D01*
X440997Y98629D01*
X441335Y101200D01*
X440997Y103771D01*
X440004Y106167D01*
X438425Y108225D01*
X436367Y109804D01*
X433971Y110796D01*
X431400Y111135D01*
D02*
G37*
G36*
X25000D02*
X22429Y110796D01*
X20032Y109804D01*
X17975Y108225D01*
X16396Y106167D01*
X15404Y103771D01*
X15065Y101200D01*
X15404Y98629D01*
X16396Y96233D01*
X17975Y94175D01*
X20032Y92596D01*
X22429Y91603D01*
X25000Y91265D01*
X27571Y91603D01*
X29968Y92596D01*
X32025Y94175D01*
X33604Y96233D01*
X34597Y98629D01*
X34935Y101200D01*
X34597Y103771D01*
X33604Y106167D01*
X32025Y108225D01*
X29968Y109804D01*
X27571Y110796D01*
X25000Y111135D01*
D02*
G37*
G36*
X346512Y104341D02*
X330988D01*
X330173Y104179D01*
X329482Y103717D01*
X329021Y103027D01*
X328859Y102212D01*
Y96687D01*
X329021Y95873D01*
X329482Y95183D01*
X330173Y94721D01*
X330988Y94559D01*
X338067D01*
X338405Y94333D01*
X340004Y94015D01*
X354152Y94015D01*
Y93036D01*
X354362Y91978D01*
X354962Y91082D01*
X355858Y90482D01*
X356916Y90272D01*
X363584D01*
X364642Y90482D01*
X365538Y91082D01*
X366138Y91978D01*
X366348Y93036D01*
Y99704D01*
X366138Y100762D01*
X365538Y101658D01*
X364642Y102258D01*
X363584Y102468D01*
X356916D01*
X356453Y102376D01*
X348608Y102376D01*
X348479Y103027D01*
X348018Y103717D01*
X347327Y104179D01*
X346512Y104341D01*
D02*
G37*
G36*
X50400Y136535D02*
X47829Y136196D01*
X45433Y135204D01*
X43375Y133625D01*
X41796Y131567D01*
X40804Y129171D01*
X40465Y126600D01*
X40804Y124029D01*
X41796Y121632D01*
X43375Y119575D01*
X45433Y117996D01*
X47829Y117003D01*
X50400Y116665D01*
X52971Y117003D01*
X55367Y117996D01*
X55467Y118072D01*
X82796Y90743D01*
X83590Y90213D01*
X84526Y90027D01*
X115879D01*
X116460Y89157D01*
X117982Y88141D01*
X119776Y87784D01*
X121571Y88141D01*
X123093Y89157D01*
X124109Y90679D01*
X124466Y92474D01*
X124109Y94269D01*
X123093Y95790D01*
X121571Y96807D01*
X119776Y97164D01*
X117982Y96807D01*
X116460Y95790D01*
X115879Y94921D01*
X85540D01*
X58928Y121533D01*
X59004Y121632D01*
X59997Y124029D01*
X60335Y126600D01*
X59997Y129171D01*
X59004Y131567D01*
X57425Y133625D01*
X55367Y135204D01*
X52971Y136196D01*
X50400Y136535D01*
D02*
G37*
G36*
X256500Y91690D02*
X254705Y91333D01*
X253184Y90316D01*
X252167Y88795D01*
X251810Y87000D01*
X252167Y85205D01*
X253184Y83684D01*
X254705Y82667D01*
X256500Y82310D01*
X258295Y82667D01*
X259816Y83684D01*
X260397Y84553D01*
X272359D01*
Y83988D01*
X272521Y83173D01*
X272983Y82483D01*
X273673Y82021D01*
X274487Y81859D01*
X290012D01*
X290827Y82021D01*
X291518Y82483D01*
X291979Y83173D01*
X292141Y83988D01*
Y89513D01*
X291979Y90327D01*
X291518Y91018D01*
X290827Y91479D01*
X290012Y91641D01*
X274487D01*
X273673Y91479D01*
X272983Y91018D01*
X272521Y90327D01*
X272359Y89513D01*
Y89447D01*
X260397D01*
X259816Y90316D01*
X258295Y91333D01*
X256500Y91690D01*
D02*
G37*
G36*
X290012Y78941D02*
X274487D01*
X273673Y78779D01*
X272983Y78317D01*
X272521Y77627D01*
X272359Y76813D01*
Y71287D01*
X272521Y70473D01*
X272983Y69783D01*
X273673Y69321D01*
X274487Y69159D01*
X290012D01*
X290827Y69321D01*
X291518Y69783D01*
X291979Y70473D01*
X292141Y71287D01*
Y76813D01*
X291979Y77627D01*
X291518Y78317D01*
X290827Y78779D01*
X290012Y78941D01*
D02*
G37*
G36*
X25000Y85735D02*
X22429Y85396D01*
X20033Y84404D01*
X17975Y82825D01*
X16396Y80767D01*
X15404Y78371D01*
X15065Y75800D01*
X15404Y73229D01*
X16396Y70833D01*
X17975Y68775D01*
X20033Y67196D01*
X22429Y66204D01*
X25000Y65865D01*
X27571Y66204D01*
X29968Y67196D01*
X32025Y68775D01*
X33604Y70833D01*
X34597Y73229D01*
X34935Y75800D01*
X34597Y78371D01*
X33604Y80767D01*
X32025Y82825D01*
X29968Y84404D01*
X27571Y85396D01*
X25000Y85735D01*
D02*
G37*
G36*
X431400Y85735D02*
X428829Y85396D01*
X426432Y84404D01*
X424375Y82825D01*
X422796Y80767D01*
X421804Y78371D01*
X421465Y75800D01*
X421804Y73229D01*
X422796Y70833D01*
X424375Y68775D01*
X426432Y67196D01*
X428829Y66203D01*
X431400Y65865D01*
X433971Y66203D01*
X436367Y67196D01*
X438425Y68775D01*
X440004Y70833D01*
X440996Y73229D01*
X441335Y75800D01*
X440996Y78371D01*
X440004Y80767D01*
X438425Y82825D01*
X436367Y84404D01*
X433971Y85396D01*
X431400Y85735D01*
D02*
G37*
G36*
X406000D02*
X403429Y85396D01*
X401032Y84404D01*
X398975Y82825D01*
X397396Y80767D01*
X396404Y78371D01*
X396065Y75800D01*
X396404Y73229D01*
X397396Y70833D01*
X398975Y68775D01*
X401032Y67196D01*
X403429Y66203D01*
X406000Y65865D01*
X408571Y66203D01*
X410967Y67196D01*
X413025Y68775D01*
X414604Y70833D01*
X415597Y73229D01*
X415935Y75800D01*
X415597Y78371D01*
X414604Y80767D01*
X413025Y82825D01*
X410967Y84404D01*
X408571Y85396D01*
X406000Y85735D01*
D02*
G37*
G36*
X50400D02*
X47829Y85396D01*
X45432Y84404D01*
X43375Y82825D01*
X41796Y80767D01*
X40803Y78371D01*
X40465Y75800D01*
X40803Y73229D01*
X41796Y70833D01*
X43375Y68775D01*
X45432Y67196D01*
X47829Y66203D01*
X50400Y65865D01*
X52971Y66203D01*
X55367Y67196D01*
X57425Y68775D01*
X59004Y70833D01*
X59996Y73229D01*
X60335Y75800D01*
X59996Y78371D01*
X59004Y80767D01*
X57425Y82825D01*
X55367Y84404D01*
X52971Y85396D01*
X50400Y85735D01*
D02*
G37*
G36*
X431400Y60335D02*
X428829Y59997D01*
X426432Y59004D01*
X424375Y57425D01*
X422796Y55367D01*
X421804Y52971D01*
X421465Y50400D01*
X421804Y47829D01*
X422796Y45433D01*
X424375Y43375D01*
X426432Y41796D01*
X428829Y40804D01*
X431400Y40465D01*
X433971Y40804D01*
X436367Y41796D01*
X438425Y43375D01*
X440004Y45433D01*
X440997Y47829D01*
X441335Y50400D01*
X440997Y52971D01*
X440004Y55367D01*
X438425Y57425D01*
X436367Y59004D01*
X433971Y59997D01*
X431400Y60335D01*
D02*
G37*
G36*
X406000D02*
X403429Y59997D01*
X401032Y59004D01*
X398975Y57425D01*
X397396Y55367D01*
X396404Y52971D01*
X396065Y50400D01*
X396404Y47829D01*
X397396Y45433D01*
X398975Y43375D01*
X401032Y41796D01*
X403429Y40804D01*
X406000Y40465D01*
X408571Y40804D01*
X410967Y41796D01*
X413025Y43375D01*
X414604Y45433D01*
X415597Y47829D01*
X415935Y50400D01*
X415597Y52971D01*
X414604Y55367D01*
X413025Y57425D01*
X410967Y59004D01*
X408571Y59997D01*
X406000Y60335D01*
D02*
G37*
G36*
X50400D02*
X47829Y59997D01*
X45433Y59004D01*
X43375Y57425D01*
X41796Y55367D01*
X40804Y52971D01*
X40465Y50400D01*
X40804Y47829D01*
X41796Y45433D01*
X43375Y43375D01*
X45433Y41796D01*
X47829Y40804D01*
X50400Y40465D01*
X52971Y40804D01*
X55367Y41796D01*
X57425Y43375D01*
X59004Y45433D01*
X59997Y47829D01*
X60335Y50400D01*
X59997Y52971D01*
X59004Y55367D01*
X57425Y57425D01*
X55367Y59004D01*
X52971Y59997D01*
X50400Y60335D01*
D02*
G37*
G36*
X25000D02*
X22429Y59997D01*
X20032Y59004D01*
X17975Y57425D01*
X16396Y55367D01*
X15404Y52971D01*
X15065Y50400D01*
X15404Y47829D01*
X16396Y45433D01*
X17975Y43375D01*
X20032Y41796D01*
X22429Y40804D01*
X25000Y40465D01*
X27571Y40804D01*
X29968Y41796D01*
X32025Y43375D01*
X33604Y45433D01*
X34597Y47829D01*
X34935Y50400D01*
X34597Y52971D01*
X33604Y55367D01*
X32025Y57425D01*
X29968Y59004D01*
X27571Y59997D01*
X25000Y60335D01*
D02*
G37*
G36*
X362040Y45040D02*
X353270D01*
Y36270D01*
X362040D01*
Y45040D01*
D02*
G37*
G36*
X350730D02*
X341960D01*
Y36270D01*
X350730D01*
Y45040D01*
D02*
G37*
G36*
X258540Y44790D02*
X249770D01*
Y36020D01*
X258540D01*
Y44790D01*
D02*
G37*
G36*
X247230D02*
X238460D01*
Y36020D01*
X247230D01*
Y44790D01*
D02*
G37*
G36*
X346512Y91641D02*
X330988D01*
X330173Y91479D01*
X329482Y91018D01*
X329021Y90327D01*
X328859Y89513D01*
Y85320D01*
X300270Y56730D01*
X299739Y55936D01*
X299553Y55000D01*
Y43836D01*
X297411Y42949D01*
X295510Y41490D01*
X294051Y39589D01*
X293134Y37376D01*
X292822Y35000D01*
X293134Y32624D01*
X294051Y30411D01*
X295510Y28510D01*
X297411Y27051D01*
X299624Y26134D01*
X302000Y25821D01*
X304376Y26134D01*
X306589Y27051D01*
X308490Y28510D01*
X309949Y30411D01*
X310866Y32624D01*
X311178Y35000D01*
X310866Y37376D01*
X309949Y39589D01*
X308490Y41490D01*
X306589Y42949D01*
X304447Y43836D01*
Y53987D01*
X327636Y77176D01*
X328358Y76961D01*
X328859Y76603D01*
Y72620D01*
X325270Y69030D01*
X324739Y68236D01*
X324553Y67300D01*
Y43836D01*
X322411Y42949D01*
X320510Y41490D01*
X319051Y39589D01*
X318134Y37376D01*
X317822Y35000D01*
X318134Y32624D01*
X319051Y30411D01*
X320510Y28510D01*
X322411Y27051D01*
X324624Y26134D01*
X327000Y25821D01*
X329376Y26134D01*
X331589Y27051D01*
X333490Y28510D01*
X334949Y30411D01*
X335866Y32624D01*
X336179Y35000D01*
X335866Y37376D01*
X334949Y39589D01*
X333490Y41490D01*
X331589Y42949D01*
X329447Y43836D01*
Y66287D01*
X332320Y69159D01*
X346512D01*
X347327Y69321D01*
X348018Y69783D01*
X348479Y70473D01*
X348641Y71287D01*
Y76813D01*
X348479Y77627D01*
X348018Y78317D01*
X347327Y78779D01*
X346512Y78941D01*
X331198D01*
X330839Y79442D01*
X330624Y80163D01*
X332320Y81859D01*
X346512D01*
X347327Y82021D01*
X348018Y82483D01*
X348479Y83173D01*
X348641Y83988D01*
Y89513D01*
X348479Y90327D01*
X348018Y91018D01*
X347327Y91479D01*
X346512Y91641D01*
D02*
G37*
G36*
X362040Y33730D02*
X353270D01*
Y24960D01*
X362040D01*
Y33730D01*
D02*
G37*
G36*
X350730D02*
X341960D01*
Y24960D01*
X350730D01*
Y33730D01*
D02*
G37*
G36*
X258540Y33480D02*
X249770D01*
Y24710D01*
X258540D01*
Y33480D01*
D02*
G37*
G36*
X247230D02*
X238460D01*
Y24710D01*
X247230D01*
Y33480D01*
D02*
G37*
G36*
X431400Y34935D02*
X428829Y34597D01*
X426432Y33604D01*
X424375Y32025D01*
X422796Y29968D01*
X421804Y27571D01*
X421465Y25000D01*
X421804Y22429D01*
X422796Y20032D01*
X424375Y17975D01*
X426432Y16396D01*
X428829Y15404D01*
X431400Y15065D01*
X433971Y15404D01*
X436367Y16396D01*
X438425Y17975D01*
X440004Y20032D01*
X440997Y22429D01*
X441335Y25000D01*
X440997Y27571D01*
X440004Y29968D01*
X438425Y32025D01*
X436367Y33604D01*
X433971Y34597D01*
X431400Y34935D01*
D02*
G37*
G36*
X406000D02*
X403429Y34597D01*
X401032Y33604D01*
X398975Y32025D01*
X397396Y29968D01*
X396404Y27571D01*
X396065Y25000D01*
X396404Y22429D01*
X397396Y20032D01*
X398975Y17975D01*
X401032Y16396D01*
X403429Y15404D01*
X406000Y15065D01*
X408571Y15404D01*
X410967Y16396D01*
X413025Y17975D01*
X414604Y20032D01*
X415597Y22429D01*
X415935Y25000D01*
X415597Y27571D01*
X414604Y29968D01*
X413025Y32025D01*
X410967Y33604D01*
X408571Y34597D01*
X406000Y34935D01*
D02*
G37*
G36*
X50400D02*
X47829Y34597D01*
X45433Y33604D01*
X43375Y32025D01*
X41796Y29968D01*
X40804Y27571D01*
X40465Y25000D01*
X40804Y22429D01*
X41796Y20032D01*
X43375Y17975D01*
X45433Y16396D01*
X47829Y15404D01*
X50400Y15065D01*
X52971Y15404D01*
X55367Y16396D01*
X57425Y17975D01*
X59004Y20032D01*
X59997Y22429D01*
X60335Y25000D01*
X59997Y27571D01*
X59004Y29968D01*
X57425Y32025D01*
X55367Y33604D01*
X52971Y34597D01*
X50400Y34935D01*
D02*
G37*
G36*
X25000D02*
X22429Y34597D01*
X20032Y33604D01*
X17975Y32025D01*
X16396Y29968D01*
X15404Y27571D01*
X15065Y25000D01*
X15404Y22429D01*
X16396Y20032D01*
X17975Y17975D01*
X20032Y16396D01*
X22429Y15404D01*
X25000Y15065D01*
X27571Y15404D01*
X29968Y16396D01*
X32025Y17975D01*
X33604Y20032D01*
X34597Y22429D01*
X34935Y25000D01*
X34597Y27571D01*
X33604Y29968D01*
X32025Y32025D01*
X29968Y33604D01*
X27571Y34597D01*
X25000Y34935D01*
D02*
G37*
%LPD*%
G36*
X353606Y411020D02*
X354400Y410489D01*
X355337Y410303D01*
X367914D01*
X368772Y408232D01*
X360150Y399610D01*
X359619Y398816D01*
X359433Y397880D01*
Y397098D01*
X358546D01*
X357488Y396888D01*
X356591Y396288D01*
X355992Y395392D01*
X355782Y394334D01*
Y387666D01*
X355992Y386608D01*
X356591Y385712D01*
X357488Y385112D01*
X358546Y384902D01*
X364637D01*
X371272Y378268D01*
Y372416D01*
X371482Y371358D01*
X372082Y370462D01*
X372978Y369862D01*
X374036Y369652D01*
X374303D01*
Y356586D01*
X372161Y355699D01*
X370260Y354240D01*
X368801Y352339D01*
X367884Y350126D01*
X367571Y347750D01*
X367884Y345374D01*
X368772Y343232D01*
X297236Y271697D01*
X233247D01*
X232666Y272566D01*
X231145Y273583D01*
X229350Y273940D01*
X227555Y273583D01*
X226034Y272566D01*
X225017Y271045D01*
X224660Y269250D01*
X224772Y268686D01*
X223602Y268060D01*
X220166Y271496D01*
X220263Y271593D01*
X216523Y275332D01*
Y280461D01*
X217697Y280947D01*
X223657Y274987D01*
X230162Y281493D01*
X229221Y282434D01*
X230438Y283651D01*
X230692Y283481D01*
X231750Y283271D01*
X232808Y283481D01*
X233705Y284081D01*
X238419Y288795D01*
X239019Y289692D01*
X239229Y290750D01*
X239019Y291808D01*
X238419Y292705D01*
X235930Y295194D01*
Y299121D01*
X236833Y300472D01*
X237190Y302267D01*
X236833Y304062D01*
X235816Y305583D01*
X234295Y306600D01*
X232500Y306957D01*
X230705Y306600D01*
X229184Y305583D01*
X228167Y304062D01*
X227941Y302925D01*
X227888Y302846D01*
X227570Y301246D01*
Y295194D01*
X225081Y292705D01*
X224481Y291808D01*
X224271Y290750D01*
X224481Y289692D01*
X224551Y289588D01*
X223309Y288346D01*
X222243Y289412D01*
X217697Y284866D01*
X216523Y285352D01*
Y295602D01*
X254824Y333902D01*
X258344D01*
X259402Y334112D01*
X260299Y334711D01*
X260898Y335608D01*
X261108Y336666D01*
Y343334D01*
X260898Y344392D01*
X260299Y345289D01*
X259402Y345888D01*
X259190Y345930D01*
Y349820D01*
X259402Y349862D01*
X260299Y350462D01*
X260898Y351358D01*
X261108Y352416D01*
Y359084D01*
X260898Y360142D01*
X260299Y361039D01*
X259402Y361638D01*
X259190Y361680D01*
Y391034D01*
X258987Y392058D01*
X259449Y392661D01*
X260366Y394874D01*
X260679Y397250D01*
Y402250D01*
X260366Y404626D01*
X259449Y406839D01*
X257990Y408740D01*
X256089Y410199D01*
X253876Y411116D01*
X251500Y411428D01*
X250664Y411319D01*
X246898Y415085D01*
X247090Y415754D01*
X247433Y416346D01*
X249045Y416667D01*
X250566Y417684D01*
X251583Y419205D01*
X251782Y420203D01*
X323213D01*
X323839Y418933D01*
X322980Y417813D01*
X321968Y415371D01*
X321791Y414020D01*
X331750D01*
X341709D01*
X341531Y415371D01*
X340520Y417813D01*
X339661Y418933D01*
X340287Y420203D01*
X344423D01*
X353606Y411020D01*
D02*
G37*
%LPC*%
G36*
X341709Y411480D02*
X333020D01*
Y402791D01*
X334371Y402968D01*
X336813Y403980D01*
X338911Y405589D01*
X340520Y407687D01*
X341531Y410129D01*
X341709Y411480D01*
D02*
G37*
G36*
X330480D02*
X321791D01*
X321968Y410129D01*
X322980Y407687D01*
X324589Y405589D01*
X326687Y403980D01*
X329129Y402968D01*
X330480Y402791D01*
Y411480D01*
D02*
G37*
G36*
X286540Y412290D02*
X277770D01*
Y401020D01*
X286540D01*
Y412290D01*
D02*
G37*
G36*
X275230D02*
X266460D01*
Y401020D01*
X275230D01*
Y412290D01*
D02*
G37*
G36*
X286540Y398480D02*
X277770D01*
Y387210D01*
X286540D01*
Y398480D01*
D02*
G37*
G36*
X275230D02*
X266460D01*
Y387210D01*
X275230D01*
Y398480D01*
D02*
G37*
G36*
X333020Y357709D02*
Y349020D01*
X341709D01*
X341531Y350371D01*
X340520Y352813D01*
X338911Y354911D01*
X336813Y356520D01*
X334371Y357532D01*
X333020Y357709D01*
D02*
G37*
G36*
X330480D02*
X329129Y357532D01*
X326687Y356520D01*
X324589Y354911D01*
X322980Y352813D01*
X321968Y350371D01*
X321791Y349020D01*
X330480D01*
Y357709D01*
D02*
G37*
G36*
X341709Y346480D02*
X333020D01*
Y337791D01*
X334371Y337968D01*
X336813Y338980D01*
X338911Y340589D01*
X340520Y342687D01*
X341531Y345129D01*
X341709Y346480D01*
D02*
G37*
G36*
X330480D02*
X321791D01*
X321968Y345129D01*
X322980Y342687D01*
X324589Y340589D01*
X326687Y338980D01*
X329129Y337968D01*
X330480Y337791D01*
Y346480D01*
D02*
G37*
%LPD*%
D17*
X161750Y363000D02*
X173250Y351500D01*
Y247000D02*
Y351500D01*
X250591Y220911D02*
X301950Y169552D01*
X249089Y220911D02*
X250591D01*
X249438Y214428D02*
X297826Y166040D01*
Y122726D02*
Y166040D01*
X244000Y226000D02*
X249089Y220911D01*
X301950Y114150D02*
Y169552D01*
X287250Y112150D02*
X297826Y122726D01*
X287250Y99450D02*
X301950Y114150D01*
X298250Y269250D02*
X375191Y346191D01*
X229350Y269250D02*
X298250D01*
X375191Y346191D02*
X376750D01*
X84526Y92474D02*
X119776D01*
X50400Y126600D02*
X84526Y92474D01*
X376750Y346191D02*
Y375130D01*
X175000Y363000D02*
X210559D01*
X213309Y360250D02*
X214500D01*
X210559Y363000D02*
X213309Y360250D01*
X227500Y376500D02*
X232000Y381000D01*
X232000D01*
X179750Y376500D02*
X227500D01*
X179000Y377250D02*
X179750Y376500D01*
X282000Y87000D02*
X282250Y86750D01*
X256500Y87000D02*
X282000D01*
X282250Y99450D02*
X287250D01*
X282250Y112150D02*
X287250D01*
X198500Y34750D02*
Y58800D01*
X277250Y137550D02*
X282250D01*
X198500Y58800D02*
X277250Y137550D01*
X223500Y34750D02*
Y71100D01*
X277250Y124850D01*
X302000Y55000D02*
X333750Y86750D01*
X302000Y35000D02*
Y55000D01*
X327000Y35000D02*
Y67300D01*
X333750Y74050D01*
X338750D01*
Y99450D02*
X340004Y98196D01*
X277250Y124850D02*
X282250D01*
X248441Y421000D02*
X250091Y422650D01*
X345437D01*
X247250Y421000D02*
X248441D01*
X136000Y391353D02*
X152250Y375103D01*
X136000Y391353D02*
Y399250D01*
X152250Y374750D02*
Y375103D01*
X86250Y372500D02*
X138750D01*
X355337Y412750D02*
X376750D01*
X345437Y422650D02*
X355337Y412750D01*
X63400Y395350D02*
X86250Y372500D01*
X25000Y406000D02*
X35650Y395350D01*
X63400D01*
X160250Y398500D02*
X161000Y399250D01*
X160250Y371000D02*
Y398500D01*
Y371000D02*
X161750Y369500D01*
Y363000D02*
Y369500D01*
X333750Y86750D02*
X338750D01*
X358424Y98196D02*
X360250Y96370D01*
X361880Y397880D02*
X376750Y412750D01*
X377250Y375750D02*
X377370D01*
X361880Y391000D02*
Y397880D01*
X362000Y391000D02*
X377250Y375750D01*
X361880Y391000D02*
X362000D01*
X376750Y375130D02*
X377370Y375750D01*
D18*
X329976Y177056D02*
D03*
X314736D02*
D03*
X255010Y340000D02*
D03*
X270250D02*
D03*
Y355750D02*
D03*
X255010D02*
D03*
X361880Y391000D02*
D03*
X377120D02*
D03*
X362130Y375750D02*
D03*
X377370D02*
D03*
D19*
X359250Y145630D02*
D03*
Y160870D02*
D03*
X261250Y146760D02*
D03*
Y162000D02*
D03*
X360250Y81130D02*
D03*
Y96370D02*
D03*
X359250Y112380D02*
D03*
X359250Y127620D02*
D03*
D23*
X231750Y290750D02*
D03*
X242526Y279974D02*
D03*
X288224Y242276D02*
D03*
X299000Y231500D02*
D03*
D37*
X212343Y273007D02*
X213050Y272300D01*
X212343Y273007D02*
Y297333D01*
X167250Y226500D02*
X213050Y272300D01*
X167250Y203500D02*
Y226500D01*
X223075Y282200D02*
X231625Y290750D01*
X222950Y282200D02*
X223075D01*
X231625Y290750D02*
X231750D01*
X174112Y195862D02*
X203155Y166819D01*
Y112905D02*
Y166819D01*
X174112Y195862D02*
Y195862D01*
X167250Y203500D02*
X174888Y195862D01*
Y195862D02*
Y195862D01*
Y195862D02*
X227388D01*
X174112D02*
X174888D01*
X227388D02*
X261250Y162000D01*
X213050Y272300D02*
X213450D01*
X255500Y230250D02*
X282500D01*
X213450Y272300D02*
X255500Y230250D01*
X282500D02*
X282750Y230500D01*
X212343Y297333D02*
X255010Y340000D01*
X232500Y301996D02*
Y302267D01*
X231750Y290750D02*
Y301246D01*
X232500Y301996D01*
X282750Y230500D02*
X295249D01*
X297842Y233093D01*
X299562Y230938D02*
X314736Y215764D01*
Y177056D02*
Y215764D01*
X251500Y399750D02*
Y399750D01*
Y394544D02*
Y399750D01*
X328031Y175111D02*
X329976Y177056D01*
X328031Y169243D02*
Y175111D01*
X326400Y167613D02*
X328031Y169243D01*
X326400Y157600D02*
Y167613D01*
Y157600D02*
X333750Y150250D01*
X338750D01*
X255010Y355750D02*
Y391034D01*
X115500Y25250D02*
X203155Y112905D01*
X89500Y25250D02*
X115500D01*
X255010Y340000D02*
Y355750D01*
X338750Y112650D02*
X338885Y112515D01*
X251500Y394544D02*
X255010Y391034D01*
X277250Y162950D02*
X282250D01*
X251500Y399750D02*
X251500Y399750D01*
X251500Y399750D02*
Y404571D01*
X236071Y420000D02*
X251500Y404571D01*
X100500Y420000D02*
X236071D01*
X86000Y399250D02*
Y405500D01*
X100500Y420000D01*
X261250Y162000D02*
X276300D01*
X277250Y162950D01*
X338750Y163450D02*
X343750D01*
X346330Y160870D02*
X359250D01*
X349385Y143685D02*
X357305D01*
X359250Y145630D01*
X343750Y163450D02*
X346330Y160870D01*
X340004Y98196D02*
X358424Y98196D01*
X359115Y112515D02*
X359250Y112380D01*
X356980Y125350D02*
X359250Y127620D01*
X338885Y112515D02*
X359115D01*
X338750Y125350D02*
X356980D01*
X343750Y138050D02*
X349385Y143685D01*
X338750Y138050D02*
X343750D01*
X393750Y393750D02*
X406000Y406000D01*
Y406000D01*
X381994Y393750D02*
X393750D01*
X379065Y392945D02*
X381189D01*
X381994Y393750D01*
X377120Y391000D02*
X379065Y392945D01*
D38*
X327000Y35000D02*
D03*
X302000D02*
D03*
X223500Y34750D02*
D03*
X198500D02*
D03*
X331750Y347750D02*
D03*
X376750D02*
D03*
X331750Y412750D02*
D03*
X376750D02*
D03*
D39*
X352000Y35000D02*
D03*
X248500Y34750D02*
D03*
D40*
X251500Y399750D02*
D03*
X86000Y399250D02*
D03*
X111000D02*
D03*
X136000D02*
D03*
X161000D02*
D03*
X186000D02*
D03*
D41*
X276500Y399750D02*
D03*
X211000Y399250D02*
D03*
D42*
X110508Y149992D02*
D03*
X144992Y115508D02*
D03*
D43*
X25000Y75800D02*
D03*
X50400Y75800D02*
D03*
X25000Y101200D02*
D03*
X50400Y101200D02*
D03*
X25000Y126600D02*
D03*
X50400Y126600D02*
D03*
X25000Y355200D02*
D03*
X50400Y355200D02*
D03*
X25000Y380600D02*
D03*
X50400D02*
D03*
X25000Y406000D02*
D03*
X50400Y329800D02*
D03*
X25000Y329800D02*
D03*
X50400Y304400D02*
D03*
X25000Y304400D02*
D03*
X50400Y279000D02*
D03*
X25000D02*
D03*
X50400Y253600D02*
D03*
X25000D02*
D03*
X50400Y228200D02*
D03*
X25000Y228200D02*
D03*
X50400Y202800D02*
D03*
X25000Y202800D02*
D03*
X50400Y177400D02*
D03*
X25000D02*
D03*
X50400Y152000D02*
D03*
X25000D02*
D03*
X50400Y50400D02*
D03*
Y25000D02*
D03*
X25000Y50400D02*
D03*
Y25000D02*
D03*
X406000Y75800D02*
D03*
X431400D02*
D03*
X406000Y101200D02*
D03*
X431400Y101200D02*
D03*
X406000Y126600D02*
D03*
X431400D02*
D03*
X406000Y355200D02*
D03*
X431400D02*
D03*
X406000Y380600D02*
D03*
X431400D02*
D03*
X406000Y406000D02*
D03*
X431400Y329800D02*
D03*
X406000Y329800D02*
D03*
X431400Y304400D02*
D03*
X406000D02*
D03*
X431400Y279000D02*
D03*
X406000D02*
D03*
X431400Y253600D02*
D03*
X406000D02*
D03*
X431400Y228200D02*
D03*
X406000D02*
D03*
X431400Y202800D02*
D03*
X406000D02*
D03*
X431400Y177400D02*
D03*
X406000Y177400D02*
D03*
X431400Y152000D02*
D03*
X406000D02*
D03*
X431400Y50400D02*
D03*
Y25000D02*
D03*
X406000Y50400D02*
D03*
Y25000D02*
D03*
D44*
X50400Y406000D02*
D03*
X431400D02*
D03*
D45*
X443841Y420871D02*
D03*
Y384871D02*
D03*
Y375871D02*
D03*
Y366871D02*
D03*
Y348871D02*
D03*
Y339871D02*
D03*
Y321871D02*
D03*
Y312871D02*
D03*
Y294871D02*
D03*
Y285870D02*
D03*
Y267871D02*
D03*
Y258871D02*
D03*
Y249870D02*
D03*
Y240870D02*
D03*
Y231870D02*
D03*
Y222871D02*
D03*
Y213871D02*
D03*
Y195870D02*
D03*
Y186870D02*
D03*
Y168871D02*
D03*
Y159870D02*
D03*
Y141870D02*
D03*
Y132870D02*
D03*
Y114870D02*
D03*
Y105870D02*
D03*
Y96870D02*
D03*
Y87870D02*
D03*
Y69870D02*
D03*
Y60870D02*
D03*
Y42870D02*
D03*
Y33870D02*
D03*
Y15870D02*
D03*
X434841Y420871D02*
D03*
Y240870D02*
D03*
X425841Y420871D02*
D03*
Y366871D02*
D03*
Y87870D02*
D03*
X416841Y420871D02*
D03*
Y393871D02*
D03*
Y312871D02*
D03*
Y267871D02*
D03*
Y87870D02*
D03*
X407841Y420871D02*
D03*
X398841D02*
D03*
Y267871D02*
D03*
X389841Y420871D02*
D03*
Y411871D02*
D03*
Y402871D02*
D03*
Y267871D02*
D03*
Y258871D02*
D03*
Y213871D02*
D03*
X380841Y42870D02*
D03*
Y33870D02*
D03*
Y24870D02*
D03*
Y15870D02*
D03*
X371841Y51870D02*
D03*
Y42870D02*
D03*
Y33870D02*
D03*
Y24870D02*
D03*
Y15870D02*
D03*
X362841Y420871D02*
D03*
Y348871D02*
D03*
Y222871D02*
D03*
Y60870D02*
D03*
Y51870D02*
D03*
Y15870D02*
D03*
X353841Y402871D02*
D03*
Y222871D02*
D03*
Y60870D02*
D03*
Y51870D02*
D03*
Y15870D02*
D03*
X344841Y411871D02*
D03*
Y402871D02*
D03*
Y348871D02*
D03*
Y222871D02*
D03*
Y60870D02*
D03*
Y51870D02*
D03*
Y15870D02*
D03*
X335841Y222871D02*
D03*
Y60870D02*
D03*
Y51870D02*
D03*
Y24870D02*
D03*
Y15870D02*
D03*
X326841D02*
D03*
X317841Y411871D02*
D03*
Y384871D02*
D03*
Y375871D02*
D03*
Y60870D02*
D03*
Y51870D02*
D03*
Y24870D02*
D03*
Y15870D02*
D03*
X308841Y393871D02*
D03*
Y384871D02*
D03*
Y375871D02*
D03*
Y366871D02*
D03*
Y51870D02*
D03*
Y24870D02*
D03*
Y15870D02*
D03*
X299841Y402871D02*
D03*
Y393871D02*
D03*
Y384871D02*
D03*
Y375871D02*
D03*
Y366871D02*
D03*
Y357871D02*
D03*
Y213871D02*
D03*
Y204870D02*
D03*
Y195870D02*
D03*
Y60870D02*
D03*
Y15870D02*
D03*
X290840Y402871D02*
D03*
Y393871D02*
D03*
Y384871D02*
D03*
Y375871D02*
D03*
Y366871D02*
D03*
Y357871D02*
D03*
Y348871D02*
D03*
Y222871D02*
D03*
Y213871D02*
D03*
Y204870D02*
D03*
Y195870D02*
D03*
Y60870D02*
D03*
Y51870D02*
D03*
Y42870D02*
D03*
Y24870D02*
D03*
Y15870D02*
D03*
X281840Y375871D02*
D03*
Y366871D02*
D03*
Y357871D02*
D03*
Y348871D02*
D03*
Y339871D02*
D03*
Y249870D02*
D03*
Y222871D02*
D03*
Y213871D02*
D03*
Y204870D02*
D03*
Y60870D02*
D03*
Y51870D02*
D03*
Y42870D02*
D03*
Y33870D02*
D03*
Y24870D02*
D03*
Y15870D02*
D03*
X272840Y375871D02*
D03*
Y366871D02*
D03*
Y330871D02*
D03*
Y258871D02*
D03*
Y249870D02*
D03*
Y240870D02*
D03*
Y222871D02*
D03*
Y213871D02*
D03*
Y177871D02*
D03*
Y60870D02*
D03*
Y51870D02*
D03*
Y42870D02*
D03*
Y33870D02*
D03*
Y24870D02*
D03*
Y15870D02*
D03*
X263841Y384871D02*
D03*
Y375871D02*
D03*
Y366871D02*
D03*
Y330871D02*
D03*
Y258871D02*
D03*
Y249870D02*
D03*
Y240870D02*
D03*
Y222871D02*
D03*
Y186870D02*
D03*
Y177871D02*
D03*
Y78870D02*
D03*
Y69870D02*
D03*
Y60870D02*
D03*
Y51870D02*
D03*
Y42870D02*
D03*
Y33870D02*
D03*
Y24870D02*
D03*
Y15870D02*
D03*
X254841Y276870D02*
D03*
Y195870D02*
D03*
Y186870D02*
D03*
Y78870D02*
D03*
Y69870D02*
D03*
Y60870D02*
D03*
Y51870D02*
D03*
Y15870D02*
D03*
X245840Y384871D02*
D03*
Y375871D02*
D03*
Y366871D02*
D03*
Y357871D02*
D03*
Y348871D02*
D03*
Y204870D02*
D03*
Y195870D02*
D03*
Y159870D02*
D03*
Y150870D02*
D03*
Y141870D02*
D03*
Y78870D02*
D03*
Y69870D02*
D03*
Y60870D02*
D03*
Y51870D02*
D03*
Y15870D02*
D03*
X236840Y366871D02*
D03*
Y357871D02*
D03*
Y348871D02*
D03*
Y339871D02*
D03*
Y231870D02*
D03*
Y222871D02*
D03*
Y213871D02*
D03*
Y204870D02*
D03*
Y168871D02*
D03*
Y159870D02*
D03*
Y150870D02*
D03*
Y141870D02*
D03*
Y132870D02*
D03*
Y69870D02*
D03*
Y60870D02*
D03*
Y51870D02*
D03*
Y15870D02*
D03*
X227840Y411871D02*
D03*
Y366871D02*
D03*
Y357871D02*
D03*
Y348871D02*
D03*
Y339871D02*
D03*
Y330871D02*
D03*
Y240870D02*
D03*
Y231870D02*
D03*
Y222871D02*
D03*
Y213871D02*
D03*
Y204870D02*
D03*
Y177871D02*
D03*
Y168871D02*
D03*
Y159870D02*
D03*
Y150870D02*
D03*
Y141870D02*
D03*
Y15870D02*
D03*
X218841Y366871D02*
D03*
Y249870D02*
D03*
Y240870D02*
D03*
Y231870D02*
D03*
Y222871D02*
D03*
Y213871D02*
D03*
Y204870D02*
D03*
Y186870D02*
D03*
Y177871D02*
D03*
Y168871D02*
D03*
Y159870D02*
D03*
Y150870D02*
D03*
Y15870D02*
D03*
X209841Y240870D02*
D03*
Y231870D02*
D03*
Y222871D02*
D03*
Y213871D02*
D03*
Y204870D02*
D03*
Y186870D02*
D03*
Y177871D02*
D03*
Y60870D02*
D03*
Y51870D02*
D03*
Y42870D02*
D03*
Y24870D02*
D03*
Y15870D02*
D03*
X200840Y231870D02*
D03*
Y222871D02*
D03*
Y213871D02*
D03*
Y204870D02*
D03*
Y186870D02*
D03*
Y15870D02*
D03*
X191840Y222871D02*
D03*
Y213871D02*
D03*
Y15870D02*
D03*
X182840Y33870D02*
D03*
Y24870D02*
D03*
Y15870D02*
D03*
X173840Y402871D02*
D03*
Y33870D02*
D03*
Y24870D02*
D03*
Y15870D02*
D03*
X164840Y123870D02*
D03*
Y114870D02*
D03*
Y105870D02*
D03*
Y96870D02*
D03*
Y87870D02*
D03*
Y33870D02*
D03*
Y24870D02*
D03*
Y15870D02*
D03*
X155840Y222871D02*
D03*
Y213871D02*
D03*
Y204870D02*
D03*
Y132870D02*
D03*
Y123870D02*
D03*
Y105870D02*
D03*
Y96870D02*
D03*
Y87870D02*
D03*
Y33870D02*
D03*
Y24870D02*
D03*
Y15870D02*
D03*
X146840Y213871D02*
D03*
Y96870D02*
D03*
Y87870D02*
D03*
Y33870D02*
D03*
Y24870D02*
D03*
Y15870D02*
D03*
X137840Y141870D02*
D03*
Y132870D02*
D03*
Y96870D02*
D03*
Y15870D02*
D03*
X128840Y222871D02*
D03*
Y168871D02*
D03*
Y159870D02*
D03*
Y141870D02*
D03*
Y132870D02*
D03*
Y123870D02*
D03*
Y114870D02*
D03*
Y15870D02*
D03*
X119840Y168871D02*
D03*
Y159870D02*
D03*
Y141870D02*
D03*
Y132870D02*
D03*
Y123870D02*
D03*
Y114870D02*
D03*
Y105870D02*
D03*
Y15870D02*
D03*
X110840Y168871D02*
D03*
Y132870D02*
D03*
Y123870D02*
D03*
Y114870D02*
D03*
Y15870D02*
D03*
X101840Y168871D02*
D03*
Y159870D02*
D03*
Y132870D02*
D03*
Y123870D02*
D03*
Y78870D02*
D03*
Y15870D02*
D03*
X92840Y168871D02*
D03*
Y159870D02*
D03*
Y150870D02*
D03*
Y141870D02*
D03*
Y105870D02*
D03*
Y15870D02*
D03*
X83840Y168871D02*
D03*
Y159870D02*
D03*
Y150870D02*
D03*
Y141870D02*
D03*
Y114870D02*
D03*
Y105870D02*
D03*
Y15870D02*
D03*
X74840Y168871D02*
D03*
Y159870D02*
D03*
Y150870D02*
D03*
Y141870D02*
D03*
Y132870D02*
D03*
Y123870D02*
D03*
Y114870D02*
D03*
Y24870D02*
D03*
Y15870D02*
D03*
X65840Y402871D02*
D03*
Y168871D02*
D03*
Y159870D02*
D03*
Y150870D02*
D03*
Y141870D02*
D03*
Y132870D02*
D03*
Y123870D02*
D03*
Y24870D02*
D03*
Y15870D02*
D03*
X56840Y420871D02*
D03*
X47840D02*
D03*
X38840D02*
D03*
Y348871D02*
D03*
Y195870D02*
D03*
Y168871D02*
D03*
Y159870D02*
D03*
Y141870D02*
D03*
Y132870D02*
D03*
Y69870D02*
D03*
Y15870D02*
D03*
X29840Y420871D02*
D03*
Y240870D02*
D03*
X20840Y420871D02*
D03*
Y240870D02*
D03*
X11840Y420871D02*
D03*
Y411871D02*
D03*
Y402871D02*
D03*
Y393871D02*
D03*
Y384871D02*
D03*
Y375871D02*
D03*
Y366871D02*
D03*
Y357871D02*
D03*
Y348871D02*
D03*
Y339871D02*
D03*
Y330871D02*
D03*
Y321871D02*
D03*
Y312871D02*
D03*
Y303871D02*
D03*
Y294871D02*
D03*
Y285870D02*
D03*
Y276870D02*
D03*
Y267871D02*
D03*
Y258871D02*
D03*
Y249870D02*
D03*
Y240870D02*
D03*
Y231870D02*
D03*
Y222871D02*
D03*
Y213871D02*
D03*
Y204870D02*
D03*
Y195870D02*
D03*
Y186870D02*
D03*
Y177871D02*
D03*
Y168871D02*
D03*
Y159870D02*
D03*
Y150870D02*
D03*
Y141870D02*
D03*
Y132870D02*
D03*
Y123870D02*
D03*
Y114870D02*
D03*
Y105870D02*
D03*
Y96870D02*
D03*
Y87870D02*
D03*
Y78870D02*
D03*
Y69870D02*
D03*
Y60870D02*
D03*
Y51870D02*
D03*
Y42870D02*
D03*
Y33870D02*
D03*
Y24870D02*
D03*
Y15870D02*
D03*
X146250Y158250D02*
D03*
X169250Y133729D02*
D03*
X163240Y139740D02*
D03*
X132500Y86250D02*
D03*
X259500Y317250D02*
D03*
X224500Y96000D02*
D03*
X109490Y83760D02*
D03*
X115500Y77750D02*
D03*
X124000D02*
D03*
X132500D02*
D03*
X141000D02*
D03*
X149500D02*
D03*
X169250Y145750D02*
D03*
X137750Y166750D02*
D03*
X146250D02*
D03*
X224500Y104500D02*
D03*
X154750Y166750D02*
D03*
X320880Y263000D02*
D03*
X329380D02*
D03*
X337880D02*
D03*
X382495Y216000D02*
D03*
X373995D02*
D03*
X365495D02*
D03*
X356995D02*
D03*
X348495D02*
D03*
X339995D02*
D03*
X121750Y225000D02*
D03*
X113250D02*
D03*
X104750D02*
D03*
X96250D02*
D03*
X87750D02*
D03*
X70750D02*
D03*
D03*
X79250D02*
D03*
X331495Y216000D02*
D03*
X136250Y216250D02*
D03*
X354250Y349250D02*
D03*
X173250Y247000D02*
D03*
X249438Y214428D02*
D03*
X244000Y226000D02*
D03*
X229350Y269250D02*
D03*
X196750Y388000D02*
D03*
Y370000D02*
D03*
Y352000D02*
D03*
Y343000D02*
D03*
Y334000D02*
D03*
Y325000D02*
D03*
X270250Y355750D02*
D03*
Y340000D02*
D03*
X232500Y302267D02*
D03*
X184888Y206638D02*
D03*
X288224Y242276D02*
D03*
X299000Y231500D02*
D03*
X174112Y195862D02*
D03*
X119776Y92474D02*
D03*
X214500Y360250D02*
D03*
X175000Y363000D02*
D03*
X256500Y87000D02*
D03*
X346380Y263000D02*
D03*
X278000Y74000D02*
D03*
X137000Y25500D02*
D03*
X232000Y381000D02*
D03*
X179000Y377250D02*
D03*
X152250Y374750D02*
D03*
X138750Y372500D02*
D03*
X247250Y421000D02*
D03*
X89500Y25250D02*
D03*
X377120Y391000D02*
D03*
D46*
X222950Y282200D02*
D03*
X213050Y272300D02*
D03*
D47*
X282250Y74050D02*
D03*
Y86750D02*
D03*
Y99450D02*
D03*
Y112150D02*
D03*
Y124850D02*
D03*
Y137550D02*
D03*
Y150250D02*
D03*
Y162950D02*
D03*
X338750Y74050D02*
D03*
Y86750D02*
D03*
Y99450D02*
D03*
Y112150D02*
D03*
Y124850D02*
D03*
Y137550D02*
D03*
Y150250D02*
D03*
Y162950D02*
D03*
D48*
X184888Y206638D02*
D03*
X174112Y195862D02*
D03*
M02*
