G04*
G04 #@! TF.GenerationSoftware,Altium Limited,Altium NEXUS,4.0.7 (54)*
G04*
G04 Layer_Color=65535*
%FSLAX44Y44*%
%MOMM*%
G71*
G04*
G04 #@! TF.SameCoordinates,2F636ACE-6931-4982-A4A6-23C36C612785*
G04*
G04*
G04 #@! TF.FilePolarity,Positive*
G04*
G01*
G75*
%ADD10C,0.1400*%
%ADD11C,0.6000*%
%ADD12C,0.2500*%
%ADD13C,0.1270*%
%ADD14C,0.2000*%
%ADD15C,0.2540*%
%ADD16C,0.1250*%
%ADD17C,0.1600*%
D10*
X132700Y92445D02*
G03*
X168055Y127800I17678J17678D01*
G01*
X122800Y173055D02*
G03*
X87445Y137700I-17678J-17678D01*
G01*
X87442Y137703D02*
X132703Y92442D01*
X122797Y173058D02*
X168058Y127797D01*
X114280Y128260D02*
X132240Y146220D01*
X141220Y137240D01*
X123260Y119280D02*
X141220Y137240D01*
X114280Y128260D02*
X123260Y119280D01*
X109789Y132750D02*
X127750Y150710D01*
Y114789D02*
X145710Y132750D01*
D11*
X235500Y291660D02*
G03*
X235500Y291660I-3000J0D01*
G01*
D12*
X227916Y318354D02*
G03*
X227916Y318354I-1250J0D01*
G01*
D13*
X371750Y380250D02*
G03*
X371750Y380250I-17500J0D01*
G01*
X97120Y19250D02*
Y21250D01*
Y29250D02*
Y31250D01*
X111090Y18900D02*
Y31600D01*
X83150D02*
X111090D01*
X83150Y18900D02*
Y31600D01*
Y18900D02*
X111090D01*
X380000Y255250D02*
X382000D01*
X370000D02*
X372000D01*
X369650Y269220D02*
X382350D01*
X369650Y241280D02*
Y269220D01*
Y241280D02*
X382350D01*
Y269220D01*
X341850Y411250D02*
X366650D01*
X323250Y355450D02*
Y405050D01*
X385250Y355450D02*
Y405050D01*
X341850Y349250D02*
X366650D01*
X340665Y256650D02*
X367335D01*
X340665D02*
Y269350D01*
X367335D01*
Y256650D02*
Y269350D01*
X355270Y259190D02*
Y266810D01*
X354000Y264905D02*
X355270Y266810D01*
X352730Y263000D02*
X354000Y264905D01*
X352730Y263000D02*
X354000Y261095D01*
X355270Y259190D01*
X354635Y260460D02*
Y265540D01*
X354000Y261095D02*
Y264905D01*
X116045Y31850D02*
X142715D01*
Y19150D02*
Y31850D01*
X116045Y19150D02*
X142715D01*
X116045D02*
Y31850D01*
X128110Y21690D02*
Y29310D01*
Y21690D02*
X129380Y23595D01*
X130650Y25500D01*
X129380Y27405D02*
X130650Y25500D01*
X128110Y29310D02*
X129380Y27405D01*
X128745Y22960D02*
Y28040D01*
X129380Y23595D02*
Y27405D01*
X115802Y99276D02*
X116686Y100160D01*
X114565Y99806D02*
X116333Y98039D01*
X112444Y97685D02*
X114211Y95917D01*
X112090Y95564D02*
X112974Y96448D01*
X100020Y103250D02*
X109000Y112230D01*
X100020Y103250D02*
X119776Y83493D01*
X128757Y92474D01*
X109000Y112230D02*
X128757Y92474D01*
X90702Y117202D02*
X91586Y118086D01*
X91055Y119323D02*
X92823Y117555D01*
X93177Y121445D02*
X94944Y119677D01*
X94414Y120914D02*
X95298Y121798D01*
X98388Y105132D02*
X107368Y114112D01*
X87612Y133868D02*
X107368Y114112D01*
X78632Y124888D02*
X87612Y133868D01*
X78632Y124888D02*
X98388Y105132D01*
D14*
X277500Y43000D02*
X287500Y53000D01*
X376500D01*
Y4000D02*
Y53000D01*
X277500Y4000D02*
X376500D01*
X277500D02*
Y43000D01*
X284500Y39000D02*
X294500Y49000D01*
X369500D01*
Y14000D02*
Y49000D01*
X284500Y14000D02*
X369500D01*
X284500D02*
Y39000D01*
X174000Y42750D02*
X184000Y52750D01*
X273000D01*
Y3750D02*
Y52750D01*
X174000Y3750D02*
X273000D01*
X174000D02*
Y42750D01*
X181000Y38750D02*
X191000Y48750D01*
X266000D01*
Y13750D02*
Y48750D01*
X181000Y13750D02*
X266000D01*
X181000D02*
X181000Y38750D01*
X142697Y216000D02*
X232500Y126197D01*
Y305803D02*
X322303Y216000D01*
X232500Y126197D02*
X322303Y216000D01*
X142697D02*
X232500Y305803D01*
D15*
X238600Y369250D02*
Y430250D01*
X276700Y419251D02*
Y430150D01*
X251300Y419251D02*
Y430150D01*
Y419251D02*
X276700D01*
X289400Y369250D02*
Y430250D01*
X238600Y369250D02*
X289400D01*
X238600Y430250D02*
X289400D01*
X73100Y429750D02*
X223900D01*
X73100Y368750D02*
X223900D01*
Y429750D01*
X85800Y418751D02*
X211200D01*
X85800D02*
Y429650D01*
X211200Y418751D02*
Y429650D01*
X73100Y368750D02*
Y429750D01*
D16*
X96120Y26250D02*
X98120Y28250D01*
X97120Y29250D02*
X98124Y28246D01*
X96120Y26250D02*
X98120Y24250D01*
X96120Y22250D02*
X98120Y24250D01*
X96120Y22250D02*
X97124Y21246D01*
X373000Y256250D02*
X375000Y254250D01*
X372000Y255250D02*
X373004Y256254D01*
X375000Y254250D02*
X377000Y256250D01*
Y256250D02*
X379000Y254250D01*
Y254250D02*
X380004Y255254D01*
D17*
X327251Y335083D02*
X326085Y336249D01*
X323752D01*
X322586Y335083D01*
Y333916D01*
X323752Y332750D01*
X326085D01*
X327251Y331584D01*
Y330417D01*
X326085Y329251D01*
X323752D01*
X322586Y330417D01*
X329584Y336249D02*
Y329251D01*
X331916Y331584D01*
X334249Y329251D01*
Y336249D01*
X336581Y329251D02*
X338914D01*
X337748D01*
Y336249D01*
X336581Y335083D01*
X83168Y9501D02*
Y16499D01*
X86667D01*
X87834Y15333D01*
Y13000D01*
X86667Y11834D01*
X83168D01*
X85501D02*
X87834Y9501D01*
X94831D02*
X90166D01*
X94831Y14166D01*
Y15333D01*
X93665Y16499D01*
X91333D01*
X90166Y15333D01*
X115419Y16749D02*
Y9751D01*
X118917D01*
X120084Y10917D01*
Y15583D01*
X118917Y16749D01*
X115419D01*
X127081Y9751D02*
X122416D01*
X127081Y14416D01*
Y15583D01*
X125915Y16749D01*
X123583D01*
X122416Y15583D01*
X68925Y149273D02*
X68101Y148448D01*
Y145149D01*
X71399D01*
X72224Y145974D01*
X68101Y145149D02*
X65627Y142675D01*
X68925Y139376D02*
X70575Y137727D01*
X69750Y138552D01*
X74698Y143500D01*
X73049D01*
X258175Y327773D02*
X254052Y323649D01*
Y322000D01*
X255701Y320351D01*
X257351D01*
X261474Y324474D01*
X258175Y317876D02*
X259825Y316227D01*
X259000Y317052D01*
X263948Y322000D01*
X262299D01*
X372585Y229751D02*
Y236749D01*
X376084D01*
X377250Y235583D01*
Y233250D01*
X376084Y232084D01*
X372585D01*
X374917D02*
X377250Y229751D01*
X379583D02*
X381915D01*
X380749D01*
Y236749D01*
X379583Y235583D01*
X181700Y64407D02*
X179367D01*
X180534D01*
Y58575D01*
X179367Y57409D01*
X178201D01*
X177035Y58575D01*
X187532Y57409D02*
Y64407D01*
X184033Y60908D01*
X188698D01*
X239834Y364249D02*
X237501D01*
X238667D01*
Y358417D01*
X237501Y357251D01*
X236335D01*
X235168Y358417D01*
X246831Y357251D02*
X242166D01*
X246831Y361916D01*
Y363083D01*
X245665Y364249D01*
X243333D01*
X242166Y363083D01*
X288834Y65999D02*
X286501D01*
X287667D01*
Y60167D01*
X286501Y59001D01*
X285335D01*
X284168Y60167D01*
X291166Y64833D02*
X292333Y65999D01*
X294665D01*
X295832Y64833D01*
Y63666D01*
X294665Y62500D01*
X293499D01*
X294665D01*
X295832Y61334D01*
Y60167D01*
X294665Y59001D01*
X292333D01*
X291166Y60167D01*
X75500Y362749D02*
X73167D01*
X74334D01*
Y356917D01*
X73167Y355751D01*
X72001D01*
X70835Y356917D01*
X77833Y355751D02*
X80165D01*
X78999D01*
Y362749D01*
X77833Y361583D01*
X341335Y253499D02*
Y246501D01*
X344834D01*
X346000Y247667D01*
Y252333D01*
X344834Y253499D01*
X341335D01*
X348333Y246501D02*
X350665D01*
X349499D01*
Y253499D01*
X348333Y252333D01*
X78825Y118224D02*
Y119874D01*
X77175Y121523D01*
X75526D01*
X72227Y118224D01*
Y116575D01*
X73877Y114925D01*
X75526D01*
X78825Y109977D02*
X83773Y114925D01*
X78825D01*
X82123Y111627D01*
X100325Y96974D02*
Y98624D01*
X98675Y100273D01*
X97026D01*
X93727Y96974D01*
Y95325D01*
X95377Y93675D01*
X97026D01*
X101974Y95325D02*
X103624D01*
X105273Y93675D01*
Y92026D01*
X104448Y91201D01*
X102799D01*
X101974Y92026D01*
X102799Y91201D01*
Y89552D01*
X101974Y88727D01*
X100325D01*
X98675Y90377D01*
Y92026D01*
M02*
