G04*
G04 #@! TF.GenerationSoftware,Altium Limited,Altium NEXUS,4.0.7 (54)*
G04*
G04 Layer_Color=8388736*
%FSLAX44Y44*%
%MOMM*%
G71*
G04*
G04 #@! TF.SameCoordinates,2F636ACE-6931-4982-A4A6-23C36C612785*
G04*
G04*
G04 #@! TF.FilePolarity,Negative*
G04*
G01*
G75*
G04:AMPARAMS|DCode=24|XSize=1.0922mm|YSize=1.0922mm|CornerRadius=0.2127mm|HoleSize=0mm|Usage=FLASHONLY|Rotation=180.000|XOffset=0mm|YOffset=0mm|HoleType=Round|Shape=RoundedRectangle|*
%AMROUNDEDRECTD24*
21,1,1.0922,0.6668,0,0,180.0*
21,1,0.6668,1.0922,0,0,180.0*
1,1,0.4255,-0.3334,0.3334*
1,1,0.4255,0.3334,0.3334*
1,1,0.4255,0.3334,-0.3334*
1,1,0.4255,-0.3334,-0.3334*
%
%ADD24ROUNDEDRECTD24*%
G04:AMPARAMS|DCode=25|XSize=1.0922mm|YSize=1.0922mm|CornerRadius=0.2127mm|HoleSize=0mm|Usage=FLASHONLY|Rotation=270.000|XOffset=0mm|YOffset=0mm|HoleType=Round|Shape=RoundedRectangle|*
%AMROUNDEDRECTD25*
21,1,1.0922,0.6668,0,0,270.0*
21,1,0.6668,1.0922,0,0,270.0*
1,1,0.4255,-0.3334,-0.3334*
1,1,0.4255,-0.3334,0.3334*
1,1,0.4255,0.3334,0.3334*
1,1,0.4255,0.3334,-0.3334*
%
%ADD25ROUNDEDRECTD25*%
G04:AMPARAMS|DCode=26|XSize=0.7532mm|YSize=1.9532mm|CornerRadius=0mm|HoleSize=0mm|Usage=FLASHONLY|Rotation=315.000|XOffset=0mm|YOffset=0mm|HoleType=Round|Shape=Round|*
%AMOVALD26*
21,1,1.2000,0.7532,0.0000,0.0000,45.0*
1,1,0.7532,-0.4243,-0.4243*
1,1,0.7532,0.4243,0.4243*
%
%ADD26OVALD26*%

G04:AMPARAMS|DCode=27|XSize=0.7532mm|YSize=1.9532mm|CornerRadius=0mm|HoleSize=0mm|Usage=FLASHONLY|Rotation=45.000|XOffset=0mm|YOffset=0mm|HoleType=Round|Shape=Round|*
%AMOVALD27*
21,1,1.2000,0.7532,0.0000,0.0000,135.0*
1,1,0.7532,0.4243,-0.4243*
1,1,0.7532,-0.4243,0.4243*
%
%ADD27OVALD27*%

G04:AMPARAMS|DCode=28|XSize=0.9652mm|YSize=1.0922mm|CornerRadius=0.1969mm|HoleSize=0mm|Usage=FLASHONLY|Rotation=180.000|XOffset=0mm|YOffset=0mm|HoleType=Round|Shape=RoundedRectangle|*
%AMROUNDEDRECTD28*
21,1,0.9652,0.6985,0,0,180.0*
21,1,0.5715,1.0922,0,0,180.0*
1,1,0.3937,-0.2858,0.3493*
1,1,0.3937,0.2858,0.3493*
1,1,0.3937,0.2858,-0.3493*
1,1,0.3937,-0.2858,-0.3493*
%
%ADD28ROUNDEDRECTD28*%
G04:AMPARAMS|DCode=29|XSize=1.0922mm|YSize=1.0922mm|CornerRadius=0.2127mm|HoleSize=0mm|Usage=FLASHONLY|Rotation=315.000|XOffset=0mm|YOffset=0mm|HoleType=Round|Shape=RoundedRectangle|*
%AMROUNDEDRECTD29*
21,1,1.0922,0.6668,0,0,315.0*
21,1,0.6668,1.0922,0,0,315.0*
1,1,0.4255,0.0000,-0.4715*
1,1,0.4255,-0.4715,0.0000*
1,1,0.4255,0.0000,0.4715*
1,1,0.4255,0.4715,0.0000*
%
%ADD29ROUNDEDRECTD29*%
%ADD30C,1.7032*%
%ADD31R,1.7032X1.7032*%
%ADD32O,1.7032X2.2032*%
%ADD33R,1.7032X2.2032*%
%ADD34C,1.5240*%
%ADD35C,1.8532*%
%ADD36R,1.8532X1.8532*%
D24*
X89500Y25250D02*
D03*
X104740D02*
D03*
D25*
X376000Y247630D02*
D03*
Y262870D02*
D03*
D26*
X244167Y312520D02*
D03*
X249824Y306863D02*
D03*
X255481Y301206D02*
D03*
X261138Y295550D02*
D03*
X266795Y289893D02*
D03*
X272451Y284236D02*
D03*
X278108Y278579D02*
D03*
X283765Y272922D02*
D03*
X289422Y267265D02*
D03*
X295079Y261608D02*
D03*
X300736Y255951D02*
D03*
X306393Y250295D02*
D03*
X312050Y244638D02*
D03*
X317706Y238981D02*
D03*
X323363Y233324D02*
D03*
X329020Y227667D02*
D03*
X220833Y119480D02*
D03*
X215176Y125137D02*
D03*
X209519Y130794D02*
D03*
X203862Y136451D02*
D03*
X198205Y142107D02*
D03*
X192549Y147764D02*
D03*
X186892Y153421D02*
D03*
X181235Y159078D02*
D03*
X175578Y164735D02*
D03*
X169921Y170392D02*
D03*
X164264Y176049D02*
D03*
X158607Y181705D02*
D03*
X152950Y187362D02*
D03*
X147294Y193019D02*
D03*
X141637Y198676D02*
D03*
X135980Y204333D02*
D03*
D27*
X329020D02*
D03*
X323363Y198676D02*
D03*
X317706Y193019D02*
D03*
X312050Y187362D02*
D03*
X306393Y181705D02*
D03*
X300736Y176049D02*
D03*
X295079Y170392D02*
D03*
X289422Y164735D02*
D03*
X283765Y159078D02*
D03*
X278108Y153421D02*
D03*
X272451Y147764D02*
D03*
X266795Y142107D02*
D03*
X261138Y136451D02*
D03*
X255481Y130794D02*
D03*
X249824Y125137D02*
D03*
X244167Y119480D02*
D03*
X135980Y227667D02*
D03*
X141637Y233324D02*
D03*
X147294Y238981D02*
D03*
X152950Y244638D02*
D03*
X158607Y250295D02*
D03*
X164264Y255951D02*
D03*
X169921Y261608D02*
D03*
X175578Y267265D02*
D03*
X181235Y272922D02*
D03*
X186892Y278579D02*
D03*
X192549Y284236D02*
D03*
X198205Y289893D02*
D03*
X203862Y295550D02*
D03*
X209519Y301206D02*
D03*
X215176Y306863D02*
D03*
X220833Y312520D02*
D03*
D28*
X361620Y263000D02*
D03*
X346380D02*
D03*
X121760Y25500D02*
D03*
X137000D02*
D03*
D29*
X119776Y92474D02*
D03*
X109000Y103250D02*
D03*
X87612Y124888D02*
D03*
X98388Y114112D02*
D03*
D30*
X327000Y35000D02*
D03*
X302000D02*
D03*
X223500Y34750D02*
D03*
X198500D02*
D03*
X331750Y347750D02*
D03*
X376750D02*
D03*
X331750Y412750D02*
D03*
X376750D02*
D03*
D31*
X352000Y35000D02*
D03*
X248500Y34750D02*
D03*
D32*
X251500Y399750D02*
D03*
X86000Y399250D02*
D03*
X111000D02*
D03*
X136000D02*
D03*
X161000D02*
D03*
X186000D02*
D03*
D33*
X276500Y399750D02*
D03*
X211000Y399250D02*
D03*
D34*
X110508Y149992D02*
D03*
X144992Y115508D02*
D03*
D35*
X25000Y75800D02*
D03*
X50400Y75800D02*
D03*
X25000Y101200D02*
D03*
X50400Y101200D02*
D03*
X25000Y126600D02*
D03*
X50400Y126600D02*
D03*
X25000Y355200D02*
D03*
X50400Y355200D02*
D03*
X25000Y380600D02*
D03*
X50400D02*
D03*
X25000Y406000D02*
D03*
X50400Y329800D02*
D03*
X25000Y329800D02*
D03*
X50400Y304400D02*
D03*
X25000Y304400D02*
D03*
X50400Y279000D02*
D03*
X25000D02*
D03*
X50400Y253600D02*
D03*
X25000D02*
D03*
X50400Y228200D02*
D03*
X25000Y228200D02*
D03*
X50400Y202800D02*
D03*
X25000Y202800D02*
D03*
X50400Y177400D02*
D03*
X25000D02*
D03*
X50400Y152000D02*
D03*
X25000D02*
D03*
X50400Y50400D02*
D03*
Y25000D02*
D03*
X25000Y50400D02*
D03*
Y25000D02*
D03*
X406000Y75800D02*
D03*
X431400D02*
D03*
X406000Y101200D02*
D03*
X431400Y101200D02*
D03*
X406000Y126600D02*
D03*
X431400D02*
D03*
X406000Y355200D02*
D03*
X431400D02*
D03*
X406000Y380600D02*
D03*
X431400D02*
D03*
X406000Y406000D02*
D03*
X431400Y329800D02*
D03*
X406000Y329800D02*
D03*
X431400Y304400D02*
D03*
X406000D02*
D03*
X431400Y279000D02*
D03*
X406000D02*
D03*
X431400Y253600D02*
D03*
X406000D02*
D03*
X431400Y228200D02*
D03*
X406000D02*
D03*
X431400Y202800D02*
D03*
X406000D02*
D03*
X431400Y177400D02*
D03*
X406000Y177400D02*
D03*
X431400Y152000D02*
D03*
X406000D02*
D03*
X431400Y50400D02*
D03*
Y25000D02*
D03*
X406000Y50400D02*
D03*
Y25000D02*
D03*
D36*
X50400Y406000D02*
D03*
X431400D02*
D03*
M02*
