M48
;Layer_Color=9474304
;FILE_FORMAT=4:4
METRIC,LZ
;TYPE=PLATED
T1F00S00C0.3000
T2F00S00C0.7000
T3F00S00C0.9500
T4F00S00C1.1000
T6F00S00C1.8000
;TYPE=NON_PLATED
%
T01
X00272Y01088
X00288
Y01103999
Y01119999
X00272
Y01103999
X00304Y01136
X0032
X00336
X00352
X00368
Y01152
Y01167999
Y01183999
X00384
X00352
Y01167999
Y01152
X00336
X0032
X00304
X00288Y01167999
Y01183999
X00272
X00401Y0119
X0041Y0119
X00419Y0119
X00428Y0119
X00437Y0119
X00464Y01183999
X00496
X00512
X00528
X00544
X0056
X00576
X00592
X00608
X00624
X0064
Y01167999
Y01152
Y01136
Y01119999
Y01103999
Y01088
X00624
Y01103999
Y01119999
Y01136
Y01152
Y01167999
X00608
Y01152
Y01136
Y01119999
Y01103999
Y01088
X00592
Y01103999
Y01119999
Y01136
Y01152
Y01167999
X00576
Y01152
Y01136
Y01119999
Y01103999
Y01088
X0056
Y01103999
X00544
Y01119999
Y01136
Y01152
X0056
Y01167999
X00544
X00528Y01119999
Y01103999
Y01088
X00544
X00512
Y01103999
Y01119999
X00496
Y01103999
Y01088
X0048
Y01103999
Y01119999
X00464
Y01103999
Y01088
X00448
Y01103999
Y01119999
X00432
Y01103999
Y01088
X00416
Y01119999
Y01136
Y01152
Y01167999
X00419Y01199
X0041Y01199
X00401Y01199
X00401Y01208
X0041Y01208
X00419Y01208
X00428Y01208
X00428Y01199
X00437Y01199
X00437Y01208
X00437Y01217
X00437Y01226
X00437Y01235
X00437Y01244
X00427955Y01244037
X00419Y01244
X0041Y01244
X00401Y01244
X00401Y01235
X00401Y01226
X00401Y01217
X0041Y01217
X0041Y01226
X0041Y01235
X00419Y01235
X00427955Y01235037
X00427955Y01226037
X00419Y01226
X00419Y01217
X00428Y01217
X00464Y01216
X0048
Y01232
X00496
X00512
X00528
X00544
Y01216
X0056
X00576
X00592
X00608
X00624
X0064
Y01232
Y01247999
X00624
Y01232
X00608
Y01247999
X00592
Y01232
X00576
Y01247999
X00544
X00528
X00512
X00496
X0048
X00464
Y01232
Y01199999
X00528
X00544
X0056
X00576
X00592
X00608
X00624
X0064
X00528Y01216
X00384
Y01232
Y01247999
X00368
Y01232
Y01216
Y01199999
X00384
X00352
Y01216
Y01232
Y01247999
X00336
Y01232
Y01216
Y01199999
X0032
Y01216
Y01232
Y01247999
X00304
Y01232
Y01216
Y01199999
X00288
Y01216
Y01232
Y01247999
X00272
Y01232
Y01216
Y01199999
T02
X0047Y01142
X00479Y01192
T03
X00396Y01102
X00416
T04
X00559Y01126
Y01236
T06
X00509Y01156
Y01206
M30
