G04*
G04 #@! TF.GenerationSoftware,Altium Limited,Altium NEXUS,4.0.8 (67)*
G04*
G04 Layer_Physical_Order=2*
G04 Layer_Color=16711680*
%FSLAX44Y44*%
%MOMM*%
G71*
G04*
G04 #@! TF.SameCoordinates,A6274CC6-94C6-42B1-B2ED-8DB77C6F39E9*
G04*
G04*
G04 #@! TF.FilePolarity,Positive*
G04*
G01*
G75*
%ADD27C,1.5000*%
%ADD28C,2.5000*%
%ADD29R,1.5000X1.5000*%
%ADD30C,1.2000*%
%ADD31O,2.0000X4.0000*%
%ADD32O,4.0000X2.0000*%
%ADD33O,4.5000X2.0000*%
%ADD34C,0.6000*%
G36*
X652820Y1261180D02*
Y1072820D01*
X651180Y1071180D01*
X262820D01*
X261180Y1072820D01*
Y1261180D01*
X262820Y1262820D01*
X651180D01*
X652820Y1261180D01*
D02*
G37*
%LPC*%
G36*
X559000Y1245179D02*
X556624Y1244866D01*
X554411Y1243949D01*
X552510Y1242490D01*
X551051Y1240589D01*
X550134Y1238376D01*
X549822Y1236000D01*
X550134Y1233624D01*
X551051Y1231411D01*
X552510Y1229510D01*
X554411Y1228051D01*
X556624Y1227134D01*
X559000Y1226822D01*
X561376Y1227134D01*
X563589Y1228051D01*
X565490Y1229510D01*
X566949Y1231411D01*
X567866Y1233624D01*
X568178Y1236000D01*
X567866Y1238376D01*
X566949Y1240589D01*
X565490Y1242490D01*
X563589Y1243949D01*
X561376Y1244866D01*
X559000Y1245179D01*
D02*
G37*
G36*
X509000Y1170222D02*
X505319Y1169737D01*
X501889Y1168316D01*
X498944Y1166056D01*
X496684Y1163111D01*
X495263Y1159681D01*
X494778Y1156000D01*
X495263Y1152319D01*
X496684Y1148889D01*
X498944Y1145944D01*
X501889Y1143684D01*
X505319Y1142263D01*
X509000Y1141778D01*
X512681Y1142263D01*
X516111Y1143684D01*
X519056Y1145944D01*
X521316Y1148889D01*
X522737Y1152319D01*
X523222Y1156000D01*
X522737Y1159681D01*
X521316Y1163111D01*
X519056Y1166056D01*
X516111Y1168316D01*
X512681Y1169737D01*
X509000Y1170222D01*
D02*
G37*
G36*
X470000Y1149666D02*
X468016Y1149404D01*
X466167Y1148639D01*
X464580Y1147420D01*
X463362Y1145833D01*
X462596Y1143984D01*
X462335Y1142000D01*
X462596Y1140016D01*
X463362Y1138167D01*
X464580Y1136580D01*
X466167Y1135361D01*
X468016Y1134596D01*
X470000Y1134334D01*
X471984Y1134596D01*
X473833Y1135361D01*
X475420Y1136580D01*
X476639Y1138167D01*
X477404Y1140016D01*
X477666Y1142000D01*
X477404Y1143984D01*
X476639Y1145833D01*
X475420Y1147420D01*
X473833Y1148639D01*
X471984Y1149404D01*
X470000Y1149666D01*
D02*
G37*
G36*
X559000Y1135179D02*
X556624Y1134866D01*
X554411Y1133949D01*
X552510Y1132490D01*
X551051Y1130589D01*
X550134Y1128376D01*
X549822Y1126000D01*
X550134Y1123624D01*
X551051Y1121411D01*
X552510Y1119510D01*
X554411Y1118051D01*
X556624Y1117134D01*
X559000Y1116822D01*
X561376Y1117134D01*
X563589Y1118051D01*
X565490Y1119510D01*
X566949Y1121411D01*
X567866Y1123624D01*
X568178Y1126000D01*
X567866Y1128376D01*
X566949Y1130589D01*
X565490Y1132490D01*
X563589Y1133949D01*
X561376Y1134866D01*
X559000Y1135179D01*
D02*
G37*
G36*
X337500Y1124700D02*
X312500D01*
X309472Y1124301D01*
X306650Y1123133D01*
X304227Y1121273D01*
X302367Y1118850D01*
X301199Y1116028D01*
X300800Y1113000D01*
X301199Y1109972D01*
X302367Y1107150D01*
X304227Y1104727D01*
X306650Y1102867D01*
X309472Y1101699D01*
X312500Y1101300D01*
X337500D01*
X340528Y1101699D01*
X343350Y1102867D01*
X345773Y1104727D01*
X347633Y1107150D01*
X348801Y1109972D01*
X349200Y1113000D01*
X348801Y1116028D01*
X347633Y1118850D01*
X345773Y1121273D01*
X343350Y1123133D01*
X340528Y1124301D01*
X337500Y1124700D01*
D02*
G37*
G36*
X405100Y1111100D02*
X386900D01*
Y1092900D01*
X405100D01*
Y1111100D01*
D02*
G37*
%LPD*%
D27*
X559000Y1126000D02*
D03*
Y1236000D02*
D03*
X416000Y1102000D02*
D03*
D28*
X509000Y1156000D02*
D03*
Y1206000D02*
D03*
D29*
X396000Y1102000D02*
D03*
D30*
X479000Y1192000D02*
D03*
X470000Y1142000D02*
D03*
D31*
X275000Y1145000D02*
D03*
D32*
X325000Y1175000D02*
D03*
D33*
Y1113000D02*
D03*
D34*
X544000Y1216000D02*
D03*
X640000Y1247999D02*
D03*
Y1232000D02*
D03*
Y1216000D02*
D03*
Y1199999D02*
D03*
Y1183999D02*
D03*
Y1167999D02*
D03*
Y1152000D02*
D03*
Y1136000D02*
D03*
Y1119999D02*
D03*
Y1103999D02*
D03*
Y1088000D02*
D03*
X624000Y1247999D02*
D03*
Y1232000D02*
D03*
Y1216000D02*
D03*
Y1199999D02*
D03*
Y1183999D02*
D03*
Y1167999D02*
D03*
Y1152000D02*
D03*
Y1136000D02*
D03*
Y1119999D02*
D03*
Y1103999D02*
D03*
Y1088000D02*
D03*
X608000Y1247999D02*
D03*
Y1232000D02*
D03*
Y1216000D02*
D03*
Y1199999D02*
D03*
Y1183999D02*
D03*
Y1167999D02*
D03*
Y1152000D02*
D03*
Y1136000D02*
D03*
Y1119999D02*
D03*
Y1103999D02*
D03*
Y1088000D02*
D03*
X592000Y1247999D02*
D03*
Y1232000D02*
D03*
Y1216000D02*
D03*
Y1199999D02*
D03*
Y1183999D02*
D03*
Y1167999D02*
D03*
Y1152000D02*
D03*
Y1136000D02*
D03*
Y1119999D02*
D03*
Y1103999D02*
D03*
Y1088000D02*
D03*
X576000Y1247999D02*
D03*
Y1232000D02*
D03*
Y1216000D02*
D03*
Y1199999D02*
D03*
Y1183999D02*
D03*
Y1167999D02*
D03*
Y1152000D02*
D03*
Y1136000D02*
D03*
Y1119999D02*
D03*
Y1103999D02*
D03*
Y1088000D02*
D03*
X560000Y1216000D02*
D03*
Y1199999D02*
D03*
Y1183999D02*
D03*
Y1167999D02*
D03*
Y1152000D02*
D03*
Y1103999D02*
D03*
Y1088000D02*
D03*
X544000Y1247999D02*
D03*
Y1232000D02*
D03*
Y1199999D02*
D03*
Y1183999D02*
D03*
Y1167999D02*
D03*
Y1152000D02*
D03*
Y1136000D02*
D03*
Y1119999D02*
D03*
Y1103999D02*
D03*
Y1088000D02*
D03*
X528000Y1247999D02*
D03*
Y1232000D02*
D03*
Y1216000D02*
D03*
Y1199999D02*
D03*
Y1183999D02*
D03*
Y1119999D02*
D03*
Y1103999D02*
D03*
Y1088000D02*
D03*
X512000Y1247999D02*
D03*
Y1232000D02*
D03*
Y1183999D02*
D03*
Y1119999D02*
D03*
Y1103999D02*
D03*
Y1088000D02*
D03*
X496000Y1247999D02*
D03*
Y1232000D02*
D03*
Y1183999D02*
D03*
Y1119999D02*
D03*
Y1103999D02*
D03*
Y1088000D02*
D03*
X480000Y1247999D02*
D03*
Y1232000D02*
D03*
Y1216000D02*
D03*
Y1119999D02*
D03*
Y1103999D02*
D03*
Y1088000D02*
D03*
X464000Y1247999D02*
D03*
Y1232000D02*
D03*
Y1216000D02*
D03*
Y1199999D02*
D03*
Y1183999D02*
D03*
Y1119999D02*
D03*
Y1103999D02*
D03*
Y1088000D02*
D03*
X448000Y1119999D02*
D03*
Y1103999D02*
D03*
Y1088000D02*
D03*
X432000Y1119999D02*
D03*
Y1103999D02*
D03*
Y1088000D02*
D03*
X416000Y1167999D02*
D03*
Y1152000D02*
D03*
Y1136000D02*
D03*
Y1119999D02*
D03*
Y1088000D02*
D03*
X384000Y1247999D02*
D03*
Y1232000D02*
D03*
Y1216000D02*
D03*
Y1199999D02*
D03*
Y1183999D02*
D03*
X368000Y1247999D02*
D03*
Y1232000D02*
D03*
Y1216000D02*
D03*
Y1199999D02*
D03*
Y1183999D02*
D03*
Y1167999D02*
D03*
Y1152000D02*
D03*
Y1136000D02*
D03*
X352000Y1247999D02*
D03*
Y1232000D02*
D03*
Y1216000D02*
D03*
Y1199999D02*
D03*
Y1183999D02*
D03*
Y1167999D02*
D03*
Y1152000D02*
D03*
Y1136000D02*
D03*
X336000Y1247999D02*
D03*
Y1232000D02*
D03*
Y1216000D02*
D03*
Y1199999D02*
D03*
Y1152000D02*
D03*
Y1136000D02*
D03*
X320000Y1247999D02*
D03*
Y1232000D02*
D03*
Y1216000D02*
D03*
Y1199999D02*
D03*
Y1152000D02*
D03*
Y1136000D02*
D03*
X304000Y1247999D02*
D03*
Y1232000D02*
D03*
Y1216000D02*
D03*
Y1199999D02*
D03*
Y1152000D02*
D03*
Y1136000D02*
D03*
X288000Y1247999D02*
D03*
Y1232000D02*
D03*
Y1216000D02*
D03*
Y1199999D02*
D03*
Y1183999D02*
D03*
Y1167999D02*
D03*
Y1119999D02*
D03*
Y1103999D02*
D03*
Y1088000D02*
D03*
X272000Y1247999D02*
D03*
Y1232000D02*
D03*
Y1216000D02*
D03*
Y1199999D02*
D03*
Y1183999D02*
D03*
Y1119999D02*
D03*
Y1103999D02*
D03*
Y1088000D02*
D03*
X410000Y1190000D02*
D03*
X401000Y1190000D02*
D03*
X401000Y1199000D02*
D03*
X401000Y1208000D02*
D03*
X410000Y1199000D02*
D03*
X410000Y1208000D02*
D03*
X419000Y1190000D02*
D03*
X419000Y1199000D02*
D03*
X428000Y1190000D02*
D03*
X428000Y1199000D02*
D03*
X437000Y1190000D02*
D03*
X437000Y1199000D02*
D03*
X437000Y1208000D02*
D03*
X437000Y1244000D02*
D03*
X427955Y1244037D02*
D03*
X419000Y1244000D02*
D03*
X410000Y1244000D02*
D03*
X401000Y1244000D02*
D03*
X401000Y1235000D02*
D03*
X401000Y1226000D02*
D03*
X401000Y1217000D02*
D03*
X437000Y1235000D02*
D03*
X437000Y1226000D02*
D03*
X427955Y1235037D02*
D03*
X419000Y1235000D02*
D03*
X410000Y1235000D02*
D03*
X410000Y1226000D02*
D03*
X427955Y1226037D02*
D03*
X437000Y1217000D02*
D03*
X428000Y1208000D02*
D03*
X419000Y1208000D02*
D03*
X410000Y1217000D02*
D03*
X419000Y1226000D02*
D03*
X428000Y1217000D02*
D03*
X419000Y1217000D02*
D03*
M02*
