G04*
G04 #@! TF.GenerationSoftware,Altium Limited,Altium NEXUS,4.0.8 (67)*
G04*
G04 Layer_Color=65535*
%FSLAX44Y44*%
%MOMM*%
G71*
G04*
G04 #@! TF.SameCoordinates,A6274CC6-94C6-42B1-B2ED-8DB77C6F39E9*
G04*
G04*
G04 #@! TF.FilePolarity,Positive*
G04*
G01*
G75*
%ADD10C,0.2540*%
%ADD11C,0.2500*%
%ADD12C,0.2000*%
%ADD13C,0.1500*%
G36*
X421440Y1121050D02*
X430330Y1112160D01*
Y1110690D01*
X431400Y1109620D01*
Y1094180D01*
X430330Y1093110D01*
Y1091840D01*
X421440Y1082950D01*
X418500Y1081000D01*
Y1090000D01*
X420320D01*
X427590Y1097270D01*
Y1105810D01*
X420320Y1113080D01*
Y1114000D01*
X418500D01*
Y1123000D01*
X421440Y1121050D01*
D02*
G37*
D10*
X418447Y1090252D02*
G03*
X418447Y1113748I-2888J11748D01*
G01*
X431500Y1102000D02*
G03*
X431500Y1102000I-25000J0D01*
G01*
X418500Y1081000D02*
Y1090000D01*
Y1114000D02*
Y1123000D01*
D11*
X385600Y1151500D02*
G03*
X385600Y1151500I-1250J0D01*
G01*
D12*
X648500Y1132250D02*
Y1228750D01*
X545250Y1114000D02*
Y1246750D01*
X566500Y1132250D02*
X648500D01*
X566500Y1114000D02*
Y1132250D01*
X545250Y1114000D02*
X566500D01*
X545250Y1246750D02*
X566500D01*
Y1228750D02*
Y1246750D01*
Y1228750D02*
X648500D01*
X461000Y1202000D02*
X488000D01*
X461000Y1132000D02*
Y1202000D01*
X488000Y1132000D02*
Y1202000D01*
X461000Y1132000D02*
X488000D01*
X466880Y1163190D02*
X482120D01*
X474500Y1151760D02*
Y1163190D01*
X466880Y1170810D02*
X482120D01*
X474500D02*
Y1182240D01*
X347042Y1108890D02*
X370042Y1108890D01*
Y1254890D01*
X280042D02*
X370042D01*
X280042Y1108890D02*
X303042D01*
X280042D02*
Y1127890D01*
Y1171890D02*
Y1254890D01*
X385500Y1172000D02*
Y1179500D01*
Y1172000D02*
X452500D01*
Y1179500D01*
D13*
X547500Y1110749D02*
X545167D01*
X546334D01*
Y1104917D01*
X545167Y1103751D01*
X544001D01*
X542835Y1104917D01*
X549833Y1103751D02*
X552165D01*
X550999D01*
Y1110749D01*
X549833Y1109583D01*
X455085Y1250749D02*
Y1244917D01*
X456251Y1243751D01*
X458584D01*
X459750Y1244917D01*
Y1250749D01*
X462083Y1243751D02*
X464415D01*
X463249D01*
Y1250749D01*
X462083Y1249583D01*
X284334Y1106249D02*
X282001D01*
X283167D01*
Y1100417D01*
X282001Y1099251D01*
X280835D01*
X279669Y1100417D01*
X291331Y1099251D02*
X286666D01*
X291331Y1103916D01*
Y1105083D01*
X290165Y1106249D01*
X287833D01*
X286666Y1105083D01*
X464584Y1127333D02*
X463417Y1128499D01*
X461085D01*
X459919Y1127333D01*
Y1122667D01*
X461085Y1121501D01*
X463417D01*
X464584Y1122667D01*
X471581Y1121501D02*
X466916D01*
X471581Y1126166D01*
Y1127333D01*
X470415Y1128499D01*
X468083D01*
X466916Y1127333D01*
X439000Y1082583D02*
X437834Y1083749D01*
X435501D01*
X434335Y1082583D01*
Y1077917D01*
X435501Y1076751D01*
X437834D01*
X439000Y1077917D01*
X441333Y1076751D02*
X443665D01*
X442499D01*
Y1083749D01*
X441333Y1082583D01*
M02*
