M48
;Layer_Color=9474304
;FILE_FORMAT=4:4
METRIC,LZ
;TYPE=PLATED
T1F00S00C0.3000
T2F00S00C0.8128
T3F00S00C0.9000
T4F00S00C1.0000
T5F00S00C1.1000
%
T01
X0001184Y0001587
X0003884
X0006584
X0007484
X0008384
X0009284
X0010184
X0011084
X0011984
X0012884
X0013784
X0014684
X0015584
X0016484
X0017384
X0018284
X0019184
X0020084
X00209841
X00218841
X0022784
X0023684
X0024584
X00254841
X00263841
X0027284
X0028184
X0029084
X00299841
X00308841
X00317841
X00326841
X00335841
X00344841
X00353841
X00362841
X00371841
X00380841
X00443841
Y0003387
Y0004287
Y0006087
Y0006987
Y0008787
Y0009687
Y0010587
Y0011487
Y0013287
Y0014187
Y0015987
Y00168871
Y0018687
Y0019587
Y00213871
Y00222871
Y0023187
Y0024087
Y0024987
Y00258871
Y00267871
Y0028587
Y00294871
Y00312871
Y00321871
Y00339871
Y00348871
Y00366871
Y00375871
Y00384871
X00434841Y0024087
X00416841Y00267871
X00398841
X00389841
Y00258871
Y00213871
X00382495Y00216
X00373995
X00365495
X00356995
X00348495
X00339995
X00331495
X00335841Y00222871
X00344841
X00353841
X00362841
X0034638Y00263
X0033788
X0032938
X0032088
X0028184Y0024987
X0027284
Y00258871
X00263841
Y0024987
Y0024087
X0027284
X00288224Y00242276
X00299Y002315
X0029084Y00222871
Y00213871
X00299841
Y0020487
Y0019587
X0029084
Y0020487
X0028184
Y00213871
Y00222871
X0027284
Y00213871
X00263841Y00222871
X00249438Y00214428
X0024584Y0020487
Y0019587
X00254841
Y0018687
X00263841
Y00177871
X0027284
X0024584Y0015987
Y0015087
Y0014187
X0023684
Y0015087
Y0015987
Y00168871
X0022784
Y00177871
X00218841
Y0018687
X00209841
Y00177871
X00218841Y00168871
Y0015987
X0022784
Y0015087
Y0014187
X0023684Y0013287
X00218841Y0015087
X002245Y001045
Y00096
X0024584Y0007887
X00254841
X00263841
Y0006987
Y0006087
X0027284
X0028184
X0029084
X00299841
X00317841
Y0005187
X00308841
X0029084
Y0004287
X0028184
Y0005187
X0027284
Y0004287
Y0003387
X0028184
Y0002487
X0029084
X00308841
X00317841
X00335841
Y0005187
X00344841
X00353841
X00362841
X00371841
Y0004287
X00380841
Y0003387
Y0002487
X00371841
Y0003387
X00362841Y0006087
X00353841
X00344841
X00335841
X00278Y00074
X00254841Y0006987
Y0006087
Y0005187
X00263841
Y0004287
Y0003387
Y0002487
X0027284
X0024584Y0005187
Y0006087
Y0006987
X0023684
Y0006087
Y0005187
X00209841
Y0006087
Y0004287
Y0002487
X0018284
Y0003387
X0017384
Y0002487
X0016484
Y0003387
X0015584
Y0002487
X0014684
Y0003387
X00137Y000255
X000895Y0002525
X0007484Y0002487
X0006584
X0003884Y0006987
Y0013287
Y0014187
Y0015987
Y00168871
X0006584
X0007484
X0008384
X0009284
X0010184
X0011084
X0011984
X0012884
Y0015987
X0011984
Y0014187
X0012884
X0013784
Y0013287
X0012884
Y0012387
Y0011487
X0011984
Y0012387
Y0013287
X0011084
Y0012387
Y0011487
X0011984Y0010587
X00119776Y00092474
X001325Y0008625
Y0007775
X00124
X001155
X0010949Y0008376
X0010184Y0007887
X0009284Y0010587
X0008384
Y0011487
X0007484
Y0012387
Y0013287
Y0014187
X0008384
X0009284
Y0015087
Y0015987
X0010184
X0008384
Y0015087
X0007484
Y0015987
X0006584
Y0015087
Y0014187
Y0013287
Y0012387
X0010184
Y0013287
X0015584
Y0012387
X0016484
Y0011487
Y0010587
Y0009687
Y0008787
X0015584
Y0009687
Y0010587
X0014684Y0009687
Y0008787
X001495Y0007775
X00141
X0013784Y0009687
X0016925Y00133729
X0016324Y0013974
X0016925Y0014575
X0014625Y0015825
Y0016675
X0013775
X0015475
X0015584Y0020487
Y00213871
Y00222871
X0014684Y00213871
X0013625Y0021625
X0012884Y00222871
X0012175Y00225
X0011325
X0010475
X0009625
X0008775
X0007925
X0007075
X0003884Y0019587
X00174112Y00195862
X00184888Y00206638
X0019184Y00213871
X0020084
X00209841
X00218841
X0022784
X0023684
Y00222871
Y0023187
X0022784
Y0024087
X00218841
Y0024987
Y0023187
Y00222871
X0022784
Y0020487
X0023684
X00218841
X00209841
X0020084
Y00222871
X00209841
Y0023187
Y0024087
X0020084Y0023187
X0019184Y00222871
X0017325Y00247
X0022935Y0026925
X00254841Y0027687
X002595Y0031725
X00263841Y00330871
X0027284
X0027025Y0034
X0028184Y00339871
Y00348871
X0029084
Y00357871
X00299841
Y00366871
X00308841
Y00375871
X00317841
Y00384871
X00308841
Y00393871
X00299841
Y00402871
X0029084
Y00393871
Y00384871
X00299841
Y00375871
X0029084
Y00366871
X0028184
Y00375871
X0027284
Y00366871
X00263841
Y00375871
Y00384871
X0024584
Y00375871
Y00366871
Y00357871
Y00348871
X0023684
Y00357871
Y00366871
X0022784
Y00357871
Y00348871
Y00339871
X0023684
X0022784Y00330871
X002325Y00302267
X0019675Y00325
Y00334
Y00343
Y00352
Y0037
Y00388
X00179Y0037725
X00175Y00363
X0015225Y0037475
X0013875Y003725
X0017384Y00402871
X0022784Y00411871
X00232Y00381
X00218841Y00366871
X002145Y0036025
X0027025Y0035575
X0028184Y00357871
X00344841Y00348871
X0035425Y0034925
X00362841Y00348871
X0037712Y00391
X00389841Y00402871
Y00411871
X00416841Y00393871
X00425841Y00366871
X00416841Y00312871
X00353841Y00402871
X00344841
Y00411871
X00317841
X00244Y00226
X0020084Y0018687
X002565Y00087
X00416841Y0008787
X00425841
X0003884Y00348871
X0006584Y00402871
X0001184
Y00411871
Y00393871
Y00384871
Y00375871
Y00366871
Y00357871
Y00348871
Y00339871
Y00330871
Y00321871
Y00312871
Y00303871
Y00294871
Y0028587
Y0027687
Y00267871
Y00258871
Y0024987
Y0024087
X0002084
X0002984
X0001184Y0023187
Y00222871
Y00213871
Y0020487
Y0019587
Y0018687
Y00177871
Y00168871
Y0015987
Y0015087
Y0014187
Y0013287
Y0012387
Y0011487
Y0010587
Y0009687
Y0008787
Y0007887
Y0006987
Y0006087
Y0005187
Y0004287
Y0003387
Y0002487
Y00420871
X0002084
X0002984
X0003884
X0004784
X0005684
X0024725Y00421
X00362841Y00420871
X00389841
X00398841
X00407841
X00416841
X00425841
X00434841
X00443841
T02
X00110508Y00149992
X00144992Y00115508
T03
X001985Y0003475
X002235
X002485
X00302Y00035
X00327
X00352
T04
X0033175Y0034775
X0037675
Y0041275
X0033175
T05
X004314Y00025
Y000504
X004314Y000758
X004314Y001012
Y001266
Y00152
Y001774
X004314Y002028
X004314Y002282
Y002536
Y00279
X004314Y003044
X004314Y003298
Y003552
Y003806
Y00406
X00406Y00406
X00406Y003806
X00406Y003552
Y003298
X00406Y003044
Y00279
Y002536
X00406Y002282
Y002028
Y001774
X00406Y00152
X00406Y001266
Y001012
X00406Y000758
Y000504
Y00025
X000504
Y000504
X000504Y000758
Y001012
X000504Y001266
X000504Y00152
Y001774
X000504Y002028
X000504Y002282
Y002536
Y00279
X000504Y003044
Y003298
X000504Y003552
X000504Y003806
Y00406
X00086Y0039925
X00111
X00136
X00161
X00186
X00211
X002515Y0039975
X002765
X00025Y00406
Y003806
X00025Y003552
X00025Y003298
Y003044
X00025Y00279
Y002536
X00025Y002282
X00025Y002028
Y001774
Y00152
X00025Y001266
X00025Y001012
Y000758
X00025Y000504
Y00025
M30
